<svg xmlns="http://www.w3.org/2000/svg" id="_Шар_1" data-name="Шар_1" version="1.1" viewBox="0 0 640 320"><defs><linearGradient id="_Градієнт_без_назви" x1="303.3" x2="303.3" y1="114.6" y2="262.8" data-name="Градієнт без назви" gradientTransform="translate(0 140)" gradientUnits="userSpaceOnUse"><stop offset="0" stop-color="#5f58ff"/><stop offset="1" stop-color="#fb8569" stop-opacity="0"/></linearGradient><linearGradient id="_Градієнт_без_назви_2" x1="130.9" x2="137.9" y1="14.7" y2="14.7" data-name="Градієнт без назви 2" gradientTransform="matrix(1 0 0 -1 0 320)" gradientUnits="userSpaceOnUse"><stop offset="0" stop-color="#4fb5ff"/><stop offset="1" stop-color="#0468ff"/></linearGradient><linearGradient id="_Градієнт_без_назви_3" x1="150.6" x2="157.6" y1="-2.7" y2="-2.7" data-name="Градієнт без назви 3" gradientTransform="matrix(1 0 0 -1 0 320)" gradientUnits="userSpaceOnUse"><stop offset="0" stop-color="#4fb5ff"/><stop offset="1" stop-color="#0468ff"/></linearGradient><linearGradient id="_Градієнт_без_назви_4" x1="446.6" x2="453.5" y1="14.7" y2="14.7" data-name="Градієнт без назви 4" gradientTransform="matrix(1 0 0 -1 0 320)" gradientUnits="userSpaceOnUse"><stop offset="0" stop-color="#4fb5ff"/><stop offset="1" stop-color="#0468ff"/></linearGradient><linearGradient id="_Градієнт_без_назви_5" x1="486" x2="493" y1="12.9" y2="12.9" data-name="Градієнт без назви 5" gradientTransform="matrix(1 0 0 -1 0 320)" gradientUnits="userSpaceOnUse"><stop offset="0" stop-color="#4fb5ff"/><stop offset="1" stop-color="#0468ff"/></linearGradient><linearGradient id="_Градієнт_без_назви_6" x1="505.8" x2="512.7" y1="6" y2="6" data-name="Градієнт без назви 6" gradientTransform="matrix(1 0 0 -1 0 320)" gradientUnits="userSpaceOnUse"><stop offset="0" stop-color="#4fb5ff"/><stop offset="1" stop-color="#0468ff"/></linearGradient><linearGradient id="_Градієнт_без_назви_7" x1="91.5" x2="98.4" y1="82.6" y2="82.6" data-name="Градієнт без назви 7" gradientTransform="matrix(1 0 0 -1 0 320)" gradientUnits="userSpaceOnUse"><stop offset="0" stop-color="#4fb5ff"/><stop offset="1" stop-color="#0468ff"/></linearGradient><linearGradient id="_Градієнт_без_назви_8" x1="111.2" x2="118.2" y1="66.9" y2="66.9" data-name="Градієнт без назви 8" gradientTransform="matrix(1 0 0 -1 0 320)" gradientUnits="userSpaceOnUse"><stop offset="0" stop-color="#4fb5ff"/><stop offset="1" stop-color="#0468ff"/></linearGradient><linearGradient id="_Градієнт_без_назви_9" x1="170.4" x2="177.3" y1="40.8" y2="40.8" data-name="Градієнт без назви 9" gradientTransform="matrix(1 0 0 -1 0 320)" gradientUnits="userSpaceOnUse"><stop offset="0" stop-color="#4fb5ff"/><stop offset="1" stop-color="#0468ff"/></linearGradient><linearGradient id="_Градієнт_без_назви_10" x1="190.1" x2="197.1" y1="44.3" y2="44.3" data-name="Градієнт без назви 10" gradientTransform="matrix(1 0 0 -1 0 320)" gradientUnits="userSpaceOnUse"><stop offset="0" stop-color="#4fb5ff"/><stop offset="1" stop-color="#0468ff"/></linearGradient><linearGradient id="_Градієнт_без_назви_11" x1="209.8" x2="216.8" y1="19.9" y2="19.9" data-name="Градієнт без назви 11" gradientTransform="matrix(1 0 0 -1 0 320)" gradientUnits="userSpaceOnUse"><stop offset="0" stop-color="#4fb5ff"/><stop offset="1" stop-color="#0468ff"/></linearGradient><linearGradient id="_Градієнт_без_назви_12" x1="229.6" x2="236.5" y1="75.6" y2="75.6" data-name="Градієнт без назви 12" gradientTransform="matrix(1 0 0 -1 0 320)" gradientUnits="userSpaceOnUse"><stop offset="0" stop-color="#4fb5ff"/><stop offset="1" stop-color="#0468ff"/></linearGradient><linearGradient id="_Градієнт_без_назви_13" x1="249.3" x2="256.3" y1="18.2" y2="18.2" data-name="Градієнт без назви 13" gradientTransform="matrix(1 0 0 -1 0 320)" gradientUnits="userSpaceOnUse"><stop offset="0" stop-color="#4fb5ff"/><stop offset="1" stop-color="#0468ff"/></linearGradient><linearGradient id="_Градієнт_без_назви_14" x1="269" x2="276" y1="37.3" y2="37.3" data-name="Градієнт без назви 14" gradientTransform="matrix(1 0 0 -1 0 320)" gradientUnits="userSpaceOnUse"><stop offset="0" stop-color="#4fb5ff"/><stop offset="1" stop-color="#0468ff"/></linearGradient><linearGradient id="_Градієнт_без_назви_15" x1="288.7" x2="295.7" y1="49.5" y2="49.5" data-name="Градієнт без назви 15" gradientTransform="matrix(1 0 0 -1 0 320)" gradientUnits="userSpaceOnUse"><stop offset="0" stop-color="#4fb5ff"/><stop offset="1" stop-color="#0468ff"/></linearGradient><linearGradient id="_Градієнт_без_назви_16" x1="308.5" x2="315.4" y1="63.4" y2="63.4" data-name="Градієнт без назви 16" gradientTransform="matrix(1 0 0 -1 0 320)" gradientUnits="userSpaceOnUse"><stop offset="0" stop-color="#4fb5ff"/><stop offset="1" stop-color="#0468ff"/></linearGradient><linearGradient id="_Градієнт_без_назви_17" x1="328.2" x2="335.2" y1="70.4" y2="70.4" data-name="Градієнт без назви 17" gradientTransform="matrix(1 0 0 -1 0 320)" gradientUnits="userSpaceOnUse"><stop offset="0" stop-color="#4fb5ff"/><stop offset="1" stop-color="#0468ff"/></linearGradient><linearGradient id="_Градієнт_без_назви_18" x1="347.9" x2="354.9" y1="51.2" y2="51.2" data-name="Градієнт без назви 18" gradientTransform="matrix(1 0 0 -1 0 320)" gradientUnits="userSpaceOnUse"><stop offset="0" stop-color="#4fb5ff"/><stop offset="1" stop-color="#0468ff"/></linearGradient><linearGradient id="_Градієнт_без_назви_19" x1="367.7" x2="374.6" y1="66.9" y2="66.9" data-name="Градієнт без назви 19" gradientTransform="matrix(1 0 0 -1 0 320)" gradientUnits="userSpaceOnUse"><stop offset="0" stop-color="#4fb5ff"/><stop offset="1" stop-color="#0468ff"/></linearGradient><linearGradient id="_Градієнт_без_назви_20" x1="387.4" x2="394.4" y1="75.6" y2="75.6" data-name="Градієнт без назви 20" gradientTransform="matrix(1 0 0 -1 0 320)" gradientUnits="userSpaceOnUse"><stop offset="0" stop-color="#4fb5ff"/><stop offset="1" stop-color="#0468ff"/></linearGradient><linearGradient id="_Градієнт_без_назви_21" x1="407.1" x2="414.1" y1="49.5" y2="49.5" data-name="Градієнт без назви 21" gradientTransform="matrix(1 0 0 -1 0 320)" gradientUnits="userSpaceOnUse"><stop offset="0" stop-color="#4fb5ff"/><stop offset="1" stop-color="#0468ff"/></linearGradient><linearGradient id="_Градієнт_без_назви_22" x1="426.8" x2="433.8" y1="54.7" y2="54.7" data-name="Градієнт без назви 22" gradientTransform="matrix(1 0 0 -1 0 320)" gradientUnits="userSpaceOnUse"><stop offset="0" stop-color="#4fb5ff"/><stop offset="1" stop-color="#0468ff"/></linearGradient><linearGradient id="_Градієнт_без_назви_23" x1="466.3" x2="473.3" y1="23.4" y2="23.4" data-name="Градієнт без назви 23" gradientTransform="matrix(1 0 0 -1 0 320)" gradientUnits="userSpaceOnUse"><stop offset="0" stop-color="#4fb5ff"/><stop offset="1" stop-color="#0468ff"/></linearGradient><linearGradient id="_Градієнт_без_назви_24" x1="525.5" x2="532.5" y1="66.9" y2="66.9" data-name="Градієнт без назви 24" gradientTransform="matrix(1 0 0 -1 0 320)" gradientUnits="userSpaceOnUse"><stop offset="0" stop-color="#4fb5ff"/><stop offset="1" stop-color="#0468ff"/></linearGradient><linearGradient id="_Градієнт_без_назви_25" x1="545.2" x2="552.2" y1="70.4" y2="70.4" data-name="Градієнт без назви 25" gradientTransform="matrix(1 0 0 -1 0 320)" gradientUnits="userSpaceOnUse"><stop offset="0" stop-color="#4fb5ff"/><stop offset="1" stop-color="#0468ff"/></linearGradient><linearGradient id="_Градієнт_без_назви_26" x1="584.1" x2="580.9" y1="-133.1" y2="-131.3" data-name="Градієнт без назви 26" gradientTransform="matrix(-1 0 0 1 1130.4 289.4)" gradientUnits="userSpaceOnUse"><stop offset="0" stop-color="#ff4e7f"/><stop offset="1" stop-color="#e6545a"/></linearGradient><linearGradient id="_Градієнт_без_назви_27" x1="561.1" x2="543.7" y1="21.7" y2="3.7" data-name="Градієнт без назви 27" gradientTransform="translate(0 140)" gradientUnits="userSpaceOnUse"><stop offset="0" stop-color="#ff4e7f"/><stop offset="1" stop-color="#e6545a"/></linearGradient><linearGradient id="_Градієнт_без_назви_28" x1="741.9" x2="738.8" y1="-144" y2="-142.2" data-name="Градієнт без назви 28" gradientTransform="matrix(-1 0 0 1 1130.4 289.4)" gradientUnits="userSpaceOnUse"><stop offset="0" stop-color="#ff4e7f"/><stop offset="1" stop-color="#e6545a"/></linearGradient><linearGradient id="_Градієнт_без_назви_29" x1="403.2" x2="385.9" y1="11" y2="-7.1" data-name="Градієнт без назви 29" gradientTransform="translate(0 140)" gradientUnits="userSpaceOnUse"><stop offset="0" stop-color="#ff4e7f"/><stop offset="1" stop-color="#e6545a"/></linearGradient><linearGradient id="_Градієнт_без_назви_30" x1="899.8" x2="896.6" y1="-143.6" y2="-141.8" data-name="Градієнт без назви 30" gradientTransform="matrix(-1 0 0 1 1130.4 289.4)" gradientUnits="userSpaceOnUse"><stop offset="0" stop-color="#ff4e7f"/><stop offset="1" stop-color="#e6545a"/></linearGradient><linearGradient id="_Градієнт_без_назви_31" x1="245.4" x2="228" y1="11.3" y2="-6.7" data-name="Градієнт без назви 31" gradientTransform="translate(0 140)" gradientUnits="userSpaceOnUse"><stop offset="0" stop-color="#ff4e7f"/><stop offset="1" stop-color="#e6545a"/></linearGradient><linearGradient id="_Градієнт_без_назви_32" x1="1037.9" x2="1034.7" y1="-157.8" y2="-156" data-name="Градієнт без назви 32" gradientTransform="matrix(-1 0 0 1 1130.4 289.4)" gradientUnits="userSpaceOnUse"><stop offset="0" stop-color="#ff4e7f"/><stop offset="1" stop-color="#e6545a"/></linearGradient><linearGradient id="_Градієнт_без_назви_33" x1="107.3" x2="89.9" y1="-2.9" y2="-20.9" data-name="Градієнт без назви 33" gradientTransform="translate(0 140)" gradientUnits="userSpaceOnUse"><stop offset="0" stop-color="#ff4e7f"/><stop offset="1" stop-color="#e6545a"/></linearGradient><clipPath id="clippath"><path d="M0 0h640v320H0z" class="st6"/></clipPath><clipPath id="clippath-1"><rect width="528.1" height="578.8" x="56" y="39" class="st6" rx="12" ry="12"/></clipPath><clipPath id="clippath-2"><rect width="268" height="174.2" x="348" y="8" class="st6" rx="6" ry="6"/></clipPath><clipPath id="clippath-3"><rect width="206.9" height="11" x="393.8" y="66.5" class="st6" rx="2.5" ry="2.5"/></clipPath><clipPath id="clippath-4"><rect width="206.9" height="11" x="393.8" y="86" class="st6" rx="2.5" ry="2.5"/></clipPath><clipPath id="clippath-5"><rect width="206.9" height="11" x="393.8" y="105.5" class="st6" rx="2.5" ry="2.5"/></clipPath><clipPath id="clippath-6"><rect width="206.9" height="11" x="393.8" y="125" class="st6" rx="2.5" ry="2.5"/></clipPath><clipPath id="clippath-7"><rect width="206.9" height="11" x="393.8" y="144.5" class="st6" rx="2.5" ry="2.5"/></clipPath><style>.st4{fill:#002b31}.st6{fill:none}.st15,.st16{fill:#fff}.st19{fill:#1d2a29}.st19,.st20{fill-opacity:.6}.st36{fill:#40ab63}.st37{fill:#8a8a7b;fill-opacity:.1}.st42{fill:#e1e3e3}.st45{display:none}.st20{fill:#f2f7f7}.st16{fill-opacity:0}.st60{fill:#f7f7f7}</style></defs><path id="_Шар_4" d="M587 404.9c0 9.2-7.4 16.6-16.6 16.6H73.2c-9.2 0-16.6-7.4-16.6-16.6V51.1c0-9.2 7.4-16.6 16.6-16.6h497.1c9.1 0 16.6 7.4 16.6 16.6v353.8z" class="st15"/><g id="_Шар_3" style="isolation:isolate"><text style="isolation:isolate;fill:#29292e;font-family:OpenSans-Bold,&quot;Open Sans&quot;;font-size:13.2px;font-weight:700" transform="translate(80 79.5)"><tspan x="0" y="0">User Behavior Analysis</tspan></text></g><g id="_Шар_6"><path d="M91.5 134.7h7v205.4h-7z" style="fill:#454650"/><path d="M111.2 134.7h7v205.4h-7zM130.9 134.7h7v205.4h-7zM150.6 134.7h7v205.4h-7zM170.4 134.7h7v205.4h-7z" class="st60"/><path d="M130.9 270.5h7v69.6h-7z" style="fill:url(#_Градієнт_без_назви_2)"/><path d="M150.6 305.3h7v34.8h-7z" style="fill:url(#_Градієнт_без_назви_3)"/><path d="M190.1 134.7h7v205.4h-7zM209.8 134.7h7v205.4h-7zM229.5 134.7h7v205.4h-7zM249.3 134.7h7v205.4h-7zM269 134.7h7v205.4h-7zM288.7 134.7h7v205.4h-7zM308.5 134.7h7v205.4h-7zM328.2 134.7h7v205.4h-7zM347.9 134.7h7v205.4h-7zM367.7 134.7h7v205.4h-7zM387.4 134.7h7v205.4h-7zM407.1 134.7h7v205.4h-7zM426.8 134.7h7v205.4h-7zM446.6 134.7h7v205.4h-7zM466.3 134.7h7v205.4h-7zM486 134.7h7v205.4h-7zM505.8 134.7h7v205.4h-7zM525.5 134.7h7v205.4h-7z" class="st60"/><path d="M446.6 270.5h7v69.6h-7z" style="fill:url(#_Градієнт_без_назви_4)"/><path d="M486 274h7v66.1h-7z" style="fill:url(#_Градієнт_без_назви_5)"/><path d="M505.8 287.9h7v52.2h-7z" style="fill:url(#_Градієнт_без_назви_6)"/><path d="M545.2 134.7h7v205.4h-7z" class="st60"/><path d="M91.5 134.7h7v205.4h-7z" style="fill:url(#_Градієнт_без_назви_7)"/><path d="M111.2 166h7v174.1h-7z" style="fill:url(#_Градієнт_без_назви_8)"/><path d="M170.4 218.2h7v121.9h-7z" style="fill:url(#_Градієнт_без_назви_9)"/><path d="M190.1 211.3h7v128.8h-7z" style="fill:url(#_Градієнт_без_назви_10)"/><path d="M209.8 260h7v80.1h-7z" style="fill:url(#_Градієнт_без_назви_11)"/><path d="M229.6 148.6h7v191.5h-7z" style="fill:url(#_Градієнт_без_назви_12)"/><path d="M249.3 263.5h7v76.6h-7z" style="fill:url(#_Градієнт_без_назви_13)"/><path d="M269 225.2h7v114.9h-7z" style="fill:url(#_Градієнт_без_назви_14)"/><path d="M288.7 200.8h7v139.3h-7z" style="fill:url(#_Градієнт_без_назви_15)"/><path d="M308.5 173h7v167.1h-7z" style="fill:url(#_Градієнт_без_назви_16)"/><path d="M328.2 159.1h7v181h-7z" style="fill:url(#_Градієнт_без_назви_17)"/><path d="M347.9 197.4h7v142.7h-7z" style="fill:url(#_Градієнт_без_назви_18)"/><path d="M367.7 166h7v174.1h-7z" style="fill:url(#_Градієнт_без_назви_19)"/><path d="M387.4 148.6h7v191.5h-7z" style="fill:url(#_Градієнт_без_назви_20)"/><path d="M407.1 200.8h7v139.3h-7z" style="fill:url(#_Градієнт_без_назви_21)"/><path d="M426.8 190.4h7v149.7h-7z" style="fill:url(#_Градієнт_без_назви_22)"/><path d="M466.3 253.1h7v87h-7z" style="fill:url(#_Градієнт_без_назви_23)"/><path d="M525.5 166h7v174.1h-7z" style="fill:url(#_Градієнт_без_назви_24)"/><path d="M545.2 159.1h7v181h-7z" style="fill:url(#_Градієнт_без_назви_25)"/><path d="m550 157-1.3 2-1.3-2z" style="fill:url(#_Градієнт_без_назви_26)"/><path d="M557 148.9c0 4.6-3.7 8.3-8.3 8.3s-8.3-3.7-8.3-8.3 3.7-8.3 8.3-8.3 8.3 3.7 8.3 8.3" style="fill:url(#_Градієнт_без_назви_27)"/><path d="M548.7 143.8c.3 0 .5 0 .7.4l4.3 7.3v.8c0 .3-.4.4-.7.4h-8.6c-.3 0-.5-.1-.7-.4s0-.5 0-.8l4.3-7.3c0-.3.4-.4.7-.4m0 2.5c-.3 0-.5.2-.5.5v2.2c0 .3.2.5.5.5s.5-.2.5-.5v-2.2c0-.3-.2-.5-.5-.5m.6 4.5c0-.4-.3-.7-.7-.7s-.7.3-.7.7.3.7.7.7.7-.3.7-.7" class="st15"/><path d="m392.2 146.2-1.3 2-1.3-2z" style="fill:url(#_Градієнт_без_назви_28)"/><path d="M399.1 138.1c0 4.6-3.7 8.3-8.3 8.3s-8.3-3.7-8.3-8.3 3.7-8.3 8.3-8.3 8.3 3.7 8.3 8.3" style="fill:url(#_Градієнт_без_назви_29)"/><path d="M390.9 133c.3 0 .5 0 .7.4l4.3 7.3c.1.3.1.5 0 .8s-.4.4-.7.4h-8.6c-.3 0-.5 0-.7-.4s-.1-.5 0-.8l4.3-7.3c.1-.3.4-.4.7-.4m0 2.6c-.3 0-.5.2-.5.5v2.2c0 .3.2.5.5.5s.5-.2.5-.5v-2.2c0-.3-.2-.5-.5-.5m.6 4.4c0-.4-.3-.7-.7-.7s-.7.3-.7.7.3.7.7.7.7-.3.7-.7" class="st15"/><path d="m234.3 146.5-1.3 2.1-1.2-2.1z" style="fill:url(#_Градієнт_без_назви_30)"/><path d="M241.3 138.5c0 4.6-3.7 8.3-8.3 8.3s-8.3-3.7-8.3-8.3 3.7-8.3 8.3-8.3 8.3 3.7 8.3 8.3" style="fill:url(#_Градієнт_без_назви_31)"/><path d="M233.1 133.4c.3 0 .5 0 .7.4l4.3 7.3c.1.3.1.5 0 .8s-.4.4-.7.4h-8.6c-.3 0-.5 0-.7-.4s-.1-.5 0-.8l4.3-7.3c.1-.3.4-.4.7-.4m0 2.5c-.3 0-.5.2-.5.5v2.2c0 .3.2.5.5.5s.5-.2.5-.5v-2.2c0-.3-.2-.5-.5-.5m.6 4.5c0-.4-.3-.7-.7-.7s-.7.3-.7.7.3.7.7.7.7-.3.7-.7" class="st15"/><path d="m96.2 132.3-1.3 2.1-1.2-2.1z" style="fill:url(#_Градієнт_без_назви_32)"/><path d="M103.2 124.3c0 4.6-3.7 8.3-8.3 8.3s-8.3-3.7-8.3-8.3 3.7-8.3 8.3-8.3 8.3 3.7 8.3 8.3" style="fill:url(#_Градієнт_без_назви_33)"/><path d="M95 119.2c.3 0 .5 0 .7.4l4.3 7.3v.8c0 .3-.4.4-.7.4h-8.6c-.3 0-.5 0-.7-.4s0-.5 0-.8l4.3-7.3c0-.3.4-.4.7-.4m0 2.5c-.3 0-.5.2-.5.5v2.2c0 .3.2.5.5.5s.5-.2.5-.5v-2.2c0-.3-.2-.5-.5-.5m.6 4.4c0-.4-.3-.7-.7-.7s-.7.3-.7.7.3.7.7.7.7-.3.7-.7" class="st15"/></g></svg>