<svg xmlns="http://www.w3.org/2000/svg" id="_Шар_1" version="1.1" viewBox="0 0 640 320"><defs><linearGradient id="_Градієнт_без_назви" x1="510.2" x2="476.5" y1="358.7" y2="218.6" data-name="Градієнт без назви" gradientTransform="matrix(1 0 0 -1 0 460)" gradientUnits="userSpaceOnUse"><stop offset="0" stop-color="#cccafc"/><stop offset="1" stop-color="#fdaaa5"/></linearGradient><linearGradient id="_Градієнт_без_назви_2" x1="97" x2="97" y1="116.7" y2="179.2" data-name="Градієнт без назви 2" gradientTransform="translate(0 140)" gradientUnits="userSpaceOnUse"><stop offset="0" stop-color="#6eebd8"/><stop offset="1" stop-color="#34b8a4"/></linearGradient><linearGradient id="_Градієнт_без_назви_3" x1="110.5" x2="110.5" y1="101.7" y2="196.5" data-name="Градієнт без назви 3" gradientTransform="translate(0 140)" gradientUnits="userSpaceOnUse"><stop offset="0" stop-color="#ff767f"/><stop offset="1" stop-color="#e6505a"/></linearGradient><linearGradient id="_Градієнт_без_назви_4" x1="124.1" x2="124.1" y1="123.7" y2="171.1" data-name="Градієнт без назви 4" gradientTransform="translate(0 140)" gradientUnits="userSpaceOnUse"><stop offset="0" stop-color="#4fb5ff"/><stop offset="1" stop-color="#0468ff"/></linearGradient><linearGradient id="_Градієнт_без_назви_5" x1="181.1" x2="181.1" y1="69.1" y2="234.2" data-name="Градієнт без назви 5" gradientTransform="translate(0 140)" gradientUnits="userSpaceOnUse"><stop offset="0" stop-color="#6eebd8"/><stop offset="1" stop-color="#34b8a4"/></linearGradient><linearGradient id="_Градієнт_без_назви_6" x1="194.7" x2="194.7" y1="25" y2="285.2" data-name="Градієнт без назви 6" gradientTransform="translate(0 140)" gradientUnits="userSpaceOnUse"><stop offset="0" stop-color="#ff767f"/><stop offset="1" stop-color="#e6505a"/></linearGradient><linearGradient id="_Градієнт_без_назви_7" x1="208.2" x2="208.2" y1="84.4" y2="216.5" data-name="Градієнт без назви 7" gradientTransform="translate(0 140)" gradientUnits="userSpaceOnUse"><stop offset="0" stop-color="#4fb5ff"/><stop offset="1" stop-color="#0468ff"/></linearGradient><linearGradient id="_Градієнт_без_назви_8" x1="265.3" x2="265.3" y1="45" y2="262.1" data-name="Градієнт без назви 8" gradientTransform="translate(0 140)" gradientUnits="userSpaceOnUse"><stop offset="0" stop-color="#6eebd8"/><stop offset="1" stop-color="#34b8a4"/></linearGradient><linearGradient id="_Градієнт_без_назви_9" x1="278.8" x2="278.8" y1="78.4" y2="223.5" data-name="Градієнт без назви 9" gradientTransform="translate(0 140)" gradientUnits="userSpaceOnUse"><stop offset="0" stop-color="#ff767f"/><stop offset="1" stop-color="#e6505a"/></linearGradient><linearGradient id="_Градієнт_без_назви_10" x1="292.3" x2="292.3" y1="96.5" y2="202.6" data-name="Градієнт без назви 10" gradientTransform="translate(0 140)" gradientUnits="userSpaceOnUse"><stop offset="0" stop-color="#4fb5ff"/><stop offset="1" stop-color="#0468ff"/></linearGradient><linearGradient id="_Градієнт_без_назви_11" x1="349.4" x2="349.4" y1="25" y2="285.2" data-name="Градієнт без назви 11" gradientTransform="translate(0 140)" gradientUnits="userSpaceOnUse"><stop offset="0" stop-color="#6eebd8"/><stop offset="1" stop-color="#34b8a4"/></linearGradient><linearGradient id="_Градієнт_без_назви_12" x1="362.9" x2="362.9" y1="-4" y2="318.7" data-name="Градієнт без назви 12" gradientTransform="translate(0 140)" gradientUnits="userSpaceOnUse"><stop offset="0" stop-color="#ff767f"/><stop offset="1" stop-color="#e6505a"/></linearGradient><linearGradient id="_Градієнт_без_назви_13" x1="376.5" x2="376.5" y1="60.3" y2="244.3" data-name="Градієнт без назви 13" gradientTransform="translate(0 140)" gradientUnits="userSpaceOnUse"><stop offset="0" stop-color="#4fb5ff"/><stop offset="1" stop-color="#0468ff"/></linearGradient><linearGradient id="_Градієнт_без_назви_14" x1="433.5" x2="433.5" y1="36.8" y2="271.5" data-name="Градієнт без назви 14" gradientTransform="translate(0 140)" gradientUnits="userSpaceOnUse"><stop offset="0" stop-color="#6eebd8"/><stop offset="1" stop-color="#34b8a4"/></linearGradient><linearGradient id="_Градієнт_без_назви_15" x1="447.1" x2="447.1" y1="-15.6" y2="332.1" data-name="Градієнт без назви 15" gradientTransform="translate(0 140)" gradientUnits="userSpaceOnUse"><stop offset="0" stop-color="#ff767f"/><stop offset="1" stop-color="#e6505a"/></linearGradient><linearGradient id="_Градієнт_без_назви_16" x1="460.6" x2="460.6" y1="70.8" y2="232.2" data-name="Градієнт без назви 16" gradientTransform="translate(0 140)" gradientUnits="userSpaceOnUse"><stop offset="0" stop-color="#4fb5ff"/><stop offset="1" stop-color="#0468ff"/></linearGradient><linearGradient id="_Градієнт_без_назви_17" x1="517.6" x2="517.6" y1="116.7" y2="179.2" data-name="Градієнт без назви 17" gradientTransform="translate(0 140)" gradientUnits="userSpaceOnUse"><stop offset="0" stop-color="#6eebd8"/><stop offset="1" stop-color="#34b8a4"/></linearGradient><linearGradient id="_Градієнт_без_назви_18" x1="531.2" x2="531.2" y1="57.7" y2="247.4" data-name="Градієнт без назви 18" gradientTransform="translate(0 140)" gradientUnits="userSpaceOnUse"><stop offset="0" stop-color="#ff767f"/><stop offset="1" stop-color="#e6505a"/></linearGradient><linearGradient id="_Градієнт_без_назви_19" x1="544.7" x2="544.7" y1="88.2" y2="212.2" data-name="Градієнт без назви 19" gradientTransform="translate(0 140)" gradientUnits="userSpaceOnUse"><stop offset="0" stop-color="#4fb5ff"/><stop offset="1" stop-color="#0468ff"/></linearGradient><linearGradient id="_Градієнт_без_назви_20" x1="202.8" x2="210.2" y1="176.3" y2="176.3" data-name="Градієнт без назви 20" gradientTransform="translate(0 140)" gradientUnits="userSpaceOnUse"><stop offset="0" stop-color="#6eebd8"/><stop offset="1" stop-color="#34b8a4"/></linearGradient><linearGradient id="_Градієнт_без_назви_21" x1="369.4" x2="376.8" y1="176.3" y2="176.3" data-name="Градієнт без назви 21" gradientTransform="translate(0 140)" gradientUnits="userSpaceOnUse"><stop offset="0" stop-color="#ff767f"/><stop offset="1" stop-color="#e6505a"/></linearGradient><linearGradient id="_Градієнт_без_назви_22" x1="537.1" x2="544.5" y1="176.3" y2="176.3" data-name="Градієнт без назви 22" gradientTransform="translate(0 140)" gradientUnits="userSpaceOnUse"><stop offset="0" stop-color="#4fb5ff"/><stop offset="1" stop-color="#0468ff"/></linearGradient><clipPath id="clippath"><path d="M0 0h640v320H0z" class="st15"/></clipPath><clipPath id="clippath-1"><rect width="528.1" height="365" x="56" y="39" class="st15" rx="12" ry="12"/></clipPath><clipPath id="clippath-2"><path d="M382 200.9h73.5V353H382z" class="st15"/></clipPath><clipPath id="clippath-3"><path d="M455.5 200.9h72.8V353h-72.8z" class="st15"/></clipPath><clipPath id="clippath-4"><path d="M528.2 200.9H601V353h-72.8z" class="st15"/></clipPath><style>.st4{fill:#e9e2d4}.st11,.st12,.st9{fill:#fff}.st14{fill:#1d2a29;fill-opacity:.6}.st15{fill:none}.st21{fill:#002b31}.st23{fill:#5f616e;font-family:OpenSans-Medium,&quot;Open Sans&quot;;font-size:8.8px;font-weight:500}.st23,.st24{isolation:isolate}.st31{fill:#002d33}.st35{fill:#8a8a7b;fill-opacity:.1}.st40{fill:#ceddec}.st41{fill:#cdcbff}.st11{fill-opacity:0}.st46{fill:#999f99;fill-opacity:.2}.st12{fill-opacity:.7}.st53{fill:#32607f}.st54{fill:#db5935}</style></defs><path d="M585.6 397.7c0 9.2-7.4 16.6-16.6 16.6H71.9c-9.2 0-16.6-7.4-16.6-16.6V43.9c0-9.2 7.4-16.6 16.6-16.6H569c9.1 0 16.6 7.4 16.6 16.6v353.8Z" style="fill:#fff;stroke:#999f99;stroke-width:.3px"/><g class="st24"><text class="st24" style="isolation:isolate;fill:#29292e;font-family:OpenSans-Bold,&quot;Open Sans&quot;;font-size:13.2px;font-weight:700" transform="translate(83.7 70.7)"><tspan x="0" y="0">Live Threat Dashboard</tspan></text></g><path d="M54.8 285.4h530.3" style="fill:none;stroke:#d9d9d9;stroke-miterlimit:10;stroke-width:.2px"/><path d="M91.5 249.9h11v35.8h-11z" style="fill:url(#_Градієнт_без_назви_2)"/><path d="M105 231.4h11v54.3h-11z" style="fill:url(#_Градієнт_без_назви_3)"/><path d="M118.6 258.5h11v27.2h-11z" style="fill:url(#_Градієнт_без_назви_4)"/><path d="M175.6 191.2h11v94.5h-11z" style="fill:url(#_Градієнт_без_назви_5)"/><path d="M189.2 136.7h11v149h-11z" style="fill:url(#_Градієнт_без_назви_6)"/><path d="M202.7 210.1h11v75.6h-11z" style="fill:url(#_Градієнт_без_назви_7)"/><path d="M259.8 161.4h11v124.3h-11z" style="fill:url(#_Градієнт_без_назви_8)"/><path d="M273.3 202.6h11v83.1h-11z" style="fill:url(#_Градієнт_без_назви_9)"/><path d="M286.8 224.9h11v60.8h-11z" style="fill:url(#_Градієнт_без_назви_10)"/><path d="M343.9 136.7h11v149h-11z" style="fill:url(#_Градієнт_без_назви_11)"/><path d="M357.4 100.9h11v184.8h-11z" style="fill:url(#_Градієнт_без_назви_12)"/><path d="M371 180.4h11v105.3h-11z" style="fill:url(#_Градієнт_без_назви_13)"/><path d="M428 151.3h11v134.4h-11z" style="fill:url(#_Градієнт_без_назви_14)"/><path d="M441.6 86.6h11v199.1h-11z" style="fill:url(#_Градієнт_без_назви_15)"/><path d="M455.1 193.3h11v92.4h-11z" style="fill:url(#_Градієнт_без_назви_16)"/><path d="M512.1 249.9h11v35.8h-11z" style="fill:url(#_Градієнт_без_назви_17)"/><path d="M525.7 177.1h11v108.6h-11z" style="fill:url(#_Градієнт_без_назви_18)"/><path d="M539.2 214.7h11v71h-11z" style="fill:url(#_Градієнт_без_назви_19)"/><g id="_Шар_4"><g class="st24"><g class="st24"><text class="st23" transform="translate(95.5 318.8)"><tspan x="0" y="0">Blocked Attempts</tspan></text></g></g><path d="M202.8 312.6h7.4v7.4h-7.4z" style="fill:url(#_Градієнт_без_назви_20)"/><g class="st24"><g class="st24"><text class="st23" transform="translate(262.9 318.8)"><tspan x="0" y="0">Fraud Detection</tspan></text></g></g><path d="M369.4 312.6h7.4v7.4h-7.4z" style="fill:url(#_Градієнт_без_назви_21)"/><g class="st24"><g class="st24"><text class="st23" transform="translate(431.5 318.8)"><tspan x="0" y="0">System Responses</tspan></text></g></g><path d="M537.1 312.6h7.4v7.4h-7.4z" style="fill:url(#_Градієнт_без_назви_22)"/></g></svg>