<svg xmlns="http://www.w3.org/2000/svg" id="_Шар_1" data-name="Шар_1" version="1.1" viewBox="0 0 640 320"><defs><linearGradient id="_Градієнт_без_назви" x1="325.4" x2="243.9" y1="226.7" y2="281.2" data-name="Градієнт без назви" gradientTransform="matrix(1 0 0 -1 0 320)" gradientUnits="userSpaceOnUse"><stop offset="0" stop-color="#93ca6e"/><stop offset="1" stop-color="#c2e67d"/></linearGradient><linearGradient id="_Градієнт_без_назви_2" x1="228.5" x2="186.3" y1="245.4" y2="289.1" data-name="Градієнт без назви 2" gradientTransform="matrix(1 0 0 -1 0 320)" gradientUnits="userSpaceOnUse"><stop offset="0" stop-color="#93ca6e"/><stop offset="1" stop-color="#c2e67d"/></linearGradient><linearGradient id="_Градієнт_без_назви_3" x1="325.4" x2="243.9" y1="144.7" y2="199.2" data-name="Градієнт без назви 3" gradientTransform="matrix(1 0 0 -1 0 320)" gradientUnits="userSpaceOnUse"><stop offset="0" stop-color="#ff947f"/><stop offset="1" stop-color="#e6c75a"/></linearGradient><linearGradient id="_Градієнт_без_назви_4" x1="228.5" x2="186.3" y1="163.3" y2="207" data-name="Градієнт без назви 4" gradientTransform="matrix(1 0 0 -1 0 320)" gradientUnits="userSpaceOnUse"><stop offset="0" stop-color="#ff947f"/><stop offset="1" stop-color="#e6c75a"/></linearGradient><linearGradient id="_Градієнт_без_назви_5" x1="325.4" x2="243.9" y1="62.8" y2="117.4" data-name="Градієнт без назви 5" gradientTransform="matrix(1 0 0 -1 0 320)" gradientUnits="userSpaceOnUse"><stop offset="0" stop-color="#ff4e7f"/><stop offset="1" stop-color="#e6545a"/></linearGradient><linearGradient id="_Градієнт_без_назви_6" x1="228.5" x2="186.3" y1="81.4" y2="125.2" data-name="Градієнт без назви 6" gradientTransform="matrix(1 0 0 -1 0 320)" gradientUnits="userSpaceOnUse"><stop offset="0" stop-color="#ff4e7f"/><stop offset="1" stop-color="#e6545a"/></linearGradient><style>.st0{fill:#e8e9ed}.st2,.st3{fill:#fff}.st2,.st5,.st6,.st7,.st8{isolation:isolate}.st2,.st6,.st7{font-size:6.8px}.st2,.st6,.st8{font-family:OpenSans-Bold,&quot;Open Sans&quot;;font-weight:700}.st10,.st8{fill:#29292e}.st14,.st6,.st7{fill:#5f616e}.st7{font-family:OpenSans-Regular,&quot;Open Sans&quot;}.st8{font-size:6.9px}.st18{fill:#5b6b5f;fill-opacity:.3}</style></defs><rect width="409" height="242" x="112.9" y="46" class="st18" rx="12" ry="12"/><rect width="440" height="242" x="97.4" y="30" class="st18" rx="12" ry="12"/><path d="M553.2 244.9c0 6-6.6 10.9-14.7 10.9H96.4c-8.1 0-14.7-4.9-14.7-10.9v-233c0-6 6.6-10.9 14.7-10.9h442.1c8.1 0 14.7 4.9 14.7 10.9z" style="fill:#fff;stroke:#999f99;stroke-width:.3px"/><path d="M406 66.7c4.6 0 8.3-3.1 8.3-6.9s-3.7-6.9-8.3-6.9h-64.5c-4.6 0-8.3 3.1-8.3 6.9s3.7 6.9 8.3 6.9z" class="st0"/><g class="st5"><text class="st6" transform="translate(360.8 61.9)"><tspan x="0" y="0">Dismiss</tspan></text></g><g class="st5"><text class="st8" transform="translate(234.8 25.6)"><tspan x="0" y="0">Operation Approved – Low Risk</tspan></text><text class="st7" transform="translate(234.8 39)"><tspan x="0" y="0">Operation was processed successfully. No suspicious activity detected.</tspan></text></g><path d="M307.5 66.7c4.6 0 8.3-3.1 8.3-6.9s-3.7-6.9-8.3-6.9H243c-4.6 0-8.3 3.1-8.3 6.9s3.7 6.9 8.3 6.9z" style="fill:url(#_Градієнт_без_назви)"/><g class="st5"><text class="st2" transform="translate(254.6 61.9)"><tspan x="0" y="0">View Details</tspan></text></g><path d="M218.5 43.5c0 11.1-9 20-20 20s-20-9-20-20 9-20 20-20 20 9 20 20" style="fill:url(#_Градієнт_без_назви_2)"/><path d="M198.5 31.2c.7 0 1.3.4 1.7 1l10.4 17.7c.4.6.4 1.3 0 1.9s-1 1-1.7 1h-20.8c-.7 0-1.3-.4-1.7-1s-.4-1.3 0-1.9l10.4-17.7c.4-.6 1-1 1.7-1m0 6.2c-.6 0-1.1.5-1.1 1.1v5.4c0 .6.5 1.1 1.1 1.1s1.1-.5 1.1-1.1v-5.4c0-.6-.5-1.1-1.1-1.1m1.4 10.8c0-.9-.7-1.6-1.6-1.6s-1.6.7-1.6 1.6.7 1.6 1.6 1.6 1.6-.7 1.6-1.6" class="st3"/><g class="st5"><text class="st8" transform="translate(234.8 107.7)"><tspan x="0" y="0">Operation Flagged – Medium Risk</tspan></text><text class="st7" transform="translate(234.8 121.1)"><tspan x="0" y="0">Operation from a new device was detected. Review before processing.</tspan></text></g><path d="M307.5 148.7c4.6 0 8.3-3.1 8.3-6.9s-3.7-6.9-8.3-6.9H243c-4.6 0-8.3 3.1-8.3 6.9s3.7 6.9 8.3 6.9z" style="fill:url(#_Градієнт_без_назви_3)"/><g class="st5"><text class="st2" transform="translate(245.2 144)"><tspan x="0" y="0">Review Operation</tspan></text></g><path d="M406 148.7c4.6 0 8.3-3.1 8.3-6.9s-3.7-6.9-8.3-6.9h-64.5c-4.6 0-8.3 3.1-8.3 6.9s3.7 6.9 8.3 6.9z" class="st0"/><g class="st5"><text class="st6" transform="translate(345.4 144)"><tspan x="0" y="0">Approve Anyway</tspan></text></g><path d="M218.5 125.6c0 11.1-9 20-20 20s-20-9-20-20 9-20 20-20 20 9 20 20" style="fill:url(#_Градієнт_без_назви_4)"/><path d="M198.5 113.2c.7 0 1.3.4 1.7 1l10.4 17.7c.4.6.4 1.3 0 1.9s-1 1-1.7 1h-20.8c-.7 0-1.3-.4-1.7-1s-.4-1.3 0-1.9l10.4-17.7c.4-.6 1-1 1.7-1m0 6.2c-.6 0-1.1.5-1.1 1.1v5.4c0 .6.5 1.1 1.1 1.1s1.1-.5 1.1-1.1v-5.4c0-.6-.5-1.1-1.1-1.1m1.4 10.8c0-.9-.7-1.6-1.6-1.6s-1.6.7-1.6 1.6.7 1.6 1.6 1.6 1.6-.7 1.6-1.6" class="st3"/><path d="M240 187.1c0 .4 0 .7-.2 1.1 0 .4-.3.6-.4.8-.2.3-.4.4-.7.5s-.6.2-1.1.2-.8 0-1.1-.2c-.3 0-.5-.3-.7-.5s-.4-.5-.4-.8c0-.4-.2-.7-.2-1.1s0-1 .3-1.3c.2-.4.4-.7.8-.9s.8-.4 1.3-.4 1 0 1.3.4c.4.2.6.5.8.9s.3.8.3 1.3m-3.6 0v.9c0 .3.3.4.4.6s.4.2.7.2.5 0 .7-.2.4-.4.4-.6v-.9c0-.5 0-1-.3-1.2-.2-.3-.5-.4-1-.4s-.5 0-.7.2-.4.4-.4.6v.9ZM243.1 185.7c.4 0 .8.2 1.1.5.3.4.4.8.4 1.5s0 .8-.2 1.1c0 .3-.3.5-.5.7s-.4.3-.8.3h-.4s-.3 0-.4-.2l-.3-.3v2h-1.1v-5.4h.9l.2.5.3-.3s.2-.2.4-.2h.4v-.3Zm-.4.7h-.4s-.2.2-.3.4v1.2c0 .2 0 .3.3.4 0 0 .3.2.4.2s.3 0 .4-.2c0 0 .2-.2.3-.4v-.6c0-.4 0-.6-.2-.9 0-.2-.3-.3-.5-.3ZM246.9 185.7c.4 0 .6 0 .9.2s.4.4.6.6.2.5.2 1v.5h-2.5c0 .3 0 .5.3.7s.4.3.7.3h.7c.3 0 .4 0 .6-.3v.8c-.2 0-.4.2-.6.2h-.7c-.3 0-.7 0-1-.2s-.5-.4-.7-.6-.3-.6-.3-1.1 0-.8.3-1.1c.2-.3.4-.5.6-.7s.6-.3 1-.3Zm0 .7c-.2 0-.4 0-.5.2-.2 0-.2.4-.3.6h1.5v-.4l-.3-.3c-.1-.1-.3 0-.4 0ZM251.5 185.7h.4v1h-.8s-.3 0-.4.2l-.3.3v2.4h-1.1v-3.8h.8l.2.6s.2-.3.3-.4c0 0 .3-.2.4-.3h.4ZM254.1 185.7c.5 0 .9 0 1.1.4.3.3.4.5.4 1v2.5h-.7l-.2-.5c0 .2-.2.3-.4.4 0 0-.3.2-.4.2h-1.1c-.2 0-.4-.2-.4-.4s-.2-.4-.2-.7c0-.4.2-.7.4-.9s.7-.3 1.2-.4h.6v-.2c0-.2 0-.4-.2-.4 0 0-.3-.2-.4-.2h-.5c-.2 0-.4 0-.5.2l-.4-.7c.2 0 .4-.2.7-.3h.8v.2Zm.6 2.1h-.4c-.4 0-.5 0-.7.2s-.2.3-.2.4 0 .3.2.4.2 0 .4 0c.3 0 .4 0 .5-.2.2-.2.3-.4.3-.5v-.4ZM258.4 188.7h.7v.8h-1.5c-.2 0-.4-.2-.4-.4s-.2-.4-.2-.8v-1.8h-.5v-.4l.5-.4.3-.8h.7v.8h1.1v.8H258v2.2zM260.3 184.2h.4c.1 0 .2.2.2.4s0 .4-.2.4h-.8s-.2-.2-.2-.4 0-.4.2-.4zm.5 1.5v3.8h-1.1v-3.8zM265.4 187.6v.9c0 .3-.2.4-.4.6s-.4.3-.6.4-.4 0-.8 0h-.7c-.2 0-.4-.2-.6-.4s-.3-.4-.4-.6-.2-.5-.2-.9 0-.8.3-1.1.4-.5.6-.7c.3-.2.6-.3 1-.3s.7 0 1 .3c.3.2.5.4.6.7s.3.6.3 1.1Zm-2.6 0v.6c0 .2.2.3.3.4s.3 0 .4 0h.4s.2-.2.3-.4V187c0-.2-.2-.3-.3-.4s-.3 0-.4 0c-.3 0-.4 0-.6.3 0 .2-.2.4-.2.9ZM268.4 185.7c.4 0 .7 0 1 .4.3.3.4.6.4 1.1v2.5h-1.1v-2.2c0-.3 0-.4-.2-.6 0-.2-.3-.2-.4-.2-.4 0-.5 0-.6.4 0 .2-.2.5-.2 1v1.8h-1.1v-3.8h.8l.2.5s.2-.3.3-.4.3-.2.4-.2h.4v-.2ZM272.7 184.6h1.6c.7 0 1.1 0 1.5.3.4.2.5.5.5 1v.5c0 .2-.2.3-.3.4 0 0-.3.2-.4.2.2 0 .4 0 .4.2.2 0 .3.2.4.4s0 .4 0 .6 0 .5-.3.8-.4.4-.6.5c-.3 0-.6.2-1 .2h-1.8v-4.9Zm1 1.9h.6c.3 0 .5 0 .6-.2 0 0 .2-.3.2-.4s0-.4-.2-.4h-1.2v1.1Zm0 .8v1.3h.7c.4 0 .5 0 .7-.2s.2-.3.2-.5v-.4s-.2-.2-.3-.2zM278.3 189.5h-1.1v-5.3h1.1zM282.8 187.6v.9c0 .3-.2.4-.4.6s-.4.3-.6.4-.4 0-.8 0h-.7c-.2 0-.4-.2-.6-.4s-.3-.4-.4-.6-.2-.5-.2-.9 0-.8.3-1.1.4-.5.6-.7c.3-.2.6-.3 1-.3s.7 0 1 .3c.3.2.5.4.6.7s.3.6.3 1.1Zm-2.6 0v.6c0 .2.2.3.3.4s.3 0 .4 0h.4s.2-.2.3-.4V187c0-.2-.2-.3-.3-.4s-.3 0-.4 0c-.3 0-.4 0-.6.3 0 .2-.2.4-.2.9ZM285.2 189.6c-.4 0-.7 0-1-.2s-.4-.4-.6-.6-.2-.6-.2-1.1 0-.9.3-1.1q.3-.45.6-.6c.3-.2.6-.2 1-.2h.7c.2 0 .4 0 .5.2l-.3.8c-.2 0-.4 0-.4-.2s-.3 0-.4 0h-.4s-.2.2-.3.4v1.2c0 .2.2.3.3.4h1c.2 0 .4-.2.5-.3v.9c-.2 0-.4.2-.5.2h-.6zM288.2 184.2v3.3s.2-.2.2-.3.2-.2.3-.3l1.1-1.1h1.1l-1.5 1.7 1.6 2.1h-1.2l-1.1-1.5-.4.4v1.1h-1.1v-5.3h1.1ZM293.1 185.7c.4 0 .6 0 .9.2s.4.4.6.6.2.5.2 1v.5h-2.5c0 .3 0 .5.3.7s.4.3.7.3h.7c.3 0 .4 0 .6-.3v.8c-.2 0-.4.2-.6.2h-.7c-.3 0-.7 0-1-.2s-.5-.4-.7-.6-.3-.6-.3-1.1 0-.8.3-1.1c.2-.3.4-.5.6-.7.3-.2.6-.3 1-.3Zm0 .7c-.2 0-.4 0-.5.2-.2 0-.2.4-.3.6h1.5v-.4l-.3-.3c-.1-.1-.3 0-.4 0ZM296.8 189.6c-.4 0-.8-.2-1.1-.5s-.4-.8-.4-1.5.2-1.1.4-1.5.6-.5 1.1-.5h.4c.2 0 .3 0 .4.2l.3.3v-2h1.1v5.3h-.8l-.2-.5-.3.3s-.2.2-.4.2h-.4v.4Zm.4-.9c.3 0 .4 0 .6-.3 0-.2.2-.4.2-.8s0-.8-.2-1c0-.2-.4-.3-.6-.3s-.4 0-.5.3-.2.4-.2.9 0 .6.2.9c0 .2.4.3.5.3M301.6 188v-.8h2.9v.8zM311.3 189.5h-1.1v-2.1h-1.9v2.1h-1.1v-4.9h1.1v1.9h1.9v-1.9h1.1zM312.9 184.2h.4c.1 0 .2.2.2.4s0 .4-.2.4h-.8s-.2-.2-.2-.4 0-.4.2-.4zm.6 1.5v3.8h-1.1v-3.8zM315.6 191.2c-.5 0-1 0-1.2-.3s-.4-.4-.4-.8 0-.4.2-.6.4-.3.6-.4c0 0-.2 0-.3-.3v-.8c0-.1.2-.2.4-.3-.2 0-.4-.3-.4-.4s-.2-.4-.2-.7 0-.5.2-.7.3-.4.5-.4c.3 0 .5-.2.9-.2h2.1v.5l-.6.2v.6c0 .4-.2.7-.4 1s-.7.4-1.1.4h-.4v.2h1.2c.4 0 .7 0 1 .3.2.2.4.4.4.8s-.2.8-.5 1.1-.9.4-1.6.4v.4Zm.1-.7h.6c.2 0 .4 0 .4-.2 0 0 .2-.2.2-.3v-.3h-1.6s-.2 0-.3.2 0 .2 0 .3c0 .2 0 .3.2.4h.6Zm.2-2.8c.2 0 .4 0 .4-.2 0 0 .2-.3.2-.5s0-.4-.2-.5c0 0-.3-.2-.4-.2s-.4 0-.4.2c0 0-.2.3-.2.5s0 .4.2.5.3.2.4.2M319.5 184.2v1.9s.2-.3.3-.4c0 0 .3-.2.4-.2h.4c.3 0 .5 0 .7.2s.4.3.4.4.2.4.2.8v2.5h-1.1v-2.2c0-.3 0-.4-.2-.6s-.3-.2-.4-.2-.4 0-.5.2-.2.3-.3.4v2.5h-1.1v-5.3h1.1ZM326.4 184.6c.4 0 .8 0 1.1.2.3 0 .5.3.6.5.2.2.2.5.2.8v.6c0 .2-.2.4-.4.4s-.3.2-.4.3l1.5 2.2h-1.1l-1.1-1.9h-.5v1.9h-1.1v-4.9h1.4Zm-.1.8h-.4v1.3h.4c.4 0 .6 0 .8-.2s.3-.3.3-.5 0-.4-.3-.5-.4-.2-.8-.2ZM330 184.2h.4c.1 0 .2.2.2.4s0 .4-.2.4h-.8s-.2-.2-.2-.4 0-.4.2-.4zm.5 1.5v3.8h-1.1v-3.8zM334.2 188.4c0 .3 0 .4-.2.6 0 .2-.3.4-.5.4-.3 0-.5.2-.9.2h-.7c-.2 0-.4 0-.6-.2v-.9c.2 0 .4.2.7.3h1v-.5l-.3-.2s-.3-.2-.5-.3c-.3 0-.4-.2-.6-.3s-.3-.3-.4-.4v-.5c0-.4.2-.6.4-.8s.6-.3 1.1-.3h.7c.2 0 .4 0 .7.3l-.4.7c-.2 0-.4-.2-.5-.2h-.9v.4l.3.2s.3.2.5.3c.2 0 .4.2.5.3.2 0 .3.2.4.4v.5ZM336 184.2v3.3s.2-.2.2-.3.2-.2.3-.3l1.1-1.1h1.1l-1.5 1.7 1.6 2.1h-1.2l-1.1-1.5-.4.4v1.1H335v-5.3h1.1Z" class="st10"/><path d="M239.7 200.6c0 .4 0 .7-.2 1.1s-.3.5-.4.8c-.2.2-.4.4-.7.5-.3 0-.6.2-1 .2s-.7 0-1-.2c-.3 0-.5-.3-.7-.5s-.4-.4-.4-.8-.2-.6-.2-1.1 0-.9.3-1.3.4-.6.7-.9c.4-.2.7-.4 1.2-.4s.9 0 1.2.3.6.5.7.9c.2.4.3.8.3 1.3h.2Zm-3.8 0c0 .4 0 .8.2 1.1 0 .3.3.5.5.7s.5.3.9.3.7 0 .9-.3c.3-.2.4-.4.5-.7 0-.3.2-.6.2-1.1s0-1.1-.4-1.5c-.3-.4-.7-.5-1.2-.5s-.7 0-.9.3-.4.4-.5.7c0 .3-.2.6-.2 1.1ZM242.4 199.3c.4 0 .8.2 1.1.4s.4.8.4 1.4 0 .8-.2 1.1-.3.5-.5.6c-.3.2-.5.2-.8.2h-.5c-.2 0-.3 0-.4-.2l-.3-.3v2.2h-.5v-5.2h.4v.5l.3-.3c.1-.1.3-.2.4-.2h.5v-.4Zm-.1.5c-.3 0-.4 0-.6.2l-.4.4v1.6c0 .2.2.4.4.4s.4.2.6.2.4 0 .5-.2.3-.3.4-.5 0-.4 0-.7c0-.4 0-.8-.3-1.1-.2-.3-.4-.4-.8-.4ZM246.2 199.3c.3 0 .5 0 .8.2l.5.5c0 .3.2.5.2.9v.4h-2.5c0 .4 0 .7.4 1s.5.4.9.4h.6c.2 0 .4 0 .5-.2v.4c-.2 0-.4.2-.5.2h-.6c-.4 0-.6 0-.9-.2s-.4-.4-.6-.6-.2-.6-.2-1 0-.7.2-1 .4-.5.5-.6.5-.3.9-.3h-.2Zm0 .4c-.3 0-.5 0-.7.3s-.3.4-.4.8h1.9v-.5c0-.2-.2-.3-.3-.4 0 0-.3-.2-.5-.2M250.2 199.3h.4v.5h-.9s-.3.2-.4.3-.2.3-.3.4v2.5h-.5v-3.6h.4v.7c0-.2.2-.3.3-.4 0 0 .3-.2.4-.3h.4ZM252.7 199.3c.4 0 .8 0 1 .3.2.2.4.5.4 1v2.5h-.4v-.5s-.2.3-.4.4c0 0-.3.2-.4.2h-1.1c-.2 0-.3-.2-.4-.4 0-.2-.2-.4-.2-.6s.2-.6.4-.8.7-.3 1.3-.4h.6v-.3c0-.4 0-.5-.2-.6-.2 0-.4-.2-.5-.2h-.5c-.2 0-.4 0-.5.2l-.2-.4c.2 0 .4-.2.5-.2h.7Zm.7 1.9h-.5c-.4 0-.8 0-1 .3-.2 0-.3.4-.3.5s0 .4.2.4c0 0 .3.2.5.2s.6 0 .8-.3.3-.4.3-.8v-.4ZM256.3 202.6h.5v.4h-1.1c-.2 0-.3-.2-.4-.4s-.2-.4-.2-.7v-2.1h-.5v-.3l.5-.2.2-.8h.4v.9h1.1v.4h-1.1v2.1c0 .3 0 .4.2.5 0 0 .3.2.4.2M257.8 198h.3v.6h-.6c-.1 0 0-.2 0-.3v-.3zm.2 1.4v3.6h-.5v-3.6zM262.2 201.2v.8c0 .3-.2.4-.4.6s-.4.3-.5.4h-1.4c-.2 0-.4-.2-.5-.4-.2-.2-.3-.4-.4-.6v-.8c0-.3 0-.7.2-1s.4-.5.6-.6c.3-.2.5-.2.9-.2s.6 0 .9.3c.3.2.4.4.6.6s.2.6.2 1Zm-2.7 0v.8c0 .3.2.4.4.5.2 0 .4.2.6.2s.4 0 .6-.2c.2 0 .3-.3.4-.5s0-.4 0-.8v-.7c0-.2-.2-.4-.4-.5-.2 0-.4-.2-.6-.2s-.6 0-.8.4-.3.6-.3 1.1ZM264.9 199.3c.4 0 .8 0 1 .4.2.2.4.5.4 1v2.4h-.5v-2.3c0-.3 0-.5-.2-.7s-.4-.3-.6-.3-.7 0-.9.4c-.2.3-.3.5-.3 1v1.8h-.5v-3.6h.4v.5s.2-.3.3-.4c0 0 .3-.2.4-.2h.4ZM272.4 199.8h-.9v3.2h-.5v-3.2h-.6v-.3l.6-.2v-.3c0-.3 0-.5.2-.7s.3-.4.4-.4c.2 0 .4-.2.6-.2h.6l-.2.4h-.5c-.2 0-.4 0-.4.2s-.2.4-.2.6v.3h.9v.4ZM274.7 199.3h.4v.5h-.9s-.3.2-.4.3-.2.3-.3.4v2.5h-.5v-3.6h.4v.7c0-.2.2-.3.3-.4 0 0 .3-.2.4-.3h.4ZM278.9 201.2v.8c0 .3-.2.4-.4.6s-.4.3-.5.4h-1.4c-.2 0-.4-.2-.5-.4s-.3-.4-.4-.6v-.8c0-.3 0-.7.2-1s.4-.5.6-.6c.3-.2.5-.2.9-.2s.6 0 .9.3c.3.2.4.4.6.6s.2.6.2 1Zm-2.7 0v.8c0 .3.2.4.4.5.2 0 .4.2.6.2s.4 0 .6-.2c.2 0 .3-.3.4-.5s0-.4 0-.8v-.7c0-.2-.2-.4-.4-.5-.2 0-.4-.2-.6-.2s-.6 0-.8.4-.3.6-.3 1.1ZM283.8 199.3c.4 0 .7 0 .9.4s.3.5.3 1v2.4h-.5v-2.4c0-.3 0-.5-.2-.6 0-.2-.4-.2-.5-.2s-.6 0-.8.3q-.3.3-.3.9v2h-.5v-2.9c0-.2-.2-.3-.3-.3h-.4c-.1 0-.4 0-.6.2-.2 0-.3.3-.4.4s0 .4 0 .7v1.9h-.5v-3.6h.4v.5s.2-.3.3-.4c0 0 .3-.2.4-.2h.4c.3 0 .5 0 .7.2.2 0 .4.3.4.4 0-.2.3-.4.5-.4s.4-.2.7-.2ZM289.2 199.3c.4 0 .8 0 1 .3s.4.5.4 1v2.5h-.4v-.5s-.2.3-.4.4c0 0-.3.2-.4.2h-1.1c-.2 0-.3-.2-.4-.4 0-.2-.2-.4-.2-.6s.2-.6.4-.8.7-.3 1.3-.4h.6v-.3c0-.4 0-.5-.2-.6-.2 0-.4-.2-.5-.2h-.5c-.2 0-.4 0-.5.2l-.2-.4c.2 0 .4-.2.5-.2h.7Zm.7 1.9h-.5c-.4 0-.8 0-1 .3-.2 0-.3.4-.3.5s0 .4.2.4c0 0 .3.2.5.2s.6 0 .8-.3.3-.4.3-.8v-.4ZM293.3 199.3c.4 0 .8 0 1 .4.2.2.4.5.4 1v2.4h-.5v-2.3c0-.3 0-.5-.2-.7s-.4-.3-.6-.3-.7 0-.9.4c-.2.3-.3.5-.3 1v1.8h-.5v-3.6h.4v.5s.2-.3.3-.4c0 0 .3-.2.4-.2h.4ZM300.4 199.4v3.6h-.4v-.5s-.2.3-.3.4c0 0-.3.2-.4.2h-.4c-.3 0-.5 0-.7-.2-.2 0-.4-.3-.4-.4s-.2-.4-.2-.7v-2.4h.5v2.3c0 .3 0 .5.2.7s.4.3.6.3.4 0 .6-.2c.2 0 .3-.3.4-.4v-2.5999999999999996h.6ZM303.3 199.3c.4 0 .8 0 1 .4.2.2.4.5.4 1v2.4h-.5v-2.3c0-.3 0-.5-.2-.7s-.4-.3-.6-.3-.7 0-.9.4c-.2.3-.3.5-.3 1v1.8h-.5v-3.6h.4v.5s.2-.3.3-.4c0 0 .3-.2.4-.2h.4ZM308.7 199.4v3.6h-.4v-.5s-.2.3-.3.4c0 0-.3.2-.4.2h-.4c-.3 0-.5 0-.7-.2-.2 0-.4-.3-.4-.4s-.2-.4-.2-.7v-2.4h.5v2.3c0 .3 0 .5.2.7s.4.3.6.3.4 0 .6-.2c.2 0 .3-.3.4-.4v-2.5999999999999996h.6ZM312.2 202c0 .3 0 .4-.2.6 0 .2-.3.3-.5.4s-.4 0-.8 0h-.6c-.2 0-.4 0-.4-.2v-.5c.2 0 .4.2.5.2h.6c.4 0 .5 0 .7-.2s.2-.3.2-.4v-.3l-.3-.3s-.4-.2-.5-.3c-.3 0-.4-.2-.6-.3-.2 0-.3-.2-.4-.4s-.2-.3-.2-.5 0-.5.4-.7.5-.3 1-.3h.6c.2 0 .4 0 .5.2l-.2.4c-.2 0-.4 0-.4-.2h-1.1c-.2 0-.2.2-.2.4v.3s.2.2.3.2c.2 0 .4.2.5.3.3 0 .4.2.6.3s.3.2.4.4c0 0 .2.3.2.5v.2ZM316.1 199.4v3.6h-.4v-.5s-.2.3-.3.4c0 0-.3.2-.4.2h-.4c-.3 0-.5 0-.7-.2-.2 0-.4-.3-.4-.4s-.2-.4-.2-.7v-2.4h.5v2.3c0 .3 0 .5.2.7s.4.3.6.3.4 0 .6-.2c.2 0 .3-.3.4-.4v-2.5999999999999996h.6ZM318.5 199.3c.4 0 .8 0 1 .3s.4.5.4 1v2.5h-.4v-.5s-.2.3-.4.4c0 0-.3.2-.4.2h-1.1c-.2 0-.3-.2-.4-.4 0-.2-.2-.4-.2-.6s.2-.6.4-.8.7-.3 1.3-.4h.6v-.3c0-.4 0-.5-.2-.6-.2 0-.4-.2-.5-.2h-.5c-.2 0-.4 0-.5.2l-.2-.4c.2 0 .4-.2.5-.2h.7Zm.7 1.9h-.5c-.4 0-.8 0-1 .3-.2 0-.3.4-.3.5s0 .4.2.4c0 0 .3.2.5.2s.6 0 .8-.3c.2-.2.3-.4.3-.8v-.4ZM321.5 203h-.5v-5.1h.5zM325 203h-.5v-5.1h.5zM329.2 201.2v.8c0 .3-.2.4-.4.6s-.4.3-.5.4h-1.4c-.2 0-.4-.2-.5-.4s-.3-.4-.4-.6v-.8c0-.3 0-.7.2-1s.4-.5.6-.6.5-.2.9-.2.6 0 .9.3c.3.2.4.4.6.6s.2.6.2 1Zm-2.7 0v.8c0 .2.2.4.4.5.2 0 .4.2.6.2s.4 0 .6-.2c.2 0 .3-.3.4-.5v-1.5c0-.2-.2-.4-.4-.5-.2 0-.4-.2-.6-.2s-.6 0-.8.4-.3.6-.3 1.1ZM331.5 203c-.4 0-.6 0-.9-.2s-.4-.4-.6-.6-.2-.6-.2-1.1 0-.8.2-1.1.4-.4.6-.6c.3-.2.5-.2.9-.2h.5c.2 0 .3 0 .4.2l-.2.4h-.8c-.3 0-.4 0-.6.2l-.4.4v1.5c0 .2.2.4.4.4s.4.2.6.2h.5c.2 0 .3 0 .4-.2v.5s-.3 0-.4.2h-.5ZM334.7 199.3c.4 0 .8 0 1 .3s.4.5.4 1v2.5h-.4v-.5s-.2.3-.4.4c0 0-.3.2-.4.2h-1.1c-.2 0-.3-.2-.4-.4 0-.2-.2-.4-.2-.6s.2-.6.4-.8.7-.3 1.3-.4h.6v-.3c0-.4 0-.5-.2-.6-.2 0-.4-.2-.5-.2h-.5c-.2 0-.4 0-.5.2l-.2-.4c.2 0 .4-.2.5-.2h.7Zm.7 1.9h-.5c-.4 0-.8 0-1 .3-.2 0-.3.4-.3.5s0 .4.2.4c0 0 .3.2.5.2s.6 0 .8-.3c.2-.2.3-.4.3-.8v-.4ZM338.2 202.6h.5v.4h-1.1c-.2 0-.3-.2-.4-.4s-.2-.4-.2-.7v-2.1h-.5v-.3l.5-.2.2-.8h.4v.9h1.1v.4h-1.1v2.1c0 .3 0 .4.2.5s.3.2.4.2M339.8 198h.3v.6c0 .1-.2 0-.3 0h-.3c-.1 0 0-.2 0-.3v-.3zm.3 1.4v3.6h-.5v-3.6zM344.3 201.2v.8c0 .3-.2.4-.4.6s-.4.3-.5.4H342c-.2 0-.4-.2-.5-.4s-.3-.4-.4-.6v-.8c0-.3 0-.7.2-1s.4-.5.6-.6c.3-.2.5-.2.9-.2s.6 0 .9.3c.3.2.4.4.6.6s.2.6.2 1Zm-2.7 0v.8c0 .2.2.4.4.5.2 0 .4.2.6.2s.4 0 .6-.2c.2 0 .3-.3.4-.5s0-.4 0-.8v-.7c0-.2-.2-.4-.4-.5-.2 0-.4-.2-.6-.2s-.6 0-.8.4-.3.6-.3 1.1ZM346.9 199.3c.4 0 .8 0 1 .4.2.2.4.5.4 1v2.4h-.5v-2.3c0-.3 0-.5-.2-.7s-.4-.3-.6-.3-.7 0-.9.4c-.2.3-.3.5-.3 1v1.8h-.5v-3.6h.4v.5s.2-.3.3-.4c0 0 .3-.2.4-.2h.4ZM354 203l-.6-2.1v-1 1l-.7 2.1h-.6l-1-3.6h.5l.5 2v1.1-1l.7-2.1h.6l.6 2.1v1-1l.5-2h.5l-1 3.6h-.6.2ZM357.7 199.3c.4 0 .8 0 1 .3s.4.5.4 1v2.5h-.4v-.5h-.2s-.2.3-.4.4c0 0-.3.2-.4.2h-1.1c-.2 0-.3-.2-.4-.4 0-.2-.2-.4-.2-.6s.2-.6.4-.8.7-.3 1.3-.4h.6v-.3c0-.4 0-.5-.2-.6s-.4-.2-.5-.2h-.5c-.2 0-.4 0-.5.2l-.2-.4c.2 0 .4-.2.5-.2h.7Zm.7 1.9h-.5c-.4 0-.8 0-1 .3-.2 0-.3.4-.3.5s0 .4.2.4c0 0 .3.2.5.2s.6 0 .8-.3c.2-.2.3-.4.3-.8v-.4ZM362.4 202c0 .3 0 .4-.2.6 0 .2-.3.3-.5.4s-.4 0-.8 0h-.6c-.2 0-.4 0-.4-.2v-.5c.2 0 .4.2.5.2h.6c.4 0 .5 0 .7-.2s.2-.3.2-.4v-.3l-.3-.3c-.1-.1-.4-.2-.5-.3-.3 0-.4-.2-.6-.3-.2 0-.3-.2-.4-.4s-.2-.3-.2-.5 0-.5.4-.7.5-.3 1-.3h.6c.2 0 .4 0 .5.2l-.2.4c-.2 0-.3 0-.4-.2h-1.1c-.2 0-.2.2-.2.4v.3s.2.2.3.2.4.2.5.3c.3 0 .4.2.6.3s.3.2.4.4c0 0 .2.3.2.5v.2ZM365.5 197.9v2.1c0-.2.3-.3.4-.4s.4-.2.7-.2c.4 0 .8.2 1.1.4.3.4.4.8.4 1.4s0 .8-.2 1.1-.3.5-.5.6c-.3.2-.5.2-.8.2s-.5 0-.7-.2-.4-.3-.4-.4v.5h-.5v-5.1zm1.1 1.9c-.3 0-.4 0-.6.2-.2 0-.3.3-.4.4v.8c0 .4 0 .8.3 1.1.2.3.4.4.8.4s.6 0 .8-.4c.2-.3.3-.6.3-1.1s0-.8-.3-1.1c-.2-.3-.4-.4-.8-.4ZM369.7 203h-.5v-5.1h.5zM374 201.2v.8c0 .3-.2.4-.4.6s-.4.3-.5.4h-1.4c-.2 0-.4-.2-.5-.4s-.3-.4-.4-.6v-.8c0-.3 0-.7.2-1s.4-.5.6-.6c.3-.2.5-.2.9-.2s.6 0 .9.3c.3.2.4.4.6.6s.2.6.2 1Zm-2.8 0v.8c0 .2.2.4.4.5.2 0 .4.2.6.2s.4 0 .6-.2c.2 0 .3-.3.4-.5s0-.4 0-.8v-.7c0-.2-.2-.4-.4-.5-.2 0-.4-.2-.6-.2s-.6 0-.8.4-.3.6-.3 1.1ZM376.4 203c-.4 0-.6 0-.9-.2s-.4-.4-.6-.6-.2-.6-.2-1.1 0-.8.2-1.1.4-.4.6-.6c.3-.2.5-.2.9-.2h.5c.2 0 .3 0 .4.2l-.2.4h-.8c-.3 0-.4 0-.6.2l-.4.4v1.5c0 .2.2.4.4.4s.4.2.6.2h.5c.2 0 .3 0 .4-.2v.5s-.3 0-.4.2h-.5ZM378.6 197.9v3.3s0-.2.2-.3.2-.2.3-.3l1.2-1.3h.6l-1.4 1.6 1.6 2h-.6l-1.2-1.7-.4.4v1.3h-.5v-5.1h.5-.2ZM383 199.3c.3 0 .5 0 .8.2l.5.5c.1.1.2.5.2.9v.4H382c0 .4 0 .7.4 1 .2.3.5.4.9.4h.6c.2 0 .4 0 .5-.2v.4c-.2 0-.4.2-.5.2h-.6c-.4 0-.6 0-.9-.2s-.4-.4-.6-.6-.2-.6-.2-1 0-.7.2-1c0-.3.4-.5.5-.6s.5-.3.9-.3h-.2Zm0 .4c-.3 0-.5 0-.7.3-.2.2-.3.4-.4.8h1.9v-.5c0-.2-.2-.3-.3-.4s-.3-.2-.5-.2M386.7 203c-.4 0-.8-.2-1.1-.4-.3-.4-.4-.8-.4-1.4s.2-1.1.4-1.4c.3-.4.6-.4 1.1-.4h.5c.2 0 .3 0 .4.2l.3.3V198h.5v5.1h-.4v-.5l-.3.3s-.3.2-.4.2h-.5v.2Zm.1-.4c.4 0 .6 0 .8-.4.2-.2.3-.5.3-1s0-.9-.3-1.1c-.2-.3-.4-.4-.8-.4s-.6 0-.8.4c-.2.3-.3.6-.3 1.1s0 .8.3 1.1c.2.3.4.4.8.4ZM392.9 199.8h-.9v3.2h-.5v-3.2h-.6v-.3l.6-.2v-.3c0-.3 0-.5.2-.7s.3-.4.4-.4c.2 0 .4-.2.6-.2h.6l-.2.4h-.5c-.2 0-.4 0-.4.2s-.2.4-.2.6v.3h.9v.4ZM396.6 201.2v.8c0 .3-.2.4-.4.6s-.4.3-.5.4h-1.4c-.2 0-.4-.2-.5-.4s-.3-.4-.4-.6v-.8c0-.3 0-.7.2-1s.4-.5.6-.6c.3-.2.5-.2.9-.2s.6 0 .9.3c.3.2.4.4.6.6s.2.6.2 1Zm-2.7 0v.8c0 .2.2.4.4.5.2 0 .4.2.6.2s.4 0 .6-.2c.2 0 .3-.3.4-.5s0-.4 0-.8v-.7c0-.2-.2-.4-.4-.5-.2 0-.4-.2-.6-.2s-.6 0-.8.4-.3.6-.3 1.1ZM399.3 199.3h.4v.5h-.9s-.3.2-.4.3-.2.3-.3.4v2.5h-.5v-3.6h.4v.7c0-.2.2-.3.3-.4 0 0 .3-.2.4-.3s.3 0 .4 0ZM404.5 202c0 .3 0 .4-.2.6 0 .2-.3.3-.5.4s-.4 0-.8 0h-.6c-.2 0-.4 0-.4-.2v-.5c.2 0 .4.2.5.2h.6c.4 0 .5 0 .7-.2s.2-.3.2-.4v-.3l-.3-.3c-.1-.1-.4-.2-.5-.3-.3 0-.4-.2-.6-.3-.2 0-.3-.2-.4-.4s-.2-.3-.2-.5 0-.5.4-.7.5-.3 1-.3h.6c.2 0 .4 0 .5.2l-.2.4c-.2 0-.3 0-.4-.2h-1.1c-.2 0-.2.2-.2.4v.3s.2.2.3.2.4.2.5.3c.3 0 .4.2.6.3s.3.2.4.4c0 0 .2.3.2.5v.2ZM406.8 199.3c.3 0 .5 0 .8.2l.5.5c.1.1.2.5.2.9v.4h-2.5c0 .4 0 .7.4 1 .2.3.5.4.9.4h.6c.2 0 .4 0 .5-.2v.4c-.2 0-.4.2-.5.2h-.6c-.4 0-.6 0-.9-.2s-.4-.4-.6-.6-.2-.6-.2-1 0-.7.2-1c0-.3.4-.5.5-.6s.5-.3.9-.3h-.2Zm-.1.4c-.3 0-.5 0-.7.3-.2.2-.3.4-.4.8h1.9v-.5c0-.2-.2-.3-.3-.4s-.3-.2-.5-.2M410.5 203c-.4 0-.6 0-.9-.2s-.4-.4-.6-.6-.2-.6-.2-1.1 0-.8.2-1.1.4-.4.6-.6c.3-.2.5-.2.9-.2h.5c.2 0 .3 0 .4.2l-.2.4h-.8c-.3 0-.4 0-.6.2l-.4.4v1.5c0 .2.2.4.4.4s.4.2.6.2h.5c.2 0 .3 0 .4-.2v.5s-.3 0-.4.2h-.5ZM415.3 199.4v3.6h-.4v-.5s-.2.3-.3.4c0 0-.3.2-.4.2h-.4c-.3 0-.5 0-.7-.2-.2 0-.4-.3-.4-.4s-.2-.4-.2-.7v-2.4h.5v2.3c0 .3 0 .5.2.7s.4.3.6.3.4 0 .6-.2c.2 0 .3-.3.4-.4v-2.5999999999999996h.6ZM418.1 199.3h.4v.5h-.9s-.3.2-.4.3-.2.3-.3.4v2.5h-.5v-3.6h.4v.7c0-.2.2-.3.3-.4 0 0 .3-.2.4-.3s.3 0 .4 0ZM419.5 198h.3v.6c0 .1-.2 0-.3 0h-.3c-.1 0 0-.2 0-.3v-.3zm.3 1.4v3.6h-.5v-3.6zM422 202.6h.5v.4h-1.1c-.2 0-.3-.2-.4-.4s-.2-.4-.2-.7v-2.1h-.5v-.3l.5-.2.2-.8h.4v.9h1.1v.4h-1.1v2.1c0 .3 0 .4.2.5s.3.2.4.2M422.7 199.4h.6l.8 2.1v1.1s0-.3.2-.4c0-.2 0-.4.2-.5l.8-2.1h.6l-1.6 4.1c0 .3-.2.4-.3.6 0 .2-.3.3-.4.4-.2 0-.4.2-.6.2h-.5v-.4h.7s.2 0 .3-.3.2-.2.2-.4l.2-.5-1.4-3.6ZM430 199.3h.4v.5h-.9s-.3.2-.4.3-.2.3-.3.4v2.5h-.5v-3.6h.4v.7c0-.2.2-.3.3-.4 0 0 .3-.2.4-.3s.3 0 .4 0ZM432.6 199.3c.3 0 .5 0 .8.2l.5.5c.1.1.2.5.2.9v.4h-2.5c0 .4 0 .7.4 1 .2.3.5.4.9.4h.6c.2 0 .4 0 .5-.2v.4c-.2 0-.4.2-.5.2h-.6c-.4 0-.6 0-.9-.2s-.4-.4-.6-.6-.2-.6-.2-1 0-.7.2-1c0-.3.4-.5.5-.6s.5-.3.9-.3h-.2Zm0 .4c-.3 0-.5 0-.7.3-.2.2-.3.4-.4.8h1.9v-.5c0-.2-.2-.3-.3-.4s-.3-.2-.5-.2M436.3 199.3c.4 0 .8 0 1 .3s.4.5.4 1v2.5h-.4v-.5h-.2s-.2.3-.4.4c0 0-.3.2-.4.2h-1.1c-.2 0-.3-.2-.4-.4 0-.2-.2-.4-.2-.6s.2-.6.4-.8.7-.3 1.3-.4h.6v-.3c0-.4 0-.5-.2-.6s-.4-.2-.5-.2h-.5c-.2 0-.4 0-.5.2l-.2-.4c.2 0 .4-.2.5-.2h.7Zm.8 1.9h-.5c-.4 0-.8 0-1 .3-.2 0-.3.4-.3.5s0 .4.2.4c0 0 .3.2.5.2s.6 0 .8-.3c.2-.2.3-.4.3-.8v-.4ZM441 202c0 .3 0 .4-.2.6 0 .2-.3.3-.5.4s-.4 0-.8 0h-.6c-.2 0-.4 0-.4-.2v-.5c.2 0 .4.2.5.2h.6c.4 0 .5 0 .7-.2s.2-.3.2-.4v-.3l-.3-.3c-.1-.1-.4-.2-.5-.3-.3 0-.4-.2-.6-.3-.2 0-.3-.2-.4-.4s-.2-.3-.2-.5 0-.5.4-.7.5-.3 1-.3h.6c.2 0 .4 0 .5.2l-.2.4c-.2 0-.3 0-.4-.2h-1.1c-.2 0-.2.2-.2.4v.3s.2.2.3.2.4.2.5.3c.3 0 .4.2.6.3s.3.2.4.4c0 0 .2.3.2.5v.2ZM445 201.2v.8c0 .3-.2.4-.4.6s-.4.3-.5.4h-1.4c-.2 0-.4-.2-.5-.4s-.3-.4-.4-.6v-.8c0-.3 0-.7.2-1s.4-.5.6-.6c.3-.2.5-.2.9-.2s.6 0 .9.3c.3.2.4.4.6.6s.2.6.2 1Zm-2.8 0v.8c0 .2.2.4.4.5.2 0 .4.2.6.2s.4 0 .6-.2c.2 0 .3-.3.4-.5s0-.4 0-.8v-.7c0-.2-.2-.4-.4-.5-.2 0-.4-.2-.6-.2s-.6 0-.8.4-.3.6-.3 1.1ZM447.7 199.3c.4 0 .8 0 1 .4.2.2.4.5.4 1v2.4h-.5v-2.3c0-.3 0-.5-.2-.7s-.4-.3-.6-.3-.7 0-.9.4c-.2.3-.3.5-.3 1v1.8h-.5v-3.6h.4v.5s.2-.3.3-.4c0 0 .3-.2.4-.2h.4ZM452.4 202c0 .3 0 .4-.2.6 0 .2-.3.3-.5.4s-.4 0-.8 0h-.6c-.2 0-.4 0-.4-.2v-.5c.2 0 .4.2.5.2h.6c.4 0 .5 0 .7-.2s.2-.3.2-.4v-.3l-.3-.3c-.1-.1-.4-.2-.5-.3-.3 0-.4-.2-.6-.3-.2 0-.3-.2-.4-.4s-.2-.3-.2-.5 0-.5.4-.7.5-.3 1-.3h.6c.2 0 .4 0 .5.2l-.2.4c-.2 0-.3 0-.4-.2h-1.1c-.2 0-.2.2-.2.4v.3s.2.2.3.2.4.2.5.3c.3 0 .4.2.6.3s.3.2.4.4c0 0 .2.3.2.5v.2ZM453.2 202.6v-.4h.6v.8c0 .1-.2 0-.3 0h-.3c-.1 0 0-.2 0-.4" class="st14"/><path d="M307.5 230.5c4.6 0 8.3-3.1 8.3-6.9s-3.7-6.9-8.3-6.9H243c-4.6 0-8.3 3.1-8.3 6.9s3.7 6.9 8.3 6.9z" style="fill:url(#_Градієнт_без_назви_5)"/><g class="st5"><text class="st2" transform="translate(247.9 225.7)"><tspan x="0" y="0">Investigate Now</tspan></text></g><path d="M406 230.5c4.6 0 8.3-3.1 8.3-6.9s-3.7-6.9-8.3-6.9h-64.5c-4.6 0-8.3 3.1-8.3 6.9s3.7 6.9 8.3 6.9z" class="st0"/><g class="st5"><text class="st6" transform="translate(340.2 225.7)"><tspan x="0" y="0">Whitelist &amp; Approve</tspan></text></g><path d="M218.5 207.4c0 11.1-9 20-20 20s-20-9-20-20 9-20 20-20 20 9 20 20" style="fill:url(#_Градієнт_без_назви_6)"/><path d="M198.5 195.1c.7 0 1.3.4 1.7 1l10.4 17.7c.4.6.4 1.3 0 1.9s-1 1-1.7 1h-20.8c-.7 0-1.3-.4-1.7-1s-.4-1.3 0-1.9l10.4-17.7c.4-.6 1-1 1.7-1m0 6.1c-.6 0-1.1.5-1.1 1.1v5.4c0 .6.5 1.1 1.1 1.1s1.1-.5 1.1-1.1v-5.4c0-.6-.5-1.1-1.1-1.1m1.4 10.8c0-.9-.7-1.6-1.6-1.6s-1.6.7-1.6 1.6.7 1.6 1.6 1.6 1.6-.7 1.6-1.6" class="st3"/></svg>