<svg xmlns="http://www.w3.org/2000/svg" xmlns:xlink="http://www.w3.org/1999/xlink" viewBox="0 0 1692 628"><defs><linearGradient id="_Градієнт_без_назви_25" x1="46.9" x2="51" y1="93.6" y2="93.6" data-name="Градієнт без назви 25" gradientTransform="matrix(1 0 0 -1 0 628)" gradientUnits="userSpaceOnUse"><stop offset="0" stop-color="#4fb5ff"/><stop offset="1" stop-color="#0468ff"/></linearGradient><linearGradient xlink:href="#_Градієнт_без_назви_25" id="_Градієнт_без_назви_251" x1="58.4" x2="62.6" y1="83.3" y2="83.3" data-name="Градієнт без назви 25"/><linearGradient xlink:href="#_Градієнт_без_назви_25" id="_Градієнт_без_назви_252" x1="232.6" x2="236.7" data-name="Градієнт без назви 25"/><linearGradient xlink:href="#_Градієнт_без_назви_25" id="_Градієнт_без_назви_253" x1="255.8" x2="259.9" y1="92.5" y2="92.5" data-name="Градієнт без назви 25"/><linearGradient xlink:href="#_Градієнт_без_назви_25" id="_Градієнт_без_назви_254" x1="267.5" x2="271.5" y1="88.4" y2="88.4" data-name="Градієнт без назви 25"/><linearGradient xlink:href="#_Градієнт_без_назви_25" id="_Градієнт_без_назви_255" x1="23.7" x2="27.7" y1="133.5" y2="133.5" data-name="Градієнт без назви 25"/><linearGradient xlink:href="#_Градієнт_без_назви_25" id="_Градієнт_без_назви_256" x1="35.3" x2="39.4" y1="124.3" y2="124.3" data-name="Градієнт без назви 25"/><linearGradient xlink:href="#_Градієнт_без_назви_25" id="_Градієнт_без_назви_257" x1="70.1" x2="74.2" y1="109" y2="109" data-name="Градієнт без назви 25"/><linearGradient xlink:href="#_Градієнт_без_назви_25" id="_Градієнт_без_назви_258" x1="81.7" x2="85.8" y1="111" y2="111" data-name="Градієнт без назви 25"/><linearGradient xlink:href="#_Градієнт_без_назви_25" id="_Градієнт_без_назви_259" x1="93.3" x2="97.4" y1="96.7" y2="96.7" data-name="Градієнт без назви 25"/><linearGradient xlink:href="#_Градієнт_без_назви_25" id="_Градієнт_без_назви_2510" x1="104.9" x2="109" y1="129.4" y2="129.4" data-name="Градієнт без назви 25"/><linearGradient xlink:href="#_Градієнт_без_назви_25" id="_Градієнт_без_назви_2511" x1="116.5" x2="120.6" y1="95.6" y2="95.6" data-name="Градієнт без назви 25"/><linearGradient xlink:href="#_Градієнт_без_назви_25" id="_Градієнт_без_назви_2512" x1="128.1" x2="132.2" y1="106.9" y2="106.9" data-name="Градієнт без назви 25"/><linearGradient xlink:href="#_Градієнт_без_назви_25" id="_Градієнт_без_назви_2513" x1="139.7" x2="143.8" y1="114.1" y2="114.1" data-name="Градієнт без назви 25"/><linearGradient xlink:href="#_Градієнт_без_назви_25" id="_Градієнт_без_назви_2514" x1="151.4" x2="155.4" y1="122.3" y2="122.3" data-name="Градієнт без назви 25"/><linearGradient xlink:href="#_Градієнт_без_назви_25" id="_Градієнт_без_назви_2515" x1="163" x2="167.1" y1="126.3" y2="126.3" data-name="Градієнт без назви 25"/><linearGradient xlink:href="#_Градієнт_без_назви_25" id="_Градієнт_без_назви_2516" x1="174.6" x2="178.7" y1="115.1" y2="115.1" data-name="Градієнт без назви 25"/><linearGradient xlink:href="#_Градієнт_без_назви_25" id="_Градієнт_без_назви_2517" x1="186.2" x2="190.3" y1="124.3" y2="124.3" data-name="Градієнт без назви 25"/><linearGradient xlink:href="#_Градієнт_без_назви_25" id="_Градієнт_без_назви_2518" x1="197.8" x2="201.9" y1="129.4" y2="129.4" data-name="Градієнт без назви 25"/><linearGradient xlink:href="#_Градієнт_без_назви_25" id="_Градієнт_без_назви_2519" x1="209.4" x2="213.5" y1="114.1" y2="114.1" data-name="Градієнт без назви 25"/><linearGradient xlink:href="#_Градієнт_без_назви_25" id="_Градієнт_без_назви_2520" x1="221" x2="225.1" y1="117.1" y2="117.1" data-name="Градієнт без назви 25"/><linearGradient xlink:href="#_Градієнт_без_назви_25" id="_Градієнт_без_назви_2521" x1="244.2" x2="248.3" y1="98.7" y2="98.7" data-name="Градієнт без назви 25"/><linearGradient xlink:href="#_Градієнт_без_назви_25" id="_Градієнт_без_назви_2522" x1="279.1" x2="283.2" y1="124.3" y2="124.3" data-name="Градієнт без назви 25"/><linearGradient xlink:href="#_Градієнт_без_назви_25" id="_Градієнт_без_назви_2523" x1="290.7" x2="294.8" y1="126.3" y2="126.3" data-name="Градієнт без назви 25"/><linearGradient id="_Градієнт_без_назви_33" x1="1891.1" x2="1889.2" y1="157.3" y2="158.4" data-name="Градієнт без назви 33" gradientTransform="matrix(-1 0 0 1 2182.4 289.4)" gradientUnits="userSpaceOnUse"><stop offset="0" stop-color="#ff4e7f"/><stop offset="1" stop-color="#e6545a"/></linearGradient><linearGradient xlink:href="#_Градієнт_без_назви_33" id="_Градієнт_без_назви_331" x1="300" x2="289.8" y1="309.9" y2="299.3" data-name="Градієнт без назви 33" gradientTransform="translate(0 140)"/><linearGradient xlink:href="#_Градієнт_без_назви_33" id="_Градієнт_без_назви_332" x1="1983.9" x2="1982.1" y1="151" y2="152" data-name="Градієнт без назви 33"/><linearGradient xlink:href="#_Градієнт_без_назви_33" id="_Градієнт_без_назви_333" x1="207.1" x2="196.9" y1="303.7" y2="293" data-name="Градієнт без назви 33" gradientTransform="translate(0 140)"/><linearGradient xlink:href="#_Градієнт_без_назви_33" id="_Градієнт_без_назви_334" x1="2076.9" x2="2075" y1="151.2" y2="152.2" data-name="Градієнт без назви 33"/><linearGradient xlink:href="#_Градієнт_без_назви_33" id="_Градієнт_без_назви_335" x1="114.2" x2="104" y1="303.8" y2="293.2" data-name="Градієнт без назви 33" gradientTransform="translate(0 140)"/><linearGradient xlink:href="#_Градієнт_без_назви_33" id="_Градієнт_без_назви_336" x1="2158.1" x2="2156.3" y1="142.8" y2="143.9" data-name="Градієнт без назви 33"/><linearGradient xlink:href="#_Градієнт_без_назви_33" id="_Градієнт_без_назви_337" x1="33" x2="22.7" y1="295.5" y2="284.9" data-name="Градієнт без назви 33" gradientTransform="translate(0 140)"/><linearGradient xlink:href="#_Градієнт_без_назви_25" id="_Градієнт_без_назви_2524" x1="1595.4" x2="1600.2" y1="348.3" y2="348.3" data-name="Градієнт без назви 25" gradientTransform="translate(0 140)"/><linearGradient xlink:href="#_Градієнт_без_назви_25" id="_Градієнт_без_назви_2525" x1="1369.9" x2="1650.3" y1="265.2" y2="265.2" data-name="Градієнт без назви 25" gradientTransform="translate(0 140)"/><linearGradient xlink:href="#_Градієнт_без_назви_25" id="_Градієнт_без_назви_2526" x1="1369.7" x2="1650.3" y1="269.1" y2="269.1" data-name="Градієнт без назви 25" gradientTransform="translate(0 140)"/><linearGradient xlink:href="#_Градієнт_без_назви_25" id="_Градієнт_без_назви_2527" x1="1426.4" x2="1479.3" y1="206.5" y2="206.5" data-name="Градієнт без назви 25"/><style>.st2{isolation:isolate}.st14,.st15,.st16,.st18{fill:#fff}.st20{opacity:.5}.st15{fill-opacity:.6}.st29{fill:#3a3a3a}.st16{stroke:#999f99;stroke-width:.3px}.st18{fill-opacity:.7}.st47{fill:#f7f7f7}.st18{fill-rule:evenodd}</style></defs><g id="_Шар_5" data-name="Шар_5"><image xlink:href="screen.png" width="1485" height="522" transform="matrix(.8 0 0 .8 267.5 138.2)"/><path d="M286.5 111.4h1075.6c10.5 0 19.1 8.6 19.1 19.1v8.7H267.5v-8.7c0-10.5 8.6-19.1 19.1-19.1Z" class="st29"/></g><g id="_Шар_3" data-name="Шар_3"><path id="_Шар_4" d="M315.2 568.1c0 4.8-4.4 8.7-9.8 8.7H12.9c-5.4 0-9.8-3.9-9.8-8.7V383.7c0-4.8 4.4-8.7 9.8-8.7h292.5c5.4 0 9.8 3.9 9.8 8.7v184.4Z" class="st16"/><text id="_Шар_31" class="st2" data-name="_Шар_3" style="font-size:7.8px;isolation:isolate;fill:#29292e;font-family:OpenSans-Bold,&quot;Open Sans&quot;;font-weight:700" transform="translate(16.9 401.6)"><tspan x="0" y="0">User Behavior Analysis</tspan></text><g id="_Шар_61" data-name="_Шар_6"><path d="M23.7 434h4.1v120.9h-4.1z" style="fill:#454650"/><path d="M35.3 434h4.1v120.9h-4.1zM46.9 434H51v120.9h-4.1zM58.4 434h4.1v120.9h-4.1zM70.1 434h4.1v120.9h-4.1z" class="st47"/><path d="M46.9 514H51v41h-4.1z" style="fill:url(#_Градієнт_без_назви_25)"/><path d="M58.4 534.4h4.1v20.5h-4.1z" style="fill:url(#_Градієнт_без_назви_251)"/><path d="M81.7 434h4.1v120.9h-4.1zM93.3 434h4.1v120.9h-4.1zM104.9 434h4.1v120.9h-4.1zM116.5 434h4.1v120.9h-4.1zM128.1 434h4.1v120.9h-4.1zM139.7 434h4.1v120.9h-4.1zM151.4 434h4.1v120.9h-4.1zM163 434h4.1v120.9H163zM174.6 434h4.1v120.9h-4.1zM186.2 434h4.1v120.9h-4.1zM197.8 434h4.1v120.9h-4.1zM209.4 434h4.1v120.9h-4.1zM221 434h4.1v120.9H221zM232.6 434h4.1v120.9h-4.1zM244.2 434h4.1v120.9h-4.1zM255.8 434h4.1v120.9h-4.1zM267.5 434h4.1v120.9h-4.1zM279.1 434h4.1v120.9h-4.1z" class="st47"/><path d="M232.6 514h4.1v41h-4.1z" style="fill:url(#_Градієнт_без_назви_252)"/><path d="M255.8 516h4.1v38.9h-4.1z" style="fill:url(#_Градієнт_без_назви_253)"/><path d="M267.5 524.2h4.1v30.7h-4.1z" style="fill:url(#_Градієнт_без_назви_254)"/><path d="M290.7 434h4.1v120.9h-4.1z" class="st47"/><path d="M23.7 434h4.1v120.9h-4.1z" style="fill:url(#_Градієнт_без_назви_255)"/><path d="M35.3 452.5h4.1v102.4h-4.1z" style="fill:url(#_Градієнт_без_назви_256)"/><path d="M70.1 483.2h4.1v71.7h-4.1z" style="fill:url(#_Градієнт_без_назви_257)"/><path d="M81.7 479.1h4.1v75.8h-4.1z" style="fill:url(#_Градієнт_без_назви_258)"/><path d="M93.3 507.8h4.1v47.1h-4.1z" style="fill:url(#_Градієнт_без_назви_259)"/><path d="M104.9 442.2h4.1v112.7h-4.1z" style="fill:url(#_Градієнт_без_назви_2510)"/><path d="M116.5 509.8h4.1v45.1h-4.1z" style="fill:url(#_Градієнт_без_назви_2511)"/><path d="M128.1 487.3h4.1v67.6h-4.1z" style="fill:url(#_Градієнт_без_назви_2512)"/><path d="M139.7 472.9h4.1v82h-4.1z" style="fill:url(#_Градієнт_без_назви_2513)"/><path d="M151.4 456.6h4.1v98.3h-4.1z" style="fill:url(#_Градієнт_без_назви_2514)"/><path d="M163 448.4h4.1v106.5H163z" style="fill:url(#_Градієнт_без_назви_2515)"/><path d="M174.6 470.9h4.1v84h-4.1z" style="fill:url(#_Градієнт_без_назви_2516)"/><path d="M186.2 452.5h4.1v102.4h-4.1z" style="fill:url(#_Градієнт_без_назви_2517)"/><path d="M197.8 442.2h4.1v112.7h-4.1z" style="fill:url(#_Градієнт_без_назви_2518)"/><path d="M209.4 472.9h4.1v82h-4.1z" style="fill:url(#_Градієнт_без_назви_2519)"/><path d="M221 466.8h4.1v88.1H221z" style="fill:url(#_Градієнт_без_назви_2520)"/><path d="M244.2 503.7h4.1v51.2h-4.1z" style="fill:url(#_Градієнт_без_назви_2521)"/><path d="M279.1 452.5h4.1v102.4h-4.1z" style="fill:url(#_Градієнт_без_назви_2522)"/><path d="M290.7 448.4h4.1v106.5h-4.1z" style="fill:url(#_Градієнт_без_назви_2523)"/><path d="m293.5 447.2-.8 1.1-.8-1.1z" style="fill:url(#_Градієнт_без_назви_33)"/><path d="M297.6 442.4c0 2.7-2.2 4.9-4.9 4.9s-4.9-2.2-4.9-4.9 2.2-4.9 4.9-4.9 4.9 2.2 4.9 4.9" style="fill:url(#_Градієнт_без_назви_331)"/><path d="M292.7 439.4c.2 0 .3 0 .4.2l2.5 4.3v.5c0 .2-.2.2-.4.2h-5.1c-.2 0-.3 0-.4-.2s0-.3 0-.5l2.5-4.3c0-.2.2-.2.4-.2Zm0 1.5q-.3 0-.3.3v1.3q0 .3.3.3c.3 0 .3-.1.3-.3v-1.3q0-.3-.3-.3m.4 2.6c0-.2-.2-.4-.4-.4s-.4.2-.4.4.2.4.4.4.4-.2.4-.4" class="st14"/><path d="m200.6 440.8-.7 1.2-.8-1.2z" style="fill:url(#_Градієнт_без_назви_332)"/><path d="M204.7 436c0 2.7-2.2 4.9-4.9 4.9s-4.9-2.2-4.9-4.9 2.2-4.9 4.9-4.9 4.9 2.2 4.9 4.9" style="fill:url(#_Градієнт_без_назви_333)"/><path d="M199.9 433c.2 0 .3 0 .4.2l2.5 4.3v.5c0 .2-.2.2-.4.2h-5.1c-.2 0-.3 0-.4-.2s0-.3 0-.5l2.5-4.3c0-.2.2-.2.4-.2Zm0 1.6q-.3 0-.3.3v1.3q0 .3.3.3c.3 0 .3-.1.3-.3v-1.3q0-.3-.3-.3m.3 2.6c0-.2-.2-.4-.4-.4s-.4.2-.4.4.2.4.4.4.4-.2.4-.4" class="st14"/><path d="m107.7 441-.8 1.2-.7-1.2z" style="fill:url(#_Градієнт_без_назви_334)"/><path d="M111.8 436.3c0 2.7-2.2 4.9-4.9 4.9s-4.9-2.2-4.9-4.9 2.2-4.9 4.9-4.9 4.9 2.2 4.9 4.9" style="fill:url(#_Градієнт_без_назви_335)"/><path d="M107 433.3c.2 0 .3 0 .4.2l2.5 4.3v.5c0 .2-.2.2-.4.2h-5.1c-.2 0-.3 0-.4-.2s0-.3 0-.5l2.5-4.3c0-.2.2-.2.4-.2Zm0 1.4q-.3 0-.3.3v1.3q0 .3.3.3c.3 0 .3-.1.3-.3V435q0-.3-.3-.3m.3 2.7c0-.2-.2-.4-.4-.4s-.4.2-.4.4.2.4.4.4.4-.2.4-.4" class="st14"/><path d="m26.4 432.6-.7 1.3-.7-1.3z" style="fill:url(#_Градієнт_без_назви_336)"/><path d="M30.6 427.9c0 2.7-2.2 4.9-4.9 4.9s-4.9-2.2-4.9-4.9 2.2-4.9 4.9-4.9 4.9 2.2 4.9 4.9" style="fill:url(#_Градієнт_без_назви_337)"/><path d="M25.7 424.9c.2 0 .3 0 .4.2l2.5 4.3v.5c0 .2-.2.2-.4.2h-5.1c-.2 0-.3 0-.4-.2s0-.3 0-.5l2.5-4.3c0-.2.2-.2.4-.2Zm0 1.5q-.3 0-.3.3v1.3q0 .3.3.3c.3 0 .3-.1.3-.3v-1.3q0-.3-.3-.3m.4 2.6c0-.2-.2-.4-.4-.4s-.4.2-.4.4.2.4.4.4.4-.2.4-.4" class="st14"/></g></g><g id="_Шар_41" data-name="Шар_4"><path d="M1687.1 505.7c0 5.3-4.9 9.6-11 9.6h-328.8c-6.1 0-11-4.3-11-9.6V301.1c0-5.3 4.9-9.6 11-9.6h328.8c6 0 11 4.3 11 9.6z" class="st16"/><text class="st2" style="isolation:isolate;fill:#29292e;font-family:OpenSans-Bold,&quot;Open Sans&quot;;font-weight:700;font-size:8.7px" transform="translate(1353.7 319.8)"><tspan x="0" y="0">AI Learning Progress</tspan></text><g class="st2"><text class="st2" style="isolation:isolate;fill:#5f616e;font-family:OpenSans-Medium,&quot;Open Sans&quot;;font-size:5.8px;font-weight:500" transform="translate(1423.2 490)"><tspan x="0" y="0">Timeline that visualizes how the AI improves over time</tspan></text></g><path d="M1595.4 485.8h4.9v4.9h-4.9z" style="fill:url(#_Градієнт_без_назви_2524)"/><path d="M1370 467.9c15.5-2.9 30.9-5.8 46.4-8.7 13.4-2.5 26.9-5 39.7-10.8 19.3-8.7 44.1-24.9 61.3-40.4 44.8-40.5 73.4-61.9 133-65.4" style="fill:none;stroke-miterlimit:10;stroke:url(#_Градієнт_без_назви_2525)"/><path d="M1370 467.9c15.5-2.9 30.9-5.8 46.4-8.7 13.4-2.5 26.9-5 39.7-10.8 19.3-8.7 44.1-24.9 61.3-40.4 44.8-40.5 73.4-61.9 133-65.4v133.2h-280.5v-7.9" style="isolation:isolate;fill:url(#_Градієнт_без_назви_2526);opacity:.5"/><path d="M1369.7 342.5v133.2h284.1" style="stroke:#d9d9d9;fill:none;stroke-miterlimit:10"/></g><g id="_Шар_1" data-name="Шар_1"><rect width="443.6" height="211.6" x="1062.3" y="19" rx="7.6" ry="7.6" shape-rendering="crispEdges" style="fill:#1d1d1b"/><path d="M1260.8 38v-9.1h1.6l2.8 7.7h-.2l2.9-7.7h1.6V38h-1.1v-8.8h.5l-3.3 8.8h-1l-3.2-8.8h.5V38zM1274.5 38.1c-.7 0-1.2-.1-1.7-.4s-.8-.7-1.1-1.2c-.2-.5-.4-1.1-.4-1.8s.2-1.5.5-2.1q.45-.75 1.2-1.2c.5-.3 1-.4 1.5-.4s1 .1 1.5.4c.4.2.8.6 1.1 1.1s.4 1.1.4 1.9v.3h-5.1v-.9h4.4l-.4.5c0-.6 0-1-.2-1.4-.1-.4-.4-.6-.6-.8-.3-.2-.6-.2-1-.2-.6 0-1.2.2-1.5.7s-.5 1.1-.5 1.9.2 1.3.5 1.8c.4.5.9.7 1.6.7s.8 0 1.1-.3c.3-.2.5-.5.6-.8h1.2c-.2.7-.5 1.2-1 1.5-.5.4-1.1.5-1.9.5ZM1281.9 38.1c-.7 0-1.2-.1-1.7-.4s-.8-.7-1.1-1.2c-.2-.5-.4-1.1-.4-1.8s.2-1.5.5-2.1q.45-.75 1.2-1.2c.5-.3 1-.4 1.5-.4s1 .1 1.5.4c.4.2.8.6 1.1 1.1s.4 1.1.4 1.9v.3h-5.1v-.9h4.4l-.4.5c0-.6 0-1-.2-1.4s-.4-.6-.7-.8-.6-.2-1-.2c-.7 0-1.2.2-1.5.7s-.5 1.1-.5 1.9.2 1.3.5 1.8c.4.5.9.7 1.6.7s.8 0 1.1-.3c.3-.2.5-.5.6-.8h1.2c-.2.7-.5 1.2-1 1.5-.5.4-1.1.5-1.9.5ZM1288.9 38.1c-.7 0-1.3-.2-1.6-.6s-.4-.9-.4-1.6v-6.3h1.1v6.2c0 .4 0 .7.2 1 .2.2.5.4.9.4h.7v1h-.8999999999999999Zm-3.4-5.9v-1h4.3v1zM1291.7 30c-.2 0-.4 0-.5-.2-.1-.1-.2-.3-.2-.5s0-.4.2-.5c.1-.1.3-.2.5-.2s.4 0 .5.2c.1.1.2.3.2.5s0 .4-.2.5c-.1.1-.3.2-.5.2m-.6 8v-6.8h1.1V38zM1298.4 38v-4.5c0-.5-.1-.9-.4-1.1s-.6-.4-1.1-.4-.5 0-.8.2c-.2 0-.5.3-.6.5-.2.2-.2.5-.2.9l-.2-1.2c.1-.3.3-.5.5-.7s.5-.3.8-.4.6-.2.9-.2c.4 0 .8 0 1.2.3.3.2.6.5.8.8.2.4.3.8.3 1.3V38h-1.1Zm-4.3 0v-6.8h1.1V38zM1304.3 40.7c-.6 0-1.1 0-1.5-.3-.4-.2-.8-.4-1.1-.8-.3-.3-.4-.7-.5-1h1.1c.1.4.4.7.7.9q.6.3 1.2.3c.6 0 1.1-.2 1.4-.5.4-.3.5-.8.5-1.4v-1.2c-.3.4-.6.7-1 .9s-.8.3-1.2.3-1-.1-1.5-.4-.8-.6-1.1-1.1-.4-1.1-.4-1.9.1-1.4.4-1.9q.45-.75 1.2-1.2c.5-.3 1-.4 1.5-.4s.8 0 1.1.3c.4.2.7.4.9.8v-.9h1.1v6.7c0 .6-.1 1.1-.4 1.5-.2.4-.6.7-1.1 1-.5.2-1 .4-1.7.4Zm0-3.8c.7 0 1.2-.2 1.6-.7q.6-.75.6-1.8c0-1.05-.2-1.3-.6-1.8q-.6-.6-1.5-.6c-.9 0-1.2.2-1.5.7-.4.5-.6 1-.6 1.8s.2 1.3.6 1.8q.6.6 1.5.6Z" class="st15"/><rect width="399" height="30.6" x="1084.6" y="191" class="st29" rx="7.6" ry="7.6"/><g class="st20"><path d="M1091.7 200.8c0-2.4 1.9-4.3 4.3-4.3s4.3 1.9 4.3 4.3v3.7c0 2.4-1.9 4.3-4.3 4.3s-4.3-1.9-4.3-4.3zm1.2-.5h2.2v1.2h-2.2v2.6h2.2v1.2h-2.2c.3 1.5 1.6 2.6 3.1 2.6s3.1-1.4 3.1-3.1v-3.7c0-1.7-1.4-3.1-3.1-3.1s-2.8 1.1-3.1 2.6Z" class="st18"/><path d="M1092.2 214.4v-1.2h3.1v-1.6c-3.6-.3-6.5-3.3-6.5-7.1h1.2c0 3.3 2.7 5.9 5.9 5.9s5.9-2.6 5.9-5.9h1.2c0 3.7-2.9 6.8-6.5 7.1v1.6h3.1v1.2z" style="fill:#fff;fill-opacity:.7"/></g><g class="st20"><path d="M1118.5 205.5c0-2.4 1.9-4.3 4.3-4.3s4.3 1.9 4.3 4.3-1.9 4.3-4.3 4.3-4.3-1.9-4.3-4.3m4.3-3.2c-1.7 0-3.1 1.4-3.1 3.1s1.4 3.1 3.1 3.1 3.1-1.4 3.1-3.1-1.4-3.1-3.1-3.1" class="st18"/><path d="M1119.7 197.5h6.2l1.5 2.2c.2.4.6.6 1.1.6h3.3v12.3h-17.9v-12.3h3.3c.4 0 .8-.2 1.1-.6l1.5-2.2Zm.6 1.1-1.1 1.7c-.4.7-1.2 1.1-2 1.1h-2.1v10h15.5v-10h-2.1c-.8 0-1.6-.4-2-1.1l-1.1-1.7h-5Z" class="st18"/></g><rect width="52.9" height="23.2" x="1426.4" y="194.9" rx="7.4" ry="7.4" style="isolation:isolate;fill:url(#_Градієнт_без_назви_2527)"/><path d="M1445.2 206.5v-.9h4.1v.9zm0-3.3v-.9h4.3v.9zm0 6.9v-.9h4.4v.9zm-.8 0v-7.8h1v7.8zM1454.6 210.1v-3.8c0-.4-.1-.8-.4-1q-.3-.3-.9-.3c-.6 0-.4 0-.7.1-.2 0-.4.2-.5.4s-.2.4-.2.8l-.2-1c.1-.3.3-.5.4-.6.2-.2.4-.3.7-.4.2 0 .5-.1.7-.1.4 0 .7 0 1 .2s.5.4.7.7.3.7.3 1.1v3.9h-1Zm-3.7 0v-5.8h1v5.8zM1459.6 210.2c-.5 0-.9-.1-1.3-.3s-.7-.6-1-1c-.2-.4-.4-1-.4-1.6s.1-1.2.4-1.7.6-.8 1-1 .9-.4 1.3-.4.7 0 .9.2c.3.1.6.4.8.7v-2.8h1v7.9h-1v-.8c-.2.3-.5.6-.8.7-.3.2-.7.3-1 .3Zm.1-.9c.6 0 1-.2 1.3-.6s.5-.9.5-1.6-.2-1.2-.5-1.6-.8-.6-1.3-.6-1 .2-1.3.6-.5.9-.5 1.6.2 1.2.5 1.6.7.6 1.3.6" class="st14"/><image xlink:href="2.png" width="280" height="185" transform="matrix(.7 0 0 .7 1287.4 53.5)"/><image xlink:href="1.png" width="280" height="185" transform="matrix(.7 0 0 .7 1084.6 53.5)"/></g></svg>