<?xml version="1.0" encoding="UTF-8"?>
<svg xmlns="http://www.w3.org/2000/svg" version="1.1" xmlns:xlink="http://www.w3.org/1999/xlink" viewBox="0 0 980 951">
  <!-- Generator: Adobe Illustrator 29.3.0, SVG Export Plug-In . SVG Version: 2.1.0 Build 146)  -->
  <defs>
    <style>
      .st0 {
        stroke: #d9d9d9;
      }

      .st0, .st1 {
        fill: none;
      }

      .st0, .st1, .st2 {
        stroke-miterlimit: 10;
      }

      .st3 {
        fill: url(#_Градієнт_без_назви_2516);
      }

      .st4 {
        fill: url(#_Градієнт_без_назви_2514);
      }

      .st5 {
        font-size: 10.4px;
      }

      .st5, .st6, .st7, .st8, .st9, .st10 {
        isolation: isolate;
      }

      .st5, .st9 {
        fill: #29292e;
        font-family: OpenSans-Bold, 'Open Sans';
        font-weight: 700;
      }

      .st1 {
        stroke: url(#_Градієнт_без_назви_251);
      }

      .st11 {
        fill: url(#_Градієнт_без_назви_254);
      }

      .st12 {
        fill: url(#_Градієнт_без_назви_333);
      }

      .st13 {
        fill: url(#_Градієнт_без_назви_332);
      }

      .st14, .st15, .st16, .st17, .st18 {
        fill: #fff;
      }

      .st19 {
        fill: url(#_Градієнт_без_назви_2522);
      }

      .st20 {
        fill: url(#_Градієнт_без_назви_2526);
      }

      .st21 {
        fill: url(#_Градієнт_без_назви_2524);
      }

      .st22 {
        fill: url(#_Градієнт_без_назви_2525);
      }

      .st23 {
        fill: url(#_Градієнт_без_назви_256);
      }

      .st2 {
        stroke: #000;
      }

      .st6 {
        fill: url(#_Градієнт_без_назви_252);
        opacity: .5;
      }

      .st24 {
        fill: url(#_Градієнт_без_назви_2520);
      }

      .st15 {
        fill-opacity: .6;
      }

      .st25 {
        fill: url(#_Градієнт_без_назви_2513);
      }

      .st26 {
        fill: url(#_Градієнт_без_назви_2510);
      }

      .st27 {
        fill: url(#_Градієнт_без_назви_257);
      }

      .st28 {
        fill: url(#_Градієнт_без_назви_2512);
      }

      .st29 {
        fill: url(#_Градієнт_без_назви_2511);
      }

      .st30 {
        fill: #3a3a3a;
      }

      .st31 {
        fill: url(#_Градієнт_без_назви_2518);
      }

      .st32 {
        fill: url(#_Градієнт_без_назви_2519);
      }

      .st33 {
        fill: url(#_Градієнт_без_назви_335);
      }

      .st8 {
        fill: #5f616e;
        font-family: OpenSans-Medium, 'Open Sans';
        font-size: 5.2px;
        font-weight: 500;
      }

      .st34 {
        fill: #454650;
      }

      .st35 {
        fill: url(#_Градієнт_без_назви_2523);
      }

      .st36 {
        fill: url(#_Градієнт_без_назви_258);
      }

      .st37 {
        fill: url(#_Градієнт_без_назви_259);
      }

      .st38 {
        fill: url(#_Градієнт_без_назви_336);
      }

      .st39 {
        display: none;
      }

      .st40 {
        fill: #1d1d1b;
      }

      .st41 {
        fill: url(#_Градієнт_без_назви_253);
      }

      .st42 {
        fill: url(#_Градієнт_без_назви_337);
      }

      .st43 {
        fill: url(#_Градієнт_без_назви_334);
      }

      .st9 {
        font-size: 7.8px;
      }

      .st44 {
        fill: url(#_Градієнт_без_назви_2517);
      }

      .st45 {
        fill: url(#_Градієнт_без_назви_33);
      }

      .st16 {
        stroke: #999f99;
        stroke-width: .3px;
      }

      .st46 {
        fill: url(#_Градієнт_без_назви_331);
      }

      .st47 {
        fill: url(#_Градієнт_без_назви_25);
      }

      .st17, .st18 {
        fill-opacity: .7;
      }

      .st10 {
        fill: url(#_Градієнт_без_назви_2527);
      }

      .st48 {
        fill: #f7f7f7;
      }

      .st49 {
        fill: url(#_Градієнт_без_назви_255);
      }

      .st18 {
        fill-rule: evenodd;
      }

      .st50 {
        fill: url(#_Градієнт_без_назви_2521);
      }

      .st51 {
        fill: url(#_Градієнт_без_назви_2515);
      }
    </style>
    <linearGradient id="_Градієнт_без_назви_25" data-name="Градієнт без назви 25" x1="889.5" y1="486.4" x2="893.9" y2="486.4" gradientTransform="translate(0 140)" gradientUnits="userSpaceOnUse">
      <stop offset="0" stop-color="#4fb5ff"/>
      <stop offset="1" stop-color="#0468ff"/>
    </linearGradient>
    <linearGradient id="_Градієнт_без_назви_251" data-name="Градієнт без назви 25" x1="687.7" y1="412.1" x2="938.7" y2="412.1" xlink:href="#_Градієнт_без_назви_25"/>
    <linearGradient id="_Градієнт_без_назви_252" data-name="Градієнт без назви 25" x1="687.6" y1="415.6" x2="938.6" y2="415.6" xlink:href="#_Градієнт_без_назви_25"/>
    <linearGradient id="_Градієнт_без_назви_253" data-name="Градієнт без назви 25" x1="67.2" y1="111" x2="72.7" y2="111" gradientTransform="translate(0 952) scale(1 -1)" xlink:href="#_Градієнт_без_назви_25"/>
    <linearGradient id="_Градієнт_без_назви_254" data-name="Градієнт без назви 25" x1="82.7" y1="97.3" x2="88.2" y2="97.3" gradientTransform="translate(0 952) scale(1 -1)" xlink:href="#_Градієнт_без_назви_25"/>
    <linearGradient id="_Градієнт_без_назви_255" data-name="Градієнт без назви 25" x1="315.2" y1="111" x2="320.6" y2="111" gradientTransform="translate(0 952) scale(1 -1)" xlink:href="#_Градієнт_без_назви_25"/>
    <linearGradient id="_Градієнт_без_назви_256" data-name="Градієнт без назви 25" x1="346.1" y1="109.6" x2="351.6" y2="109.6" gradientTransform="translate(0 952) scale(1 -1)" xlink:href="#_Градієнт_без_назви_25"/>
    <linearGradient id="_Градієнт_без_назви_257" data-name="Градієнт без назви 25" x1="361.7" y1="104.1" x2="367.1" y2="104.1" gradientTransform="translate(0 952) scale(1 -1)" xlink:href="#_Градієнт_без_назви_25"/>
    <linearGradient id="_Градієнт_без_назви_258" data-name="Градієнт без назви 25" x1="36.2" y1="164.3" x2="41.7" y2="164.3" gradientTransform="translate(0 952) scale(1 -1)" xlink:href="#_Градієнт_без_назви_25"/>
    <linearGradient id="_Градієнт_без_назви_259" data-name="Градієнт без назви 25" x1="51.7" y1="152" x2="57.2" y2="152" gradientTransform="translate(0 952) scale(1 -1)" xlink:href="#_Градієнт_без_назви_25"/>
    <linearGradient id="_Градієнт_без_назви_2510" data-name="Градієнт без назви 25" x1="98.2" y1="131.5" x2="103.6" y2="131.5" gradientTransform="translate(0 952) scale(1 -1)" xlink:href="#_Градієнт_без_назви_25"/>
    <linearGradient id="_Градієнт_без_назви_2511" data-name="Градієнт без назви 25" x1="113.7" y1="134.2" x2="119.2" y2="134.2" gradientTransform="translate(0 952) scale(1 -1)" xlink:href="#_Градієнт_без_назви_25"/>
    <linearGradient id="_Градієнт_без_назви_2512" data-name="Градієнт без назви 25" x1="129.2" y1="115.1" x2="134.7" y2="115.1" gradientTransform="translate(0 952) scale(1 -1)" xlink:href="#_Градієнт_без_назви_25"/>
    <linearGradient id="_Градієнт_без_назви_2513" data-name="Градієнт без назви 25" x1="144.7" y1="158.8" x2="150.1" y2="158.8" gradientTransform="translate(0 952) scale(1 -1)" xlink:href="#_Градієнт_без_назви_25"/>
    <linearGradient id="_Градієнт_без_назви_2514" data-name="Градієнт без назви 25" x1="160.2" y1="113.7" x2="165.7" y2="113.7" gradientTransform="translate(0 952) scale(1 -1)" xlink:href="#_Градієнт_без_назви_25"/>
    <linearGradient id="_Градієнт_без_назви_2515" data-name="Градієнт без назви 25" x1="175.7" y1="128.7" x2="181.2" y2="128.7" gradientTransform="translate(0 952) scale(1 -1)" xlink:href="#_Градієнт_без_назви_25"/>
    <linearGradient id="_Градієнт_без_назви_2516" data-name="Градієнт без назви 25" x1="191.2" y1="138.3" x2="196.7" y2="138.3" gradientTransform="translate(0 952) scale(1 -1)" xlink:href="#_Градієнт_без_назви_25"/>
    <linearGradient id="_Градієнт_без_назви_2517" data-name="Градієнт без назви 25" x1="206.7" y1="149.3" x2="212.1" y2="149.3" gradientTransform="translate(0 952) scale(1 -1)" xlink:href="#_Градієнт_без_назви_25"/>
    <linearGradient id="_Градієнт_без_назви_2518" data-name="Градієнт без назви 25" x1="222.2" y1="154.7" x2="227.7" y2="154.7" gradientTransform="translate(0 952) scale(1 -1)" xlink:href="#_Градієнт_без_назви_25"/>
    <linearGradient id="_Градієнт_без_назви_2519" data-name="Градієнт без назви 25" x1="237.7" y1="139.7" x2="243.2" y2="139.7" gradientTransform="translate(0 952) scale(1 -1)" xlink:href="#_Градієнт_без_назви_25"/>
    <linearGradient id="_Градієнт_без_назви_2520" data-name="Градієнт без назви 25" x1="253.2" y1="152" x2="258.6" y2="152" gradientTransform="translate(0 952) scale(1 -1)" xlink:href="#_Градієнт_без_назви_25"/>
    <linearGradient id="_Градієнт_без_назви_2521" data-name="Градієнт без назви 25" x1="268.7" y1="158.8" x2="274.2" y2="158.8" gradientTransform="translate(0 952) scale(1 -1)" xlink:href="#_Градієнт_без_назви_25"/>
    <linearGradient id="_Градієнт_без_назви_2522" data-name="Градієнт без назви 25" x1="284.2" y1="138.3" x2="289.7" y2="138.3" gradientTransform="translate(0 952) scale(1 -1)" xlink:href="#_Градієнт_без_назви_25"/>
    <linearGradient id="_Градієнт_без_назви_2523" data-name="Градієнт без назви 25" x1="299.6" y1="142.4" x2="305.1" y2="142.4" gradientTransform="translate(0 952) scale(1 -1)" xlink:href="#_Градієнт_без_назви_25"/>
    <linearGradient id="_Градієнт_без_назви_2524" data-name="Градієнт без назви 25" x1="330.7" y1="117.8" x2="336.2" y2="117.8" gradientTransform="translate(0 952) scale(1 -1)" xlink:href="#_Градієнт_без_назви_25"/>
    <linearGradient id="_Градієнт_без_назви_2525" data-name="Градієнт без назви 25" x1="377.2" y1="152" x2="382.7" y2="152" gradientTransform="translate(0 952) scale(1 -1)" xlink:href="#_Градієнт_без_назви_25"/>
    <linearGradient id="_Градієнт_без_назви_2526" data-name="Градієнт без назви 25" x1="392.6" y1="154.7" x2="398.1" y2="154.7" gradientTransform="translate(0 952) scale(1 -1)" xlink:href="#_Градієнт_без_назви_25"/>
    <linearGradient id="_Градієнт_без_назви_33" data-name="Градієнт без назви 33" x1="1076.9" y1="434.6" x2="1074.4" y2="436" gradientTransform="translate(1470.4 289.4) rotate(-180) scale(1 -1)" gradientUnits="userSpaceOnUse">
      <stop offset="0" stop-color="#ff4e7f"/>
      <stop offset="1" stop-color="#e6545a"/>
    </linearGradient>
    <linearGradient id="_Градієнт_без_назви_331" data-name="Градієнт без назви 33" x1="405.1" y1="588.2" x2="391.5" y2="574.1" gradientTransform="translate(0 140)" xlink:href="#_Градієнт_без_назви_33"/>
    <linearGradient id="_Градієнт_без_назви_332" data-name="Градієнт без назви 33" x1="1200.8" y1="426.1" x2="1198.4" y2="427.5" xlink:href="#_Градієнт_без_назви_33"/>
    <linearGradient id="_Градієнт_без_назви_333" data-name="Градієнт без назви 33" x1="281.1" y1="579.9" x2="267.5" y2="565.6" gradientTransform="translate(0 140)" xlink:href="#_Градієнт_без_назви_33"/>
    <linearGradient id="_Градієнт_без_назви_334" data-name="Градієнт без назви 33" x1="1324.9" y1="426.4" x2="1322.4" y2="427.8" xlink:href="#_Градієнт_без_назви_33"/>
    <linearGradient id="_Градієнт_без_назви_335" data-name="Градієнт без назви 33" x1="157.1" y1="580.1" x2="143.5" y2="565.9" gradientTransform="translate(0 140)" xlink:href="#_Градієнт_без_назви_33"/>
    <linearGradient id="_Градієнт_без_назви_336" data-name="Градієнт без назви 33" x1="1433.4" y1="415.2" x2="1430.9" y2="416.6" xlink:href="#_Градієнт_без_назви_33"/>
    <linearGradient id="_Градієнт_без_назви_337" data-name="Градієнт без назви 33" x1="48.6" y1="568.9" x2="35" y2="554.8" gradientTransform="translate(0 140)" xlink:href="#_Градієнт_без_назви_33"/>
    <linearGradient id="_Градієнт_без_назви_2527" data-name="Градієнт без назви 25" x1="853.9" y1="323.8" x2="918.3" y2="323.8" gradientTransform="matrix(1,0,0,1,0,0)" xlink:href="#_Градієнт_без_назви_25"/>
  </defs>
  <g id="_Шар_3" data-name="Шар_3" class="st39">
    <rect class="st2" x="-.2" y=".5" width="980.9" height="950"/>
  </g>
  <g id="_Шар_2" data-name="Шар_2">
    <g>
      <g>
        <image width="787" height="519" transform="translate(141.6 310.6) scale(.9)" xlink:href="../../../Pictures/Screenshots/Знімок екрана 2025-03-24 141817.png"/>
        <path class="st30" d="M160.6,282.7h689.5c10.5,0,19.1,8.6,19.1,19.1v8.7H141.6v-8.7c0-10.5,8.6-19.1,19.1-19.1Z"/>
      </g>
      <g>
        <path class="st16" d="M971.6,642.1c0,4.8-4.4,8.6-9.8,8.6h-294.3c-5.4,0-9.8-3.8-9.8-8.6v-183.1c0-4.8,4.4-8.6,9.8-8.6h294.3c5.4,0,9.8,3.8,9.8,8.6v183.1Z"/>
        <g class="st7">
          <text class="st9" transform="translate(673.3 475.7)"><tspan x="0" y="0">AI Learning Progress</tspan></text>
        </g>
        <g>
          <g>
            <g class="st7">
              <g class="st7">
                <text class="st8" transform="translate(735.5 628)"><tspan x="0" y="0">Timeline that visualizes how the AI improves over time</tspan></text>
              </g>
            </g>
            <rect class="st47" x="889.5" y="624.2" width="4.4" height="4.4"/>
          </g>
          <g>
            <path class="st1" d="M687.8,608.2c13.9-2.6,27.6-5.2,41.5-7.8,12-2.2,24-4.5,35.5-9.7,17.3-7.8,39.5-22.3,54.8-36.2,40.1-36.3,65.7-55.4,119-58.5"/>
            <path class="st6" d="M687.8,608.2c13.9-2.6,27.6-5.2,41.5-7.8,12-2.2,24-4.5,35.5-9.7,17.3-7.8,39.5-22.3,54.8-36.2,40.1-36.3,65.7-55.4,119-58.5v119.2h-251.1v-7.1"/>
            <polyline class="st0" points="687.6 496 687.6 615.2 941.8 615.2"/>
          </g>
        </g>
      </g>
      <g>
        <g id="_Шар_4">
          <path class="st16" d="M425.5,886c0,6.4-5.8,11.5-13,11.5H21.9c-7.2,0-13-5.1-13-11.5v-246.1c0-6.4,5.8-11.5,13-11.5h390.5c7.1,0,13,5.1,13,11.5v246.1h0Z"/>
        </g>
        <g id="_Шар_31" data-name="_Шар_3">
          <g class="st7">
            <text class="st5" transform="translate(27.2 663.7)"><tspan x="0" y="0">User Behavior Analysis</tspan></text>
          </g>
        </g>
        <g id="_Шар_6">
          <g>
            <rect class="st34" x="36.2" y="707" width="5.5" height="161.4"/>
            <rect class="st48" x="51.7" y="707" width="5.5" height="161.4"/>
            <rect class="st48" x="67.2" y="707" width="5.5" height="161.4"/>
            <rect class="st48" x="82.7" y="707" width="5.5" height="161.4"/>
            <rect class="st48" x="98.2" y="707" width="5.5" height="161.4"/>
            <rect class="st41" x="67.2" y="813.7" width="5.5" height="54.7"/>
            <rect class="st11" x="82.7" y="841" width="5.5" height="27.3"/>
            <rect class="st48" x="113.7" y="707" width="5.5" height="161.4"/>
            <rect class="st48" x="129.2" y="707" width="5.5" height="161.4"/>
            <rect class="st48" x="144.7" y="707" width="5.5" height="161.4"/>
            <rect class="st48" x="160.2" y="707" width="5.5" height="161.4"/>
            <rect class="st48" x="175.7" y="707" width="5.5" height="161.4"/>
            <rect class="st48" x="191.2" y="707" width="5.5" height="161.4"/>
            <rect class="st48" x="206.7" y="707" width="5.5" height="161.4"/>
            <rect class="st48" x="222.2" y="707" width="5.5" height="161.4"/>
            <rect class="st48" x="237.7" y="707" width="5.5" height="161.4"/>
            <rect class="st48" x="253.2" y="707" width="5.5" height="161.4"/>
            <rect class="st48" x="268.7" y="707" width="5.5" height="161.4"/>
            <rect class="st48" x="284.2" y="707" width="5.5" height="161.4"/>
            <rect class="st48" x="299.6" y="707" width="5.5" height="161.4"/>
            <rect class="st48" x="315.2" y="707" width="5.5" height="161.4"/>
            <rect class="st48" x="330.7" y="707" width="5.5" height="161.4"/>
            <rect class="st48" x="346.1" y="707" width="5.5" height="161.4"/>
            <rect class="st48" x="361.7" y="707" width="5.5" height="161.4"/>
            <rect class="st48" x="377.2" y="707" width="5.5" height="161.4"/>
            <rect class="st49" x="315.2" y="813.7" width="5.5" height="54.7"/>
            <rect class="st23" x="346.1" y="816.5" width="5.5" height="51.9"/>
            <rect class="st27" x="361.7" y="827.4" width="5.5" height="41"/>
            <rect class="st48" x="392.6" y="707" width="5.5" height="161.4"/>
            <rect class="st36" x="36.2" y="707" width="5.5" height="161.4"/>
            <rect class="st37" x="51.7" y="731.6" width="5.5" height="136.8"/>
            <rect class="st26" x="98.2" y="772.6" width="5.5" height="95.8"/>
            <rect class="st29" x="113.7" y="767.2" width="5.5" height="101.2"/>
            <rect class="st28" x="129.2" y="805.5" width="5.5" height="62.9"/>
            <rect class="st25" x="144.7" y="717.9" width="5.5" height="150.4"/>
            <rect class="st4" x="160.2" y="808.2" width="5.5" height="60.2"/>
            <rect class="st51" x="175.7" y="778.1" width="5.5" height="90.3"/>
            <rect class="st3" x="191.2" y="759" width="5.5" height="109.4"/>
            <rect class="st44" x="206.7" y="737.1" width="5.5" height="131.3"/>
            <rect class="st31" x="222.2" y="726.2" width="5.5" height="142.2"/>
            <rect class="st32" x="237.7" y="756.3" width="5.5" height="112.1"/>
            <rect class="st24" x="253.2" y="731.6" width="5.5" height="136.8"/>
            <rect class="st50" x="268.7" y="717.9" width="5.5" height="150.4"/>
            <rect class="st19" x="284.2" y="759" width="5.5" height="109.4"/>
            <rect class="st35" x="299.6" y="750.8" width="5.5" height="117.6"/>
            <rect class="st21" x="330.7" y="800" width="5.5" height="68.3"/>
            <rect class="st22" x="377.2" y="731.6" width="5.5" height="136.8"/>
            <rect class="st20" x="392.6" y="726.2" width="5.5" height="142.2"/>
            <g>
              <polygon class="st45" points="396.4 724.5 395.4 726.1 394.4 724.5 396.4 724.5"/>
              <path class="st46" d="M401.9,718.2c0,3.6-2.9,6.5-6.5,6.5s-6.5-2.9-6.5-6.5,2.9-6.5,6.5-6.5,6.5,2.9,6.5,6.5Z"/>
              <path class="st14" d="M395.4,714.2c.2,0,.4,0,.5.3l3.4,5.7c0,.2,0,.4,0,.6s-.3.3-.5.3h-6.8c-.2,0-.4,0-.5-.3s0-.4,0-.6l3.4-5.7c0-.2.3-.3.5-.3h0ZM395.4,716.1c-.2,0-.4.2-.4.4v1.7c0,.2.2.4.4.4s.4-.2.4-.4v-1.7c0-.2-.2-.4-.4-.4ZM395.9,719.7c0-.3-.2-.5-.5-.5s-.5.2-.5.5.2.5.5.5.5-.2.5-.5Z"/>
            </g>
            <g>
              <polygon class="st13" points="272.5 716.1 271.4 717.6 270.4 716.1 272.5 716.1"/>
              <path class="st12" d="M277.9,709.7c0,3.6-2.9,6.5-6.5,6.5s-6.5-2.9-6.5-6.5,2.9-6.5,6.5-6.5,6.5,2.9,6.5,6.5Z"/>
              <path class="st14" d="M271.4,705.7c.2,0,.4,0,.5.3l3.4,5.7c0,.2,0,.4,0,.6s-.3.3-.5.3h-6.8c-.2,0-.4,0-.5-.3s0-.4,0-.6l3.4-5.7c0-.2.3-.3.5-.3h0ZM271.4,707.7c-.2,0-.4.2-.4.4v1.7c0,.2.2.4.4.4s.4-.2.4-.4v-1.7c0-.2-.2-.4-.4-.4ZM271.9,711.2c0-.3-.2-.5-.5-.5s-.5.2-.5.5.2.5.5.5.5-.2.5-.5Z"/>
            </g>
            <g>
              <polygon class="st43" points="148.4 716.3 147.4 717.9 146.5 716.3 148.4 716.3"/>
              <path class="st33" d="M153.9,710c0,3.6-2.9,6.5-6.5,6.5s-6.5-2.9-6.5-6.5,2.9-6.5,6.5-6.5,6.5,2.9,6.5,6.5Z"/>
              <path class="st14" d="M147.5,706c.2,0,.4,0,.5.3l3.4,5.7c0,.2,0,.4,0,.6s-.3.3-.5.3h-6.8c-.2,0-.4,0-.5-.3s0-.4,0-.6l3.4-5.7c0-.2.3-.3.5-.3h0ZM147.5,708c-.2,0-.4.2-.4.4v1.7c0,.2.2.4.4.4s.4-.2.4-.4v-1.7c0-.2-.2-.4-.4-.4ZM148,711.5c0-.3-.2-.5-.5-.5s-.5.2-.5.5.2.5.5.5.5-.2.5-.5Z"/>
            </g>
            <g>
              <polygon class="st38" points="39.9 705.1 38.9 706.8 38 705.1 39.9 705.1"/>
              <path class="st42" d="M45.4,698.9c0,3.6-2.9,6.5-6.5,6.5s-6.5-2.9-6.5-6.5,2.9-6.5,6.5-6.5,6.5,2.9,6.5,6.5Z"/>
              <path class="st14" d="M39,694.9c.2,0,.4,0,.5.3l3.4,5.7c0,.2,0,.4,0,.6s-.3.3-.5.3h-6.8c-.2,0-.4,0-.5-.3s0-.4,0-.6l3.4-5.7c0-.2.3-.3.5-.3h0ZM39,696.8c-.2,0-.4.2-.4.4v1.7c0,.2.2.4.4.4s.4-.2.4-.4v-1.7c0-.2-.2-.4-.4-.4ZM39.5,700.3c0-.3-.2-.5-.5-.5s-.5.2-.5.5.2.5.5.5.5-.2.5-.5Z"/>
            </g>
          </g>
        </g>
      </g>
      <g>
        <rect class="st40" x="629.7" y="53.4" width="307" height="302.6" rx="9.3" ry="9.3" shape-rendering="crispEdges"/>
        <g>
          <rect class="st30" x="643.1" y="304.8" width="280.2" height="37.8" rx="9.3" ry="9.3"/>
          <rect class="st10" x="853.9" y="309.7" width="64.4" height="28.3" rx="9" ry="9"/>
          <path class="st14" d="M876.7,323.8v-1.1h4.9v1.1h-4.9ZM876.7,319.8v-1.1h5.2v1.1h-5.2ZM876.7,328.1v-1.1h5.3v1.1h-5.3ZM875.8,328.1v-9.5h1.2v9.5h-1.2Z"/>
          <path class="st14" d="M888.2,328.1v-4.7c0-.5-.1-.9-.4-1.2-.3-.3-.7-.4-1.1-.4s-.6,0-.8.2c-.3,0-.5.3-.7.5-.2.2-.3.5-.3.9l-.2-1.2c.1-.3.3-.6.5-.8.2-.2.5-.3.8-.4.3-.1.6-.2.9-.2.5,0,.9,0,1.2.3.4.2.7.5.9.9.2.4.3.8.3,1.4v4.7h-1.2ZM883.7,328.1v-7.1h1.2v7.1h-1.2Z"/>
          <path class="st14" d="M894.2,328.3c-.6,0-1.1-.1-1.6-.4s-.9-.7-1.2-1.2c-.3-.5-.4-1.2-.4-2s.2-1.5.5-2c.3-.6.7-1,1.2-1.3.5-.3,1-.4,1.6-.4s.8,0,1.2.3c.4.2.7.5,1,.8v-3.4h1.2v7.9c0,.3,0,.5,0,.8,0,.2,0,.5,0,.8h-1.2c0-.2,0-.3,0-.5,0-.2,0-.4,0-.5-.3.4-.6.7-1,.9-.4.2-.8.3-1.2.3ZM894.4,327.3c.7,0,1.2-.2,1.6-.7.4-.5.6-1.1.6-1.9s-.2-1.4-.6-1.9-.9-.7-1.6-.7-1.2.2-1.6.7c-.4.5-.6,1.1-.6,1.9s.2,1.4.6,1.9c.4.5.9.7,1.6.7Z"/>
          <path class="st18" d="M659.1,317.9c0-2.9,2.3-5.2,5.2-5.2s5.2,2.3,5.2,5.2v4.5c0,2.9-2.3,5.2-5.2,5.2s-5.2-2.3-5.2-5.2v-4.5ZM660.6,317.2h2.6v1.4h-2.7v3.1h2.7v1.4h-2.6c.3,1.8,1.9,3.1,3.8,3.1s3.8-1.7,3.8-3.8v-4.5c0-2.1-1.7-3.8-3.8-3.8s-3.4,1.3-3.8,3.1Z"/>
          <path class="st17" d="M659.8,334.5v-1.4h3.8v-2c-4.4-.4-7.9-4.1-7.9-8.6h1.4c0,4,3.2,7.2,7.2,7.2s7.2-3.2,7.2-7.2h1.4c0,4.5-3.5,8.2-7.9,8.6v2h3.8v1.4h-9Z"/>
          <path class="st18" d="M691.8,323.6c0-2.9,2.3-5.2,5.2-5.2s5.2,2.3,5.2,5.2-2.3,5.2-5.2,5.2-5.2-2.3-5.2-5.2ZM697.1,319.8c-2.1,0-3.8,1.7-3.8,3.8s1.7,3.8,3.8,3.8,3.8-1.7,3.8-3.8-1.7-3.8-3.8-3.8Z"/>
          <path class="st18" d="M693.3,313.8h7.5l1.8,2.7c.3.4.8.7,1.3.7h4v15h-21.8v-15h4c.5,0,1-.3,1.3-.7l1.8-2.7ZM694,315.3l-1.4,2.1c-.6.8-1.5,1.3-2.5,1.3h-2.6v12.2h18.9v-12.2h-2.6c-1,0-1.9-.5-2.5-1.3l-1.4-2.1h-6Z"/>
        </g>
        <g>
          <path class="st15" d="M751.8,79.3v-12.3h2.2l3.8,10.4h-.2l3.9-10.4h2.1v12.3h-1.5v-11.9h.7s-4.4,11.9-4.4,11.9h-1.4l-4.4-11.9h.7s0,11.9,0,11.9h-1.5Z"/>
          <path class="st15" d="M770.2,79.5c-.9,0-1.7-.2-2.3-.6-.6-.4-1.1-.9-1.5-1.6-.3-.7-.5-1.5-.5-2.5s.2-2.1.6-2.8c.4-.7,1-1.3,1.6-1.6.7-.4,1.3-.5,2.1-.5s1.4.2,2,.5c.6.3,1.1.8,1.4,1.5.4.7.5,1.5.5,2.6s0,.3,0,.4h0c0,.1-6.9.1-6.9.1v-1.2h5.9l-.6.7c0-.8,0-1.4-.3-1.9-.2-.5-.5-.8-.9-1.1-.4-.2-.8-.3-1.3-.3-.9,0-1.6.3-2.1,1-.5.6-.7,1.5-.7,2.5s.2,1.8.7,2.4c.5.6,1.2.9,2.1.9s1.1-.1,1.5-.4c.4-.3.7-.6.8-1.1h1.6c-.2.9-.7,1.6-1.4,2.1-.7.5-1.5.7-2.5.7Z"/>
          <path class="st15" d="M780.3,79.5c-.9,0-1.7-.2-2.3-.6-.6-.4-1.1-.9-1.5-1.6-.3-.7-.5-1.5-.5-2.5s.2-2.1.6-2.8c.4-.7,1-1.3,1.6-1.6.7-.4,1.3-.5,2.1-.5s1.4.2,2,.5c.6.3,1.1.8,1.4,1.5.4.7.5,1.5.5,2.6s0,.3,0,.4h0c0,.1-6.9.1-6.9.1v-1.2h5.9l-.6.7c0-.8,0-1.4-.2-1.9-.2-.5-.5-.8-.9-1.1-.4-.2-.8-.3-1.3-.3-.9,0-1.6.3-2.1,1-.5.6-.7,1.5-.7,2.5s.2,1.8.7,2.4c.5.6,1.2.9,2.1.9s1.1-.1,1.5-.4c.4-.3.6-.6.8-1.1h1.6c-.2.9-.7,1.6-1.4,2.1-.7.5-1.5.7-2.5.7Z"/>
          <path class="st15" d="M789.7,79.4c-1,0-1.7-.3-2.1-.8-.4-.5-.6-1.3-.6-2.2v-8.5h1.5v8.4c0,.6,0,1,.3,1.3.2.3.6.5,1.2.5s.5,0,.6,0c.2,0,.2,0,.2,0v1.3s-.1,0-.4,0c-.3,0-.5,0-.8,0ZM785.2,71.5v-1.4h5.8v1.4h-5.8Z"/>
          <path class="st15" d="M793.5,68.6c-.3,0-.5,0-.7-.3-.2-.2-.3-.4-.3-.7s0-.5.3-.7c.2-.2.4-.3.7-.3s.5,0,.7.3c.2.2.3.4.3.7s0,.5-.3.7c-.2.2-.4.3-.7.3ZM792.7,79.3v-9.2h1.5v9.2h-1.5Z"/>
          <path class="st15" d="M802.5,79.3v-6c0-.7-.2-1.2-.6-1.5-.4-.3-.9-.5-1.5-.5s-.7,0-1.1.2c-.3.1-.6.3-.8.6-.2.3-.3.7-.3,1.2l-.3-1.6c.2-.4.4-.7.7-1,.3-.3.7-.4,1.1-.6.4-.1.8-.2,1.2-.2.6,0,1.1.1,1.6.4.5.2.8.6,1.1,1.1.3.5.4,1.1.4,1.8v6.1h-1.5ZM796.7,79.3v-9.2h1.5v9.2h-1.5Z"/>
          <path class="st15" d="M810.4,83c-.8,0-1.5-.1-2.1-.4-.6-.3-1.1-.6-1.4-1-.4-.4-.6-.9-.6-1.4h1.5c.2.5.5.9,1,1.2.5.3,1.1.4,1.7.4s1.5-.2,1.9-.6c.5-.4.7-1,.7-1.8v-1.6c-.4.5-.8.9-1.3,1.2s-1,.4-1.6.4-1.4-.2-2-.5c-.6-.3-1.1-.8-1.5-1.5-.4-.7-.6-1.5-.6-2.5s.2-1.9.6-2.6c.4-.7,1-1.2,1.6-1.6.7-.4,1.3-.5,2-.5s1.1.1,1.6.4c.5.2.9.6,1.2,1v-1.2h1.5v9.1c0,.8-.2,1.5-.5,2-.3.6-.8,1-1.5,1.3-.6.3-1.4.5-2.2.5ZM810.4,77.8c.9,0,1.6-.3,2.1-.9.5-.6.8-1.4.8-2.4s-.2-1.8-.8-2.4c-.5-.6-1.2-.9-2-.9s-1.6.3-2.1.9c-.5.6-.8,1.4-.8,2.4s.3,1.8.7,2.4c.5.6,1.2.9,2,.9Z"/>
        </g>
        <image width="280" height="185" transform="translate(644.2 102.1)" xlink:href="1.png"/>
      </g>
    </g>
  </g>
</svg>