<svg xmlns="http://www.w3.org/2000/svg" id="_Шар_1" version="1.1" viewBox="0 0 640 320"><defs><linearGradient id="_Градієнт_без_назви" x1="446.4" x2="453.8" y1="182.4" y2="182.4" data-name="Градієнт без назви" gradientTransform="translate(0 140)" gradientUnits="userSpaceOnUse"><stop offset="0" stop-color="#4fb5ff"/><stop offset="1" stop-color="#0468ff"/></linearGradient><linearGradient id="_Градієнт_без_назви_2" x1="105.6" x2="529.4" y1="56.8" y2="56.8" data-name="Градієнт без назви 2" gradientTransform="translate(0 140)" gradientUnits="userSpaceOnUse"><stop offset="0" stop-color="#4fb5ff"/><stop offset="1" stop-color="#0468ff"/></linearGradient><linearGradient id="_Градієнт_без_назви_3" x1="105.3" x2="529.4" y1="62.8" y2="62.8" data-name="Градієнт без назви 3" gradientTransform="translate(0 140)" gradientUnits="userSpaceOnUse"><stop offset="0" stop-color="#4fb5ff"/><stop offset="1" stop-color="#0468ff"/></linearGradient><clipPath id="clippath"><path d="M0 0h640v320H0z" style="fill:none"/></clipPath><style>.st6{isolation:isolate}</style></defs><g id="_Шар_11" style="clip-path:url(#clippath)"><rect width="408.2" height="338.4" x="115.6" rx="9" ry="9" style="fill:#999f99;fill-opacity:.2"/><rect width="440.7" height="366.6" x="99.3" y="12.9" rx="12" ry="12" style="fill:#5b6b5f;fill-opacity:.3"/><path d="M410.2 58.8c0-2.7 2.2-4.8 4.8-4.8h59.3c2.7 0 4.8 2.2 4.8 4.8v16.1c0 2.7-2.2 4.8-4.8 4.8H415c-2.7 0-4.8-2.2-4.8-4.8z" style="fill:#fff;fill-opacity:0"/></g><path d="M585.1 395.4c0 9.2-7.4 16.6-16.6 16.6H71.4c-9.2 0-16.6-7.4-16.6-16.6V41.6c0-9.2 7.4-16.6 16.6-16.6h497.1c9.1 0 16.6 7.4 16.6 16.6z" style="stroke:#999f99;stroke-width:.3px;fill:#fff"/><text class="st6" style="isolation:isolate;fill:#29292e;font-family:OpenSans-Bold,&quot;Open Sans&quot;;font-size:13.2px;font-weight:700" transform="translate(81.1 67.8)"><tspan x="0" y="0">AI Learning Progress</tspan></text><g class="st6"><text class="st6" style="fill:#5f616e;font-family:OpenSans-Medium,&quot;Open Sans&quot;;font-size:8.8px;font-weight:500;isolation:isolate" transform="translate(186.2 325)"><tspan x="0" y="0">Timeline that visualizes how the AI improves over time</tspan></text></g><path d="M446.4 318.7h7.4v7.4h-7.4z" style="fill:url(#_Градієнт_без_назви)"/><path d="M105.7 291.6c23.4-4.4 46.7-8.7 70.1-13.1 20.2-3.8 40.6-7.6 60-16.4 29.2-13.2 66.7-37.7 92.6-61.1 67.7-61.3 111-93.6 201-98.9" style="fill:none;stroke-miterlimit:10;stroke:url(#_Градієнт_без_назви_2)"/><path d="M105.7 291.6c23.4-4.4 46.7-8.7 70.1-13.1 20.2-3.8 40.6-7.6 60-16.4 29.2-13.2 66.7-37.7 92.6-61.1 67.7-61.3 111-93.6 201-98.9v201.4H105.3v-12" style="isolation:isolate;fill:url(#_Градієнт_без_назви_3);opacity:.5"/><path d="M105.3 102.1v201.4h429.4" style="stroke:#d9d9d9;fill:none;stroke-miterlimit:10"/></svg>