<svg xmlns="http://www.w3.org/2000/svg" xmlns:xlink="http://www.w3.org/1999/xlink" id="_Шар_1" data-name="Шар_1" version="1.1" viewBox="0 0 1692 677.9"><defs><linearGradient id="_Градієнт_без_назви" x1="3013" x2="2997" y1="-158.2" y2="-138.3" data-name="Градієнт без назви" gradientTransform="matrix(-1 0 0 1 4183 433)" gradientUnits="userSpaceOnUse"><stop offset="0" stop-color="#4fb5ff"/><stop offset="1" stop-color="#0468ff"/></linearGradient><linearGradient id="_Градієнт_без_назви_2" x1="674.3" x2="1208" y1="252" y2="252" data-name="Градієнт без назви 2" gradientTransform="matrix(1 0 0 -1 0 681)" gradientUnits="userSpaceOnUse"><stop offset="0" stop-color="#4fb5ff"/><stop offset="1" stop-color="#0468ff"/></linearGradient><linearGradient id="_Градієнт_без_назви_6" x1="347" x2="211.9" y1="100.2" y2="190.6" data-name="Градієнт без назви 6" gradientTransform="matrix(1 0 0 -1 0 681)" gradientUnits="userSpaceOnUse"><stop offset="0" stop-color="#ff4e7f"/><stop offset="1" stop-color="#e6545a"/></linearGradient><linearGradient xlink:href="#_Градієнт_без_назви_6" id="_Градієнт_без_назви_61" x1="186.4" x2="116.5" y1="131" y2="203.5" data-name="Градієнт без назви 6"/><linearGradient id="_Градієнт_без_назви_4" x1="1407.1" x2="1272" y1="491.2" y2="581.6" data-name="Градієнт без назви 4" gradientTransform="matrix(1 0 0 -1 0 681)" gradientUnits="userSpaceOnUse"><stop offset="0" stop-color="#ff947f"/><stop offset="1" stop-color="#e6c75a"/></linearGradient><linearGradient xlink:href="#_Градієнт_без_назви_4" id="_Градієнт_без_назви_41" x1="1246.6" x2="1176.7" y1="522.1" y2="594.5" data-name="Градієнт без назви 4"/><clipPath id="clippath"><rect width="986.4" height="555.9" x="339.3" y="74.8" class="st24" rx="7.6" ry="7.6"/></clipPath><clipPath id="clippath-1"><rect width="22.8" height="22.8" x="358.3" y="139.4" class="st24" rx="3.8" ry="3.8"/></clipPath><clipPath id="clippath-2"><circle cx="369.7" cy="600.3" r="11.4" class="st24"/></clipPath><clipPath id="clippath-3"><rect width="803.9" height="403.1" x="460.9" y="529.2" class="st24" rx="7.6" ry="7.6"/></clipPath><clipPath id="clippath-4"><rect width="315.2" height="204.9" y="377" class="st24" rx="7" ry="7"/></clipPath><clipPath id="clippath-5"><rect width="206.1" height="18.8" x="18" y="420.4" class="st24" rx="3.4" ry="3.4"/></clipPath><style>.st0{fill:#e8e9ed}.st10,.st2,.st7,.st9{isolation:isolate}.st10,.st2{font-family:OpenSans-Bold,&quot;Open Sans&quot;;font-weight:700;font-size:11.2px}.st11,.st12,.st13,.st14,.st15,.st16,.st2{fill:#fff}.st17{fill:#29292e}.st10,.st18,.st9{fill:#5f616e}.st24,.st25,.st28,.st30{fill:none}.st33{fill:#1d2a29}.st14,.st33,.st34{fill-opacity:.6}.st16,.st35,.st37,.st39,.st40{fill-rule:evenodd}.st41{fill:#bac4c0}.st39,.st41,.st42{fill-opacity:.3}.st43{fill:#894e6d}.st44{fill:#e9e2d4}.st45{fill:#b9c6c3}.st45,.st46{fill-opacity:.2}.st9{font-family:OpenSans-Medium,&quot;Open Sans&quot;;font-size:16.2px;font-weight:500}.st12,.st28,.st30{stroke:#999f99;stroke-opacity:.2}.st49{fill:#fb8569}.st35,.st50{fill:#002b31}.st25{stroke-opacity:.1;stroke:#8a8a7b}.st58{fill:#002d33}.st13,.st60{fill-opacity:0}.st62{fill:#5955ff}.st37{fill:#e1e3e3}.st67{fill:#c7d1cf;fill-opacity:.1}.st68{display:none}.st39,.st42{fill:#f1f3f2}.st69{fill:#ceddec}.st34{fill:#f2f7f7}.st71{fill:#8a744a}.st72{fill:#cdcbff}.st75{fill:#02891e}.st46{fill:#999f99}.st15,.st16{fill-opacity:.7}.st40{fill:#304037;fill-opacity:.5}.st79{opacity:.5}.st80{fill:#32607f}.st30{stroke-width:.4px}</style></defs><g id="_Шар_6"><path d="M1275.3 649c0 16-12 28.9-26.9 28.9H441.9C427 677.9 415 665 415 649V32.4c0-16 12-28.9 26.9-28.9h806.4c14.8 0 26.9 12.9 26.9 28.9V649Z" class="st12"/><g class="st7"><text class="st7" style="isolation:isolate;font-family:OpenSans-Bold,&quot;Open Sans&quot;;font-weight:700;font-size:21.4px;fill:#29292e" transform="translate(461.1 75.2)"><tspan x="0" y="0">Create New Allert</tspan></text></g><rect width="533.7" height="57.7" x="674.3" y="142.7" class="st12" rx="10.5" ry="10.5"/><g class="st7"><text class="st9" transform="translate(461.1 175.8)"><tspan x="0" y="0">Event Name</tspan></text></g><g class="st7"><text class="st9" transform="translate(462.3 290.9)"><tspan x="0" y="0">Select Event Types</tspan></text></g><g class="st7"><text class="st9" transform="translate(697.9 175.8)"><tspan x="0" y="0">Email Freddie</tspan></text></g><path d="M1208 616.3c0 9-10.2 16.3-22.9 16.3h-488c-12.6 0-22.9-7.3-22.9-16.3V272.4c0-9 10.2-16.3 22.9-16.3h488c12.6 0 22.9 7.3 22.9 16.3z" class="st12"/><text class="st7" style="isolation:isolate;font-family:OpenSans-Medium,&quot;Open Sans&quot;;font-size:16.2px;font-weight:500" transform="translate(697.9 294)"><tspan x="0" y="0">Select Event Types</tspan></text><path d="M1180 295.2c-2.3 0-3.2-1.6-2.1-3.6l3.9-6.8c1.1-2 3-2 4.2 0l3.9 6.8c1.1 2 .2 3.6-2.1 3.6z" style="fill:url(#_Градієнт_без_назви)"/><path d="M674.3 409.1H1208v39.8H674.3z" style="fill:url(#_Градієнт_без_назви_2)"/><g class="st7"><text class="st9" transform="translate(698.7 349)"><tspan x="0" y="0">Fraud activity detected</tspan></text></g><g class="st7"><text class="st9" transform="translate(698.7 391.3)"><tspan x="0" y="0">Crawler Activity Detected</tspan></text></g><text class="st7" style="isolation:isolate;fill:#fff;font-family:OpenSans-Medium,&quot;Open Sans&quot;;font-size:16.2px;font-weight:500" transform="translate(698.7 433.7)"><tspan x="0" y="0">Anomalous User-Agent Behavior</tspan></text><g class="st7"><text class="st9" transform="translate(698.7 476)"><tspan x="0" y="0">IP Geolocation Mismatch</tspan></text></g><g class="st7"><text class="st9" transform="translate(698.7 518.3)"><tspan x="0" y="0">Fake Referrer Detection</tspan></text></g><g class="st7"><text class="st9" transform="translate(698.7 560.7)"><tspan x="0" y="0">Traffic Spikes from Proxy Servers</tspan></text></g><g class="st7"><text class="st9" transform="translate(698.7 603)"><tspan x="0" y="0">Bot Traffic Detected</tspan></text></g><path d="M674.3 315.5H1208" style="fill:none;stroke:#d9d9d9;stroke-width:.2px;stroke-miterlimit:10"/></g><rect width="533.7" height="120.8" x="64.9" y="437.7" class="st12" rx="10.5" ry="10.5"/><path d="M205.5 464.6c0 .6 0 1.2-.3 1.7-.1.6-.4 1-.7 1.3q-.45.6-1.2.9c-.75.3-1 .3-1.7.3s-1.3 0-1.7-.3c-.4-.1-.9-.4-1.2-.9s-.6-.9-.7-1.3c-.1-.6-.3-1.2-.3-1.7s0-1.6.4-2.2c.3-.6.7-1.2 1.3-1.5s1.3-.6 2.2-.6 1.6.1 2.2.6c.6.3 1 .9 1.3 1.5s.4 1.3.4 2.2m-5.9 0c0 .6 0 1 .1 1.5 0 .4.4.7.7 1s.7.3 1.2.3.9 0 1.2-.3.6-.6.7-1c0-.4.1-.9.1-1.5 0-.9-.1-1.6-.4-2s-.9-.7-1.6-.7-.9 0-1.2.3-.6.6-.7 1c0 .4-.1.9-.1 1.5ZM210.6 462.3c.7 0 1.3.3 1.7.9s.6 1.3.6 2.5 0 1.3-.3 1.7c-.1.4-.4.9-.9 1.2-.3.3-.7.4-1.3.4h-.7c-.1 0-.4-.1-.6-.3-.1 0-.3-.3-.4-.4v3.3H207v-9h1.5l.3.9c0-.1.3-.3.4-.4.1 0 .3-.3.6-.3h.7v-.4Zm-.6 1.3c-.3 0-.6 0-.7.1-.1 0-.3.3-.4.6v2.1c0 .3.1.4.4.6.1 0 .4.3.7.3s.4 0 .6-.3c.1-.1.3-.3.4-.6v-1c0-.6 0-1-.3-1.5-.1-.3-.4-.4-.9-.4h.1ZM216.9 462.3c.6 0 1 0 1.5.3s.7.6 1 1 .3.9.3 1.6v.9h-4.1c0 .4.1.9.4 1.2s.6.4 1.2.4h1.2c.4 0 .7-.1 1-.4v1.3c-.3.1-.6.3-1 .3h-1.2c-.4 0-1.2 0-1.6-.3s-.9-.6-1.2-1-.4-1-.4-1.7 0-1.3.4-1.9c.3-.4.6-.9 1-1.2s1-.4 1.6-.4h-.1Zm0 1.1c-.3 0-.6 0-.9.3-.3.1-.3.6-.4 1h2.5v-.7c0-.1-.3-.3-.4-.4s-.4-.1-.7-.1ZM224.6 462.3h.6v1.6h-1.3c-.1 0-.4.1-.6.3-.1 0-.3.3-.4.4v3.9h-1.7v-6.3h1.3l.3 1c0-.1.3-.4.4-.6.1-.1.4-.3.6-.4.3 0 .4-.1.7-.1h.1ZM229 462.3c.9 0 1.5.1 1.9.6.4.4.7.9.7 1.6v4.2h-1.2l-.3-.9c-.1.3-.3.4-.6.6-.1 0-.4.3-.6.3h-.9c-.3 0-.7 0-1-.1-.3 0-.6-.3-.7-.6s-.3-.7-.3-1.2c0-.7.3-1.2.7-1.5s1.2-.4 2-.6h1v-.3c0-.3 0-.6-.3-.7-.1-.1-.4-.3-.7-.3h-.9q-.45 0-.9.3l-.6-1.2c.3-.1.7-.3 1.2-.4.4 0 .9-.1 1.3-.1v.3Zm.8 3.5h-.7c-.6 0-.9 0-1.2.3s-.3.4-.3.7 0 .4.3.6.3.1.6.1c.4 0 .7 0 .9-.3.3-.3.4-.6.4-.9v-.6ZM236 467.4h1.2v1.3c-.1 0-.4.1-.7.1h-.9c-.3 0-.7 0-1-.1-.3 0-.6-.3-.7-.6s-.3-.7-.3-1.3v-3.1h-.9v-.7l.9-.6.4-1.3h1.2v1.3h1.7v1.3h-1.7v3.1c0 .3 0 .4.1.6 0 0 .3.1.6.1h.1ZM239.2 459.9c.3 0 .4 0 .7.1s.3.3.3.7 0 .6-.3.7c-.1 0-.4.1-.7.1s-.4 0-.7-.1c-.1 0-.3-.3-.3-.7s0-.6.3-.7c.1 0 .4-.1.7-.1m.8 2.5v6.3h-1.7v-6.3zM247.6 465.5c0 .6 0 1-.1 1.5 0 .4-.3.7-.6 1s-.6.4-1 .6-.7.1-1.3.1-.9 0-1.2-.1-.7-.3-1-.6-.4-.6-.6-1-.3-.9-.3-1.5 0-1.3.4-1.7.6-.9 1-1.2 1-.4 1.6-.4 1.2 0 1.6.4c.4.3.9.6 1 1.2s.4 1 .4 1.7Zm-4.4 0v1c0 .3.3.4.4.6s.4.1.7.1.6 0 .7-.1.3-.3.4-.6v-2c0-.3-.3-.4-.4-.6s-.4-.1-.7-.1c-.4 0-.7.1-1 .4-.1.3-.3.7-.3 1.5h.1ZM252.6 462.3c.7 0 1.2.1 1.6.6.4.4.6 1 .6 1.7v4.1h-1.7v-3.6c0-.4 0-.7-.3-1-.1-.3-.4-.3-.7-.3-.6 0-.9.1-1 .6-.1.3-.3.9-.3 1.6v2.9h-1.7v-6.3h1.3l.3.9c0-.1.3-.4.4-.6s.4-.3.7-.3h.7v-.3ZM259.7 460.5h2.6c1.2 0 1.9.1 2.5.4s.9.9.9 1.6 0 .6-.1.9c0 .3-.3.4-.4.6-.1.1-.4.3-.7.3.3 0 .6.1.7.3.3 0 .4.3.6.6s.1.6.1 1 0 .9-.4 1.3-.6.6-1 .9c-.4.1-1 .3-1.6.3h-3.1v-8.2Zm1.7 3.2h1c.4 0 .9 0 1-.3.1-.1.3-.4.3-.7s0-.6-.3-.7-.6-.1-1.2-.1h-.9v1.9Zm0 1.3v2.2h1.2c.6 0 .9 0 1.2-.3s.3-.4.3-.9v-.6c0-.1-.3-.3-.4-.3h-2.2ZM269 468.7h-1.7V460h1.7zM276.4 465.5c0 .6 0 1-.1 1.5 0 .4-.3.7-.6 1s-.6.4-1 .6-.7.1-1.3.1-.9 0-1.2-.1-.7-.3-1-.6-.4-.6-.6-1-.3-.9-.3-1.5 0-1.3.4-1.7.6-.9 1-1.2 1-.4 1.6-.4 1.2 0 1.6.4c.4.3.9.6 1 1.2s.4 1 .4 1.7Zm-4.3 0v1c0 .3.3.4.4.6s.4.1.7.1.6 0 .7-.1.3-.3.4-.6v-2c0-.3-.3-.4-.4-.6s-.4-.1-.7-.1c-.4 0-.7.1-1 .4-.1.3-.3.7-.3 1.5h.1ZM280.4 468.8c-.6 0-1.2 0-1.6-.3s-.7-.6-1-1-.3-1-.3-1.9 0-1.5.4-1.9c.3-.4.6-.9 1-1 .4-.3 1-.3 1.6-.3h1.2q.45 0 .9.3l-.4 1.3c-.3 0-.6-.1-.7-.3s-.4 0-.7 0-.6 0-.7.1c-.1 0-.3.3-.4.6 0 .3-.1.6-.1 1s0 .7.1 1c0 .3.3.4.4.6.1 0 .4.1.7.1h1c.3 0 .6-.3.9-.4v1.5c-.3.1-.6.3-.9.3h-1l-.3.3ZM285.4 459.9v5.4c0-.1.3-.3.3-.4s.3-.3.4-.4l1.7-1.9h1.9l-2.5 2.8 2.6 3.5h-2l-1.7-2.5-.7.6v1.9h-1.7v-8.7h1.7ZM293.5 462.3c.6 0 1 0 1.5.3s.7.6 1 1 .3.9.3 1.6v.9h-4.1c0 .4.1.9.4 1.2s.6.4 1.2.4h1.2c.4 0 .7-.1 1-.4v1.3c-.3.1-.6.3-1 .3h-1.2c-.4 0-1.2 0-1.6-.3s-.9-.6-1.2-1-.4-1-.4-1.7 0-1.3.4-1.9c.3-.4.6-.9 1-1.2s1-.4 1.6-.4h-.1Zm0 1.1c-.3 0-.6 0-.9.3-.3.1-.3.6-.4 1h2.5v-.7c0-.1-.3-.3-.4-.4s-.4-.1-.7-.1ZM299.7 468.8c-.7 0-1.3-.3-1.7-.9s-.7-1.3-.7-2.5.3-1.9.7-2.5 1-.9 1.7-.9h.7c.3 0 .4.1.6.3.1 0 .3.3.4.4v-3.3h1.7v8.7h-1.3l-.3-.9c0 .1-.3.3-.4.4-.1 0-.3.3-.6.3h-.7v.7Zm.6-1.4c.4 0 .7 0 1-.4.1-.3.3-.7.3-1.3 0-.7 0-1.3-.3-1.6-.1-.3-.6-.4-1-.4s-.7.1-.9.4-.3.7-.3 1.5 0 1 .3 1.5c.1.3.6.4.9.4ZM307.6 466.2v-1.3h4.8v1.3zM323.6 468.7h-1.7v-3.5h-3.2v3.5H317v-8.2h1.7v3.2h3.2v-3.2h1.7zM326.4 459.9c.3 0 .4 0 .7.1s.3.3.3.7 0 .6-.3.7c-.1 0-.4.1-.7.1s-.4 0-.7-.1c-.1 0-.3-.3-.3-.7s0-.6.3-.7c.1 0 .4-.1.7-.1m.8 2.5v6.3h-1.7v-6.3zM330.9 471.4c-.9 0-1.6-.1-2-.4s-.7-.7-.7-1.3 0-.7.3-1 .6-.4 1-.6c-.1 0-.3-.1-.4-.4 0-.1-.1-.3-.1-.6s0-.4.1-.6.3-.3.6-.4c-.3 0-.6-.4-.7-.7s-.3-.7-.3-1.2 0-.9.3-1.2.4-.6.9-.7c.4-.1.9-.3 1.5-.3h3.3v.9l-1 .3s.1.3.1.4v.4c0 .7-.3 1.2-.7 1.6s-1.2.6-1.9.6h-.6s-.1 0-.1.1v.3c0 .1.1.1.3.1h1.6c.7 0 1.2.1 1.6.4.3.3.6.7.6 1.3s-.3 1.3-.9 1.7-1.5.6-2.6.6v.6Zm.1-1.1h1c.3 0 .6-.1.7-.3.1 0 .3-.3.3-.4v-.4c0-.1-.3-.1-.4-.1h-2.2c-.1 0-.3.1-.4.3s-.1.3-.1.4c0 .3 0 .4.3.6.3 0 .6.1 1 .1h-.1Zm.3-4.7c.3 0 .6 0 .7-.3.1-.1.3-.4.3-.9s0-.7-.3-.9c-.1-.1-.4-.3-.7-.3s-.6 0-.7.3c-.1.1-.3.4-.3.9s0 .6.3.9.4.3.7.3M337.3 459.9v3.2c0-.1.3-.4.4-.6.1 0 .4-.3.6-.3h.7c.4 0 .9 0 1.2.3s.6.4.7.7.3.7.3 1.3v4.1h-1.7V465c0-.4 0-.7-.3-1s-.4-.3-.7-.3-.6 0-.9.3-.3.4-.4.7v4.1h-1.7v-8.7h1.9ZM348.6 460.5c.7 0 1.3 0 1.9.3.4.1.9.4 1 .9.3.3.3.9.3 1.3s0 .7-.1 1c0 .3-.3.6-.6.7s-.4.3-.7.4l2.5 3.6H351l-1.9-3.2h-.9v3.2h-1.7v-8.2h2.3-.1Zm-.1 1.3h-.6v2.2h.6c.6 0 1 0 1.3-.3s.4-.4.4-.9 0-.7-.4-.9-.7-.3-1.3-.3ZM354.6 459.9c.3 0 .4 0 .7.1s.3.3.3.7 0 .6-.3.7c-.1 0-.4.1-.7.1s-.4 0-.7-.1c-.1 0-.3-.3-.3-.7s0-.6.3-.7.4-.1.7-.1m.9 2.5v6.3h-1.7v-6.3zM361.6 466.8c0 .4 0 .7-.3 1-.1.3-.4.6-.9.7-.4.1-.9.3-1.5.3h-1.2c-.3 0-.6-.1-1-.3V467c.3.1.7.3 1.2.4.4 0 .7.1 1 .1s.6 0 .7-.1c0 0 .1-.3.1-.4v-.3s-.1-.1-.4-.3c-.1 0-.4-.3-.9-.4-.4-.1-.7-.3-1-.4s-.4-.4-.6-.6c0-.3-.1-.6-.1-.9 0-.6.3-1 .7-1.3s1-.4 1.7-.4h1.2c.3 0 .7.1 1.2.4l-.6 1.2c-.3 0-.6-.3-.9-.3h-1.5s-.1.1-.1.3v.3s.1.1.4.3c.1 0 .4.3.9.4.3 0 .7.3.9.4.3.1.4.3.6.6 0 .3.1.6.1.9h.1ZM364.6 459.9v5.4c0-.1.3-.3.3-.4s.3-.3.4-.4l1.7-1.9h1.9l-2.5 2.8 2.6 3.5h-2l-1.7-2.5-.7.6v1.9h-1.7v-8.7h1.7Z" class="st17"/><path d="M204.9 487c0 .6 0 1.2-.3 1.7s-.4.9-.7 1.3q-.45.45-1.2.9c-.4.1-1 .3-1.6.3s-1.2 0-1.6-.3c-.4-.1-.9-.4-1.2-.9-.3-.3-.6-.7-.7-1.3s-.3-1-.3-1.7 0-1.5.4-2.2.7-1 1.2-1.5c.6-.3 1.2-.6 2-.6s1.5.1 2 .4 1 .9 1.2 1.5c.3.6.4 1.3.4 2.2h.3Zm-6.2 0c0 .7 0 1.3.3 1.7.1.4.4.9.9 1.2s.9.4 1.5.4 1.2 0 1.5-.4c.4-.3.7-.6.9-1.2.1-.4.3-1 .3-1.7s-.1-1.9-.6-2.5c-.4-.6-1.2-.9-2-.9s-1.2 0-1.5.4-.7.6-.9 1.2c-.1.4-.3 1-.3 1.7ZM209.5 484.8c.7 0 1.3.3 1.7.7s.7 1.3.7 2.3 0 1.3-.3 1.7-.4.9-.9 1c-.4.3-.9.3-1.3.3h-.9c-.3 0-.4-.1-.6-.3-.1 0-.3-.3-.4-.4v3.6h-.9v-8.6h.7v.9h.1c0-.1.3-.3.4-.4s.4-.3.6-.3h.9v-.6Zm-.2.9c-.4 0-.7 0-1 .3s-.4.4-.6.7c0 .3-.1.7-.1 1.2 0 .7 0 1.2.1 1.5 0 .3.3.6.6.7s.6.3 1 .3.7 0 .9-.3.4-.4.6-.9.1-.7.1-1.2c0-.7 0-1.3-.4-1.7-.3-.4-.7-.6-1.3-.6zM215.7 484.8c.4 0 .9 0 1.3.3l.9.9c.1.4.3.9.3 1.5v.6h-4.1c0 .7.1 1.2.6 1.6s.9.6 1.5.6h1q.45 0 .9-.3v.7c-.3 0-.6.3-.9.3h-1c-.6 0-1 0-1.5-.3s-.7-.6-1-1-.3-1-.3-1.6 0-1.2.3-1.6.6-.9.9-1 .9-.4 1.5-.4h-.3Zm0 .8c-.4 0-.9.1-1.2.4s-.4.7-.6 1.3h3.2c0-.3 0-.7-.1-.9 0-.3-.3-.4-.4-.6-.1-.1-.4-.3-.9-.3ZM222.4 484.8h.7v.9h-1.5c-.1 0-.4.3-.6.4s-.3.4-.4.6v4.1h-.9v-6h.7v1.2c0-.3.3-.4.4-.6.1-.1.4-.3.6-.4.3 0 .4-.1.7-.1h.1ZM226.5 484.8c.7 0 1.3.1 1.6.4s.6.9.6 1.6v4.1h-.7v-.9h-.1c-.1.1-.3.4-.6.6-.1.1-.4.3-.6.3h-.9c-.3 0-.7 0-1-.1-.3 0-.4-.3-.7-.6-.1-.3-.3-.6-.3-1s.3-1 .7-1.3 1.2-.4 2.2-.6h1v-.4c0-.6 0-.9-.3-1s-.6-.3-.9-.3h-.9q-.45 0-.9.3l-.3-.7c.3 0 .6-.3.9-.3s.7-.1 1.2-.1m1.2 3.2h-.9c-.7 0-1.3.1-1.6.4-.3.1-.4.6-.4.9s0 .6.3.7c.1.1.4.3.9.3s1-.1 1.3-.4.4-.7.4-1.3zM232.5 490.4h.9v.7h-1c-.3 0-.6 0-.9-.1-.3 0-.4-.3-.6-.6s-.3-.6-.3-1.2v-3.5h-.9v-.4l.9-.3.3-1.3h.6v1.5h1.7v.7h-1.7v3.5c0 .4 0 .6.3.9.1.1.4.3.7.3ZM234.9 482.8h.4s.1.3.1.4 0 .3-.1.4c0 0-.3.1-.4.1s-.3 0-.4-.1-.1-.3-.1-.4 0-.3.1-.4zm.5 2.2v6h-.9v-6zM242.4 488c0 .4 0 .9-.1 1.3 0 .4-.3.7-.6 1s-.6.4-.9.6c-.3 0-.7.1-1.2.1s-.7 0-1.2-.1c-.3 0-.6-.3-.9-.6s-.4-.6-.6-1c0-.4-.1-.9-.1-1.3s0-1.2.3-1.6.6-.9 1-1c.4-.3.9-.3 1.5-.3s1 0 1.5.4c.4.3.7.6 1 1s.3 1 .3 1.6Zm-4.6 0c0 .4 0 .9.1 1.3s.3.6.6.9c.3.1.6.3 1 .3s.7 0 1-.3c.3-.1.4-.4.6-.9s.1-.7.1-1.3 0-.9-.1-1.2c0-.3-.3-.6-.6-.9-.3-.1-.6-.3-1-.3s-1 .1-1.3.6-.4 1-.4 1.7ZM246.7 484.8c.7 0 1.3.1 1.6.6.3.3.6.9.6 1.6v3.9h-.9v-3.8c0-.4 0-.9-.3-1.2s-.6-.4-1-.4-1.2.1-1.5.6c-.3.4-.4.9-.4 1.6v3.1h-.9v-6h.7v.9h.1c0-.1.3-.4.4-.6.1 0 .4-.3.7-.3h.7ZM259.2 485.7h-1.5v5.2h-.9v-5.2h-1v-.4l1-.3v-.4c0-.4 0-.9.3-1.2s.4-.6.6-.7c.3-.1.6-.3 1-.3h1l-.3.7h-.9c-.3 0-.6 0-.7.3s-.3.6-.3 1v.4h1.5v.7h.1ZM263 484.8h.7v.9h-1.5c-.1 0-.4.3-.6.4s-.3.4-.4.6v4.1h-.9v-6h.7v1.2c0-.3.3-.4.4-.6.1-.1.4-.3.6-.4.3 0 .4-.1.7-.1h.1ZM270 488c0 .4 0 .9-.1 1.3 0 .4-.3.7-.6 1s-.6.4-.9.6c-.3 0-.7.1-1.2.1s-.7 0-1.2-.1c-.3 0-.6-.3-.9-.6s-.4-.6-.6-1c0-.4-.1-.9-.1-1.3s0-1.2.3-1.6.6-.9 1-1c.4-.3.9-.3 1.5-.3s1 0 1.5.4c.4.3.7.6 1 1s.3 1 .3 1.6Zm-4.5 0c0 .4 0 .9.1 1.3s.3.6.6.9c.3.1.6.3 1 .3s.7 0 1-.3c.3-.1.4-.4.6-.9s.1-.7.1-1.3 0-.9-.1-1.2c0-.3-.3-.6-.6-.9-.3-.1-.6-.3-1-.3s-1 .1-1.3.6-.4 1-.4 1.7ZM278.2 484.8c.7 0 1.2.1 1.5.6s.4.9.4 1.6v3.9h-.9V487c0-.4 0-.9-.3-1-.1-.3-.6-.3-.9-.3s-1 .1-1.3.4-.4.9-.4 1.5v3.3h-.9v-4.8c0-.3-.3-.4-.4-.4s-.4-.1-.7-.1-.7 0-1 .3c-.3.1-.4.4-.6.7s-.1.7-.1 1.2v3.2h-.9v-6h.7v.9h.1c0-.1.3-.4.4-.6.1 0 .4-.3.6-.3h.7c.4 0 .9 0 1.2.3.3.1.6.4.7.7.1-.3.4-.6.9-.7s.7-.3 1.2-.3ZM287.1 484.8c.7 0 1.3.1 1.6.4s.6.9.6 1.6v4.1h-.7v-.9h-.1c-.1.1-.3.4-.6.6-.1.1-.4.3-.6.3h-.9c-.3 0-.7 0-1-.1-.3 0-.4-.3-.7-.6-.1-.3-.3-.6-.3-1s.3-1 .7-1.3 1.2-.4 2.2-.6h1v-.4c0-.6 0-.9-.3-1s-.6-.3-.9-.3h-.9q-.45 0-.9.3l-.3-.7c.3 0 .6-.3.9-.3s.7-.1 1.2-.1m1.1 3.2h-.9c-.7 0-1.3.1-1.6.4-.3.1-.4.6-.4.9s0 .6.3.7c.1.1.4.3.9.3s1-.1 1.3-.4.4-.7.4-1.3zM293.9 484.8c.7 0 1.3.1 1.6.6.3.3.6.9.6 1.6v3.9h-.9v-3.8c0-.4 0-.9-.3-1.2s-.6-.4-1-.4-1.2.1-1.5.6c-.3.4-.4.9-.4 1.6v3.1h-.9v-6h.7v.9h.1c0-.1.3-.4.4-.6.1 0 .4-.3.7-.3h.7ZM305.7 485v6h-.7v-.9h-.1c0 .1-.3.4-.4.6-.1 0-.4.3-.7.3h-.7c-.4 0-.9 0-1.2-.3-.3-.1-.6-.4-.7-.7s-.3-.7-.3-1.2v-3.9h.9v3.8c0 .4 0 .9.3 1.2s.6.4 1 .4.7 0 1-.3c.3-.1.4-.4.6-.7 0-.3.1-.7.1-1.2v-3.2h1ZM310.5 484.8c.7 0 1.3.1 1.6.6.3.3.6.9.6 1.6v3.9h-.9v-3.8c0-.4 0-.9-.3-1.2s-.6-.4-1-.4-1.2.1-1.5.6c-.3.4-.4.9-.4 1.6v3.1h-.9v-6h.7v.9h.1c0-.1.3-.4.4-.6.1 0 .4-.3.7-.3h.7ZM319.4 485v6h-.7v-.9h-.1c0 .1-.3.4-.4.6-.1 0-.4.3-.7.3h-.7c-.4 0-.9 0-1.2-.3-.3-.1-.6-.4-.7-.7s-.3-.7-.3-1.2v-3.9h.9v3.8c0 .4 0 .9.3 1.2s.6.4 1 .4.7 0 1-.3c.3-.1.4-.4.6-.7 0-.3.1-.7.1-1.2v-3.2h1ZM325.2 489.3c0 .4 0 .7-.3 1-.1.3-.4.4-.9.6s-.7.1-1.3.1h-1c-.3 0-.6-.1-.7-.3v-.9c.3 0 .6.3.9.3s.7.1 1 .1c.6 0 .9 0 1.2-.3s.3-.4.3-.7v-.4c0-.1-.3-.3-.4-.4-.1 0-.6-.3-.9-.4-.4 0-.7-.3-1-.4-.3 0-.4-.3-.6-.6s-.3-.4-.3-.9.1-.9.6-1.2.9-.4 1.6-.4h1q.45 0 .9.3l-.3.7c-.3 0-.6-.1-.7-.3h-.9c-.4 0-.7 0-1 .1-.3 0-.3.3-.3.6s0 .3.1.4c0 0 .3.3.4.3.3 0 .6.3.9.4.4 0 .7.3 1 .4s.4.3.6.6c.1.1.3.4.3.9v.3ZM331.6 485v6h-.7v-.9h-.1c0 .1-.3.4-.4.6-.1 0-.4.3-.7.3h-.7c-.4 0-.9 0-1.2-.3-.3-.1-.6-.4-.7-.7s-.3-.7-.3-1.2v-3.9h.9v3.8c0 .4 0 .9.3 1.2s.6.4 1 .4.7 0 1-.3c.3-.1.4-.4.6-.7 0-.3.1-.7.1-1.2v-3.2h1ZM335.7 484.8c.7 0 1.3.1 1.6.4s.6.9.6 1.6v4.1h-.7v-.9h-.1c-.1.1-.3.4-.6.6-.1.1-.4.3-.6.3h-.9c-.3 0-.7 0-1-.1-.3 0-.4-.3-.7-.6-.1-.3-.3-.6-.3-1s.3-1 .7-1.3 1.2-.4 2.2-.6h1v-.4c0-.6 0-.9-.3-1s-.6-.3-.9-.3h-.9q-.45 0-.9.3l-.3-.7c.3 0 .6-.3.9-.3s.7-.1 1.2-.1m1.1 3.2h-.9c-.7 0-1.3.1-1.6.4-.3.1-.4.6-.4.9s0 .6.3.7c.1.1.4.3.9.3s1-.1 1.3-.4.4-.7.4-1.3zM340.6 490.9h-.9v-8.4h.9zM346.3 490.9h-.9v-8.4h.9zM353.3 488c0 .4 0 .9-.1 1.3s-.3.7-.6 1-.6.4-.9.6c-.3 0-.7.1-1.2.1s-.7 0-1.2-.1c-.3 0-.6-.3-.9-.6s-.4-.6-.6-1c0-.4-.1-.9-.1-1.3s0-1.2.3-1.6.6-.9 1-1 .9-.3 1.5-.3 1 0 1.5.4c.4.3.7.6 1 1s.3 1 .3 1.6Zm-4.5 0c0 .4 0 .9.1 1.3 0 .3.3.6.6.9.3.1.6.3 1 .3s.7 0 1-.3c.3-.1.4-.4.6-.9 0-.3.1-.7.1-1.3s0-.9-.1-1.2c0-.3-.3-.6-.6-.9-.3-.1-.6-.3-1-.3s-1 .1-1.3.6-.4 1-.4 1.7ZM357.2 491.1c-.6 0-1 0-1.5-.3s-.7-.6-1-1-.3-1-.3-1.7 0-1.3.3-1.7.6-.7 1-1 .9-.3 1.5-.3h.9c.3 0 .4 0 .7.3l-.3.7c-.1 0-.4 0-.6-.1h-.7c-.4 0-.7 0-1 .3s-.4.4-.6.7c0 .3-.1.7-.1 1.3s0 .9.1 1.2c0 .3.3.6.6.7s.6.3 1 .3h.9c.3 0 .4-.1.7-.3v.9c-.1 0-.4.1-.7.3h-.9ZM362.5 484.8c.7 0 1.3.1 1.6.4s.6.9.6 1.6v4.1h-.7v-.9h-.1c-.1.1-.3.4-.6.6-.1.1-.4.3-.6.3h-.9c-.3 0-.7 0-1-.1-.3 0-.4-.3-.7-.6-.1-.3-.3-.6-.3-1s.3-1 .7-1.3 1.2-.4 2.2-.6h1v-.4c0-.6 0-.9-.3-1s-.6-.3-.9-.3h-.9q-.45 0-.9.3l-.3-.7c.3 0 .6-.3.9-.3s.7-.1 1.2-.1m1.1 3.2h-.9c-.7 0-1.3.1-1.6.4-.3.1-.4.6-.4.9s0 .6.3.7c.1.1.4.3.9.3s1-.1 1.3-.4.4-.7.4-1.3zM368.3 490.4h.9v.7h-1c-.3 0-.6 0-.9-.1-.3 0-.4-.3-.6-.6s-.3-.6-.3-1.2v-3.5h-.9v-.4l.9-.3.3-1.3h.6v1.5h1.7v.7h-1.7v3.5c0 .4 0 .6.3.9s.4.3.7.3ZM370.9 482.8h.4s.1.3.1.4 0 .3-.1.4-.3.1-.4.1-.3 0-.4-.1-.1-.3-.1-.4 0-.3.1-.4zm.4 2.2v6h-.9v-6zM378.3 488c0 .4 0 .9-.1 1.3 0 .4-.3.7-.6 1s-.6.4-.9.6c-.3 0-.7.1-1.2.1s-.7 0-1.2-.1c-.3 0-.6-.3-.9-.6s-.4-.6-.6-1c0-.4-.1-.9-.1-1.3s0-1.2.3-1.6.6-.9 1-1c.4-.3.9-.3 1.5-.3s1 0 1.5.4c.4.3.7.6 1 1s.3 1 .3 1.6Zm-4.5 0c0 .4 0 .9.1 1.3 0 .3.3.6.6.9.3.1.6.3 1 .3s.7 0 1-.3c.3-.1.4-.4.6-.9s.1-.7.1-1.3 0-.9-.1-1.2c0-.3-.3-.6-.6-.9-.3-.1-.6-.3-1-.3s-1 .1-1.3.6-.4 1-.4 1.7ZM382.7 484.8c.7 0 1.3.1 1.6.6.3.3.6.9.6 1.6v3.9h-.9v-3.8c0-.4 0-.9-.3-1.2s-.6-.4-1-.4-1.2.1-1.5.6c-.3.4-.4.9-.4 1.6v3.1h-.9v-6h.7v.9h.1c0-.1.3-.4.4-.6.1 0 .4-.3.7-.3h.7ZM394.5 490.9l-1-3.5v-1.6 1.6l-1.2 3.5h-1l-1.6-6h.9l.9 3.3c0 .1 0 .4.1.6s0 .4 0 .6v.4-1.6l1.2-3.5h1l1 3.5c0 .1 0 .3.1.6v1-1c0-.1 0-.4.1-.7l.9-3.3h.9l-1.6 6h-1 .3ZM400.6 484.8c.7 0 1.3.1 1.6.4s.6.9.6 1.6v4.1h-.7v-.9h-.3c-.1.1-.3.4-.6.6-.1.1-.4.3-.6.3h-.9c-.3 0-.7 0-1-.1s-.4-.3-.7-.6c-.1-.3-.3-.6-.3-1s.3-1 .7-1.3 1.2-.4 2.2-.6h1v-.4c0-.6 0-.9-.3-1s-.6-.3-.9-.3h-.9q-.45 0-.9.3l-.3-.7c.3 0 .6-.3.9-.3s.7-.1 1.2-.1h.1Zm1.2 3.2h-.9c-.7 0-1.3.1-1.6.4-.3.1-.4.6-.4.9s0 .6.3.7c.1.1.4.3.9.3s1-.1 1.3-.4.4-.7.4-1.3zM408.3 489.3c0 .4 0 .7-.3 1-.1.3-.4.4-.9.6s-.7.1-1.3.1h-1c-.3 0-.6-.1-.7-.3v-.9c.3 0 .6.3.9.3s.7.1 1 .1c.6 0 .9 0 1.2-.3s.3-.4.3-.7v-.4l-.4-.4c-.1-.1-.6-.3-.9-.4-.4 0-.7-.3-1-.4-.3 0-.4-.3-.6-.6s-.3-.4-.3-.9.1-.9.6-1.2.9-.4 1.6-.4h1q.45 0 .9.3l-.3.7c-.3 0-.4-.1-.7-.3h-.9c-.4 0-.7 0-1 .1-.3 0-.3.3-.3.6s0 .3.1.4c0 0 .3.3.4.3s.6.3.9.4c.4 0 .7.3 1 .4s.4.3.6.6c.1.1.3.4.3.9v.3ZM413.5 482.5v3.5c.1-.3.4-.4.7-.7s.7-.3 1.2-.3c.7 0 1.3.3 1.7.7.4.6.7 1.3.7 2.3s0 1.3-.3 1.7-.4.9-.9 1c-.4.3-.9.3-1.3.3s-.9 0-1.2-.3-.6-.4-.7-.6v.9h-.9v-8.4h.9Zm1.8 3.2c-.4 0-.7 0-1 .3-.3.1-.4.4-.6.7 0 .3-.1.7-.1 1.3 0 .7 0 1.3.4 1.7.3.4.7.6 1.3.6s1-.1 1.3-.6c.3-.4.4-1 .4-1.7s0-1.3-.4-1.7c-.3-.4-.7-.6-1.3-.6M420.4 490.9h-.9v-8.4h.9zM427.5 488c0 .4 0 .9-.1 1.3 0 .4-.3.7-.6 1s-.6.4-.9.6c-.3 0-.7.1-1.2.1s-.7 0-1.2-.1c-.3 0-.6-.3-.9-.6s-.4-.6-.6-1c0-.4-.1-.9-.1-1.3s0-1.2.3-1.6.6-.9 1-1c.4-.3.9-.3 1.5-.3s1 0 1.5.4c.4.3.7.6 1 1s.3 1 .3 1.6Zm-4.6 0c0 .4 0 .9.1 1.3 0 .3.3.6.6.9.3.1.6.3 1 .3s.7 0 1-.3c.3-.1.4-.4.6-.9s.1-.7.1-1.3 0-.9-.1-1.2c0-.3-.3-.6-.6-.9-.3-.1-.6-.3-1-.3s-1 .1-1.3.6-.4 1-.4 1.7ZM431.5 491.1c-.6 0-1 0-1.5-.3s-.7-.6-1-1-.3-1-.3-1.7 0-1.3.3-1.7.6-.7 1-1 .9-.3 1.5-.3h.9c.3 0 .4 0 .7.3l-.3.7c-.1 0-.4 0-.6-.1h-.7c-.4 0-.7 0-1 .3s-.4.4-.6.7c0 .3-.1.7-.1 1.3s0 .9.1 1.2.3.6.6.7.6.3 1 .3h.9c.3 0 .4-.1.7-.3v.9c-.1 0-.4.1-.7.3h-.9ZM435.2 482.5v5.5s.1-.3.3-.4.3-.3.4-.4l2-2.2h1l-2.3 2.6 2.6 3.3h-1l-2-2.8-.7.7v2.2h-.9v-8.4h.9-.3ZM442.5 484.8c.4 0 .9 0 1.3.3l.9.9c.3.3.3.9.3 1.5v.6h-4.1c0 .7.1 1.2.6 1.6.3.4.9.6 1.5.6h1q.45 0 .9-.3v.7c-.3 0-.6.3-.9.3h-1c-.6 0-1 0-1.5-.3s-.7-.6-1-1-.3-1-.3-1.6 0-1.2.3-1.6c.1-.4.6-.9.9-1s.9-.4 1.5-.4h-.3Zm0 .8c-.4 0-.9.1-1.2.4s-.4.7-.6 1.3h3.2c0-.3 0-.7-.1-.9 0-.3-.3-.4-.4-.6s-.4-.3-.9-.3ZM448.6 491.1c-.7 0-1.3-.3-1.7-.7-.4-.6-.7-1.3-.7-2.3s.3-1.7.7-2.3 1-.7 1.7-.7h.9c.3 0 .4.1.6.3.1 0 .3.3.4.4v-3.2h.9v8.4h-.7v-.9h-.1c0 .1-.3.3-.4.4-.1 0-.4.3-.6.3h-.9v.3Zm.2-.7c.6 0 1-.1 1.3-.6.3-.3.4-.9.4-1.6 0-.9 0-1.5-.4-1.9-.3-.4-.7-.6-1.3-.6s-1 .1-1.3.6c-.3.4-.4 1-.4 1.7s0 1.3.4 1.7c.3.4.7.6 1.3.6ZM458.8 485.7h-1.5v5.2h-.9v-5.2h-1v-.4l1-.3v-.4c0-.4 0-.9.3-1.2s.4-.6.6-.7c.3-.1.6-.3 1-.3h1l-.3.7h-.9c-.3 0-.6 0-.7.3s-.3.6-.3 1v.4h1.5v.7h.1ZM465.1 488c0 .4 0 .9-.1 1.3 0 .4-.3.7-.6 1s-.6.4-.9.6c-.3 0-.7.1-1.2.1s-.7 0-1.2-.1c-.3 0-.6-.3-.9-.6s-.4-.6-.6-1c0-.4-.1-.9-.1-1.3s0-1.2.3-1.6.6-.9 1-1c.4-.3.9-.3 1.5-.3s1 0 1.5.4c.4.3.7.6 1 1s.3 1 .3 1.6Zm-4.5 0c0 .4 0 .9.1 1.3 0 .3.3.6.6.9.3.1.6.3 1 .3s.7 0 1-.3c.3-.1.4-.4.6-.9s.1-.7.1-1.3 0-.9-.1-1.2c0-.3-.3-.6-.6-.9-.3-.1-.6-.3-1-.3s-1 .1-1.3.6-.4 1-.4 1.7ZM469.4 484.8h.7v.9h-1.5c-.1 0-.4.3-.6.4s-.3.4-.4.6v4.1h-.9v-6h.7v1.2c0-.3.3-.4.4-.6.1-.1.4-.3.6-.4s.4-.1.7-.1h.1ZM478 489.3c0 .4 0 .7-.3 1-.1.3-.4.4-.9.6s-.7.1-1.3.1h-1c-.3 0-.6-.1-.7-.3v-.9c.3 0 .6.3.9.3s.7.1 1 .1c.6 0 .9 0 1.2-.3s.3-.4.3-.7v-.4l-.4-.4c-.1-.1-.6-.3-.9-.4-.4 0-.7-.3-1-.4-.3 0-.4-.3-.6-.6s-.3-.4-.3-.9.1-.9.6-1.2.9-.4 1.6-.4h1q.45 0 .9.3l-.3.7c-.3 0-.4-.1-.7-.3h-.9c-.4 0-.7 0-1 .1-.3 0-.3.3-.3.6s0 .3.1.4c0 0 .3.3.4.3s.6.3.9.4c.4 0 .7.3 1 .4s.4.3.6.6c.1.1.3.4.3.9v.3ZM481.8 484.8c.4 0 .9 0 1.3.3l.9.9c.3.3.3.9.3 1.5v.6h-4.1c0 .7.1 1.2.6 1.6.3.4.9.6 1.5.6h1q.45 0 .9-.3v.7c-.3 0-.6.3-.9.3h-1c-.6 0-1 0-1.5-.3s-.7-.6-1-1-.3-1-.3-1.6 0-1.2.3-1.6c.1-.4.6-.9.9-1s.9-.4 1.5-.4h-.3Zm-.1.8c-.4 0-.9.1-1.2.4s-.4.7-.6 1.3h3.2c0-.3 0-.7-.1-.9 0-.3-.3-.4-.4-.6s-.4-.3-.9-.3ZM488.1 491.1c-.6 0-1 0-1.5-.3s-.7-.6-1-1-.3-1-.3-1.7 0-1.3.3-1.7.6-.7 1-1 .9-.3 1.5-.3h.9c.3 0 .4 0 .7.3l-.3.7c-.1 0-.4 0-.6-.1h-.7c-.4 0-.7 0-1 .3s-.4.4-.6.7c0 .3-.1.7-.1 1.3s0 .9.1 1.2.3.6.6.7.6.3 1 .3h.9c.3 0 .4-.1.7-.3v.9c-.1 0-.4.1-.7.3h-.9ZM495.9 485v6h-.7v-.9h-.1c0 .1-.3.4-.4.6-.1 0-.4.3-.7.3h-.7c-.4 0-.9 0-1.2-.3-.3-.1-.6-.4-.7-.7s-.3-.7-.3-1.2v-3.9h.9v3.8c0 .4 0 .9.3 1.2s.6.4 1 .4.7 0 1-.3c.3-.1.4-.4.6-.7 0-.3.1-.7.1-1.2v-3.2h1ZM500.6 484.8h.7v.9h-1.5c-.1 0-.4.3-.6.4s-.3.4-.4.6v4.1h-.9v-6h.7v1.2c0-.3.3-.4.4-.6.1-.1.4-.3.6-.4s.4-.1.7-.1h.1ZM502.9 482.8h.4s.1.3.1.4 0 .3-.1.4-.3.1-.4.1-.3 0-.4-.1-.1-.3-.1-.4 0-.3.1-.4zm.5 2.2v6h-.9v-6zM507.2 490.4h.9v.7h-1c-.3 0-.6 0-.9-.1-.3 0-.4-.3-.6-.6s-.3-.6-.3-1.2v-3.5h-.9v-.4l.9-.3.3-1.3h.6v1.5h1.7v.7h-1.7v3.5c0 .4 0 .6.3.9s.4.3.7.3ZM508.3 485h1l1.3 3.5c0 .1.1.4.1.6s0 .3.1.6v.4c0-.1 0-.4.3-.7q0-.45.3-.9l1.3-3.5h1l-2.6 6.8c0 .4-.3.7-.4 1s-.4.4-.7.6c-.3.1-.6.3-1 .3h-.7v-.7h1.2c.1 0 .3-.1.4-.4s.3-.3.3-.6l.3-.9-2.3-6h.1ZM520.4 484.8h.7v.9h-1.5c-.1 0-.4.3-.6.4s-.3.4-.4.6v4.1h-.9v-6h.7v1.2c0-.3.3-.4.4-.6.1-.1.4-.3.6-.4s.4-.1.7-.1h.1ZM524.6 484.8c.4 0 .9 0 1.3.3l.9.9c.3.3.3.9.3 1.5v.6H523c0 .7.1 1.2.6 1.6.3.4.9.6 1.5.6h1q.45 0 .9-.3v.7c-.3 0-.6.3-.9.3h-1c-.6 0-1 0-1.5-.3s-.7-.6-1-1-.3-1-.3-1.6 0-1.2.3-1.6c.1-.4.6-.9.9-1s.9-.4 1.5-.4h-.3Zm0 .8c-.4 0-.9.1-1.2.4s-.4.7-.6 1.3h3.2c0-.3 0-.7-.1-.9 0-.3-.3-.4-.4-.6s-.4-.3-.9-.3ZM530.7 484.8c.7 0 1.3.1 1.6.4s.6.9.6 1.6v4.1h-.7v-.9h-.3c-.1.1-.3.4-.6.6-.1.1-.4.3-.6.3h-.9c-.3 0-.7 0-1-.1s-.4-.3-.7-.6c-.1-.3-.3-.6-.3-1s.3-1 .7-1.3 1.2-.4 2.2-.6h1v-.4c0-.6 0-.9-.3-1s-.6-.3-.9-.3h-.9q-.45 0-.9.3l-.3-.7c.3 0 .6-.3.9-.3s.7-.1 1.2-.1h.1Zm1.3 3.2h-.9c-.7 0-1.3.1-1.6.4-.3.1-.4.6-.4.9s0 .6.3.7c.1.1.4.3.9.3s1-.1 1.3-.4.4-.7.4-1.3zM538.6 489.3c0 .4 0 .7-.3 1-.1.3-.4.4-.9.6s-.7.1-1.3.1h-1c-.3 0-.6-.1-.7-.3v-.9c.3 0 .6.3.9.3s.7.1 1 .1c.6 0 .9 0 1.2-.3s.3-.4.3-.7v-.4l-.4-.4c-.1-.1-.6-.3-.9-.4-.4 0-.7-.3-1-.4-.3 0-.4-.3-.6-.6s-.3-.4-.3-.9.1-.9.6-1.2.9-.4 1.6-.4h1q.45 0 .9.3l-.3.7c-.3 0-.4-.1-.7-.3h-.9c-.4 0-.7 0-1 .1-.3 0-.3.3-.3.6s0 .3.1.4c0 0 .3.3.4.3s.6.3.9.4c.4 0 .7.3 1 .4s.4.3.6.6c.1.1.3.4.3.9v.3ZM545.1 488c0 .4 0 .9-.1 1.3 0 .4-.3.7-.6 1s-.6.4-.9.6c-.3 0-.7.1-1.2.1s-.7 0-1.2-.1c-.3 0-.6-.3-.9-.6s-.4-.6-.6-1c0-.4-.1-.9-.1-1.3s0-1.2.3-1.6.6-.9 1-1c.4-.3.9-.3 1.5-.3s1 0 1.5.4c.4.3.7.6 1 1s.3 1 .3 1.6Zm-4.5 0c0 .4 0 .9.1 1.3 0 .3.3.6.6.9.3.1.6.3 1 .3s.7 0 1-.3c.3-.1.4-.4.6-.9s.1-.7.1-1.3 0-.9-.1-1.2c0-.3-.3-.6-.6-.9-.3-.1-.6-.3-1-.3s-1 .1-1.3.6-.4 1-.4 1.7ZM549.7 484.8c.7 0 1.3.1 1.6.6.3.3.6.9.6 1.6v3.9h-.9v-3.8c0-.4 0-.9-.3-1.2s-.6-.4-1-.4-1.2.1-1.5.6c-.3.4-.4.9-.4 1.6v3.1h-.9v-6h.7v.9h.1c0-.1.3-.4.4-.6.1 0 .4-.3.7-.3h.7ZM557.5 489.3c0 .4 0 .7-.3 1-.1.3-.4.4-.9.6s-.7.1-1.3.1h-1c-.3 0-.6-.1-.7-.3v-.9c.3 0 .6.3.9.3s.7.1 1 .1c.6 0 .9 0 1.2-.3s.3-.4.3-.7v-.4l-.4-.4c-.1-.1-.6-.3-.9-.4-.4 0-.7-.3-1-.4-.3 0-.4-.3-.6-.6s-.3-.4-.3-.9.1-.9.6-1.2.9-.4 1.6-.4h1q.45 0 .9.3l-.3.7c-.3 0-.4-.1-.7-.3h-.9c-.4 0-.7 0-1 .1-.3 0-.3.3-.3.6s0 .3.1.4c0 0 .3.3.4.3s.6.3.9.4c.4 0 .7.3 1 .4s.4.3.6.6c.1.1.3.4.3.9v.3ZM558.8 490.4c0-.3 0-.4.1-.6 0 0 .3-.1.4-.1s.3 0 .4.1c0 0 .1.3.1.6s0 .4-.1.6-.3.1-.4.1-.3 0-.4-.1-.1-.3-.1-.6" class="st18"/><path d="M317.3 536.7c7.6 0 13.7-5.1 13.7-11.5s-6.1-11.5-13.7-11.5H210.5c-7.6 0-13.7 5.1-13.7 11.5s6.1 11.5 13.7 11.5z" style="fill:url(#_Градієнт_без_назви_6)"/><g class="st7"><text class="st2" transform="translate(218.6 528.6)"><tspan x="0" y="0">Investigate Now</tspan></text></g><path d="M480.5 536.7c7.6 0 13.7-5.1 13.7-11.5s-6.1-11.5-13.7-11.5H373.7c-7.6 0-13.7 5.1-13.7 11.5s6.1 11.5 13.7 11.5z" class="st0"/><g class="st7"><text class="st10" transform="translate(371.6 528.6)"><tspan x="0" y="0">Whitelist &amp; Approve</tspan></text></g><path d="M169.9 498.4c0 18.3-14.8 33.2-33.2 33.2s-33.2-14.8-33.2-33.2 14.8-33.2 33.2-33.2 33.2 14.8 33.2 33.2" style="fill:url(#_Градієнт_без_назви_61)"/><path d="M136.7 477.8c1.2 0 2.2.6 2.8 1.6l17.2 29.4c.6 1 .6 2.2 0 3.2s-1.6 1.6-2.8 1.6h-34.5c-1.2 0-2.2-.6-2.8-1.6s-.6-2.2 0-3.2l17.2-29.4c.6-1 1.6-1.6 2.8-1.6zm0 10.2c-1 0-1.9.9-1.9 1.9v8.9c0 1 .9 1.9 1.9 1.9s1.9-.9 1.9-1.9v-8.9c0-1-.9-1.9-1.9-1.9m2.5 17.9c0-1.5-1.2-2.6-2.6-2.6s-2.6 1.2-2.6 2.6 1.2 2.6 2.6 2.6 2.6-1.2 2.6-2.6" class="st11"/><rect width="533.7" height="120.8" x="1126.3" y="46.3" class="st12" rx="10.5" ry="10.5"/><g class="st7"><text style="isolation:isolate;font-family:OpenSans-Bold,&quot;Open Sans&quot;;font-weight:700;fill:#29292e;font-size:11.5px" transform="translate(1257.1 77.7)"><tspan x="0" y="0">Operation Flagged – Medium Risk</tspan></text><text style="isolation:isolate;font-size:11.2px;font-family:OpenSans-Regular,&quot;Open Sans&quot;;fill:#5f616e" transform="translate(1257.1 99.9)"><tspan x="0" y="0">Operation from a new device was detected. Review before processing.</tspan></text></g><path d="M1377.4 145.6c7.6 0 13.7-5.1 13.7-11.5s-6.1-11.5-13.7-11.5h-106.8c-7.6 0-13.7 5.1-13.7 11.5s6.1 11.5 13.7 11.5z" style="fill:url(#_Градієнт_без_назви_4)"/><g class="st7"><text class="st2" transform="translate(1274.2 137.8)"><tspan x="0" y="0">Review Operation</tspan></text></g><path d="M1540.6 145.6c7.6 0 13.7-5.1 13.7-11.5s-6.1-11.5-13.7-11.5h-106.8c-7.6 0-13.7 5.1-13.7 11.5s6.1 11.5 13.7 11.5z" class="st0"/><g class="st7"><text class="st10" transform="translate(1440.3 137.8)"><tspan x="0" y="0">Approve Anyway</tspan></text></g><path d="M1230 107.4c0 18.3-14.8 33.2-33.2 33.2s-33.2-14.8-33.2-33.2 14.8-33.2 33.2-33.2S1230 89 1230 107.4" style="fill:url(#_Градієнт_без_назви_41)"/><path d="M1196.8 86.8c1.2 0 2.2.6 2.8 1.6l17.2 29.4c.6 1 .6 2.2 0 3.2s-1.6 1.6-2.8 1.6h-34.5c-1.2 0-2.2-.6-2.8-1.6s-.6-2.2 0-3.2l17.2-29.4c.6-1 1.6-1.6 2.8-1.6zm0 10.4c-1 0-1.9.9-1.9 1.9v8.9c0 1 .9 1.9 1.9 1.9s1.9-.9 1.9-1.9v-8.9c0-1-.9-1.9-1.9-1.9m2.5 17.7c0-1.5-1.2-2.6-2.6-2.6s-2.6 1.2-2.6 2.6 1.2 2.6 2.6 2.6 2.6-1.2 2.6-2.6" class="st11"/></svg>